<?xml version="1.0" encoding="utf-8"?>
<!-- Generator: Adobe Illustrator 25.0.0, SVG Export Plug-In . SVG Version: 6.00 Build 0)  -->
<svg version="1.1" xmlns="http://www.w3.org/2000/svg" xmlns:xlink="http://www.w3.org/1999/xlink" x="0px" y="0px"
	 viewBox="0 0 64 65" style="enable-background:new 0 0 64 65;" xml:space="preserve">
<style type="text/css">
	.st0{fill:#FFFFFF;}
	.st1{fill:#0A7A78;}
	.st2{fill:#D1A846;}
</style>
<g id="Layer_2">
	<circle class="st0" cx="32.1" cy="32.8" r="31.6"/>
</g>
<g id="Layer_1">
	<g>
		<path class="st1" d="M46.7,53.5c1.9-0.3,3.6-1.1,5.4-2c2.2-1.1,4.3-2.5,6.1-4.2c-0.7,1.4-1.4,2.9-2.5,4c-0.2,0.2-0.4,0.5-0.6,0.8
			c-2,2.4-4.4,4.4-7,6.1c-3.5,2.2-7.4,3.6-11.5,4.1c-5.5,0.7-10.8,0.2-15.9-1.9c-1.8-0.7-3.6-1.6-5.2-2.7c-2.1-1.4-3.9-3-5.6-4.9
			c-1-1.1-1.8-2.3-2.7-3.5c-1.4-1.8-2.1-3.9-3-5.9c-1.6-3.9-1.8-7.9-1.5-12c0.1-1.9,0.4-3.8,1-5.6c0.7-2.2,1.5-4.4,2.8-6.4
			c1.5-2.5,3.3-4.8,5.5-6.7c4.1-3.7,8.9-6.2,14.4-7.4c2.2-0.5,4.5-0.8,6.8-0.7c-0.3,0.1-0.6,0.2-0.9,0.3c-3.2,0.9-6.1,2.4-8.8,4.4
			c-2,1.6-3.7,3.4-5.2,5.5c-1.3,1.8-2.2,3.7-3,5.7c-1.9,4.6-2,9.2-1.2,14c0.5,2.9,1.7,5.5,3.3,8c1.5,2.4,3.4,4.4,5.6,6.1
			c0.4,0.3,0.9,0.6,1.4,0.9c0.6,0.5,1.4,0.9,2.1,1.3c2.5,1.5,5.2,2.5,8.1,3.1c1.5,0.3,3.1,0.4,4.6,0.5
			C41.6,54.4,44.1,54.2,46.7,53.5z"/>
		<path class="st2" d="M46.7,53.5c-2.5,0.7-5.1,0.9-7.7,0.8c-1.6-0.1-3.1-0.2-4.6-0.5c-2.9-0.5-5.6-1.6-8.1-3.1
			c-0.7-0.4-1.5-0.8-2.1-1.3c0-1.9,0-3.8,0.1-5.8c0-0.5,0.1-1.1,0-1.6c0-0.5,0.2-0.7,0.7-0.7c0.6,0.1,1-0.1,0.8-0.8
			c-0.1-0.4,0.1-0.5,0.5-0.5c0.3,0,0.5,0,0.9,0c-0.5-1-1-1.9-1.1-2.9c-0.4-2.7,0.5-4.9,2.5-6.7c1.7-1.6,3.7-2.7,5.6-4
			c0.5-0.3,1.2-0.6,0.6-1.4c-0.1-0.1,0-0.5,0.1-0.6c0.4-0.6,0.3-1.2,0.4-1.8c0.1-0.7-0.1-1.2-0.8-1.7c-1.1-0.7-1.2-1.8-0.4-2.6
			c0.1-0.1,0.2-0.3,0.4-0.2c0.2,0.1,0.1,0.3,0.1,0.4c-0.1,1.6,0.3,2,1.9,2.1c0.2,0,0.5-0.1,0.6,0.2c0.1,0.2-0.3,0.3-0.4,0.4
			c-0.8,0.5-1.2,1.8-0.7,2.9c0.2,0.5,0.5,0.9,0.1,1.4c-0.2,0.2,0.1,0.3,0.3,0.4c1.1,0.7,2.2,1.4,3.3,2.2c2,1.4,4,2.8,5.2,5.2
			c1,2.1,0.7,4.1-0.4,6.1C43.7,40,43.7,40,44.6,40c0.5,0,0.7,0.1,0.6,0.7c-0.1,0.6,0.2,0.7,0.7,0.6c0.5-0.1,0.7,0.1,0.7,0.7
			C46.6,45.8,46.6,49.7,46.7,53.5z"/>
	</g>
	<g>
		<path class="st1" d="M24.3,15.9h0.5v0.8h-2.7c0,0.2-0.1,0.3-0.1,0.5c0,0.1-0.1,0.3-0.2,0.4c-0.1,0.1-0.1,0.2-0.2,0.4
			s-0.2,0.2-0.3,0.3h-0.8c0.2-0.2,0.3-0.3,0.5-0.5c0.1-0.2,0.2-0.4,0.3-0.6c0.1-0.2,0.1-0.4,0.1-0.6c0-0.2,0-0.4,0-0.6
			c0-0.2,0-0.4,0-0.6c0-0.1,0-0.2,0-0.3c0-0.1,0-0.2,0-0.3c0-0.1,0-0.2,0.1-0.3s0.1-0.2,0.2-0.3s0.2-0.1,0.2-0.2s0.2-0.1,0.3-0.1
			h2.2V15.9z M23.5,15.9v-1.3l-1.4,0v1.3H23.5z"/>
		<path class="st1" d="M26.9,15.9v0.8h-2.1v-0.8h0.7v-3.6c0-0.1,0-0.1,0.1-0.2c0-0.1,0.1-0.1,0.1-0.1c0,0,0.1-0.1,0.1-0.1
			c0,0,0.1,0,0.1,0h0.4v4H26.9z"/>
		<path class="st1" d="M31.7,15.9v-1.6c0-0.1,0-0.2,0.1-0.3c0.1-0.1,0.2-0.1,0.3-0.1h0.4v2H33v0.8h-6.3v-0.8h0.7v-1.5c0,0,0,0,0-0.1
			c0-0.1,0-0.2,0.1-0.3c0.1-0.1,0.2-0.1,0.3-0.1h0.4v2h1.4v-1.5c0,0,0,0,0-0.1c0,0,0-0.1,0-0.1c0-0.1,0-0.1,0.1-0.2
			c0,0,0.1-0.1,0.1-0.1c0.1,0,0.1,0,0.2,0h0.4v2H31.7z"/>
		<path class="st1" d="M33.5,15.9l0-1.6c0-0.3,0.2-0.4,0.4-0.5h2.6v2H37v0.8h-4.1v-0.8H33.5z M35.7,15.9v-1.3h-1.4v1.3H35.7z"/>
		<path class="st1" d="M37.6,15.9v-3.6c0-0.1,0-0.1,0.1-0.2c0-0.1,0.1-0.1,0.1-0.1s0.1-0.1,0.1-0.1c0,0,0.1,0,0.1,0h0.4v3.8
			c0,0.3-0.1,0.6-0.2,0.8c-0.1,0.2-0.3,0.3-0.5,0.3h-0.7v-0.8H37.6z"/>
		<path class="st1" d="M39,12.3c0-0.1,0-0.1,0.1-0.2c0-0.1,0.1-0.1,0.1-0.1s0.1-0.1,0.1-0.1s0.1,0,0.1,0h0.4v4.4
			c0,0.1-0.1,0.2-0.1,0.3c-0.1,0.1-0.2,0.1-0.3,0.1H39V12.3z"/>
		<path class="st1" d="M47.6,15.9v0.8l-5,0h0c-0.2,0-0.3-0.1-0.3-0.3v-0.4h4v-3.6c0-0.1,0-0.1,0.1-0.2c0-0.1,0.1-0.1,0.1-0.1
			c0,0,0.1-0.1,0.1-0.1c0,0,0.1,0,0.1,0h0.4v4H47.6z M44.4,14.2l-0.5-0.6c0,0-0.1-0.1-0.1-0.1s0-0.1,0-0.1c0,0,0,0,0-0.1
			c0,0,0-0.1,0-0.1c0-0.1,0-0.1,0.1-0.2S43.9,13,44,13c0,0,0.1-0.1,0.2-0.1H45c0.2,0,0.2,0.1,0.2,0.2c0,0,0,0,0,0.1v0.3h-0.7
			c0,0.1,0.1,0.1,0.1,0.2c0.1,0.1,0.1,0.1,0.2,0.2c0.1,0.1,0.1,0.1,0.2,0.2c0,0.1,0.1,0.1,0.1,0.2c0,0,0,0.1,0.1,0.1
			c0,0,0,0.1,0,0.1c0,0,0,0,0,0c0,0,0,0.1,0,0.1c0,0,0,0.1-0.1,0.1c-0.1,0.1-0.2,0.1-0.3,0.1H44c-0.2,0-0.2-0.1-0.2-0.3v-0.3H44.4z"
			/>
		<path class="st1" d="M52.4,15.9v-1.6c0-0.1,0-0.2,0.1-0.3c0.1-0.1,0.2-0.1,0.3-0.1h0.4v2h0.6v0.8h-6.3v-0.8h0.7v-1.5
			c0,0,0,0,0-0.1c0-0.1,0-0.2,0.1-0.3c0.1-0.1,0.2-0.1,0.3-0.1h0.4v2h1.4v-1.5c0,0,0,0,0-0.1c0,0,0-0.1,0-0.1c0-0.1,0-0.1,0.1-0.2
			c0,0,0.1-0.1,0.1-0.1c0.1,0,0.1,0,0.2,0h0.4v2H52.4z"/>
		<path class="st1" d="M53.7,15.9h0.6v-1.5c0,0,0,0,0-0.1c0-0.1,0-0.2,0.1-0.3c0.1-0.1,0.2-0.2,0.3-0.2H55c0,0.3,0,0.6,0,0.8
			c0,0.2,0,0.4,0,0.5v0.6c0,0.1,0,0.3-0.1,0.4c0,0.1-0.1,0.2-0.2,0.3c-0.1,0.1-0.1,0.1-0.2,0.2c-0.1,0-0.2,0.1-0.3,0.1h-0.7V15.9z
			 M54.6,12.5c0.1,0,0.2,0,0.3,0.1s0.1,0.2,0.1,0.3c0,0.1,0,0.1,0,0.2c0,0-0.1,0.1-0.1,0.1s-0.1,0.1-0.1,0.1c0,0-0.1,0-0.2,0
			c-0.1,0-0.1,0-0.2,0c0,0-0.1,0-0.1-0.1s-0.1-0.1-0.1-0.1c0,0,0-0.1,0-0.2c0-0.1,0-0.2,0.1-0.3S54.5,12.5,54.6,12.5z"/>
	</g>
</g>
</svg>
