<?xml version="1.0" encoding="utf-8"?>
<!-- Generator: Adobe Illustrator 25.0.0, SVG Export Plug-In . SVG Version: 6.00 Build 0)  -->
<svg version="1.1" xmlns="http://www.w3.org/2000/svg" xmlns:xlink="http://www.w3.org/1999/xlink" x="0px" y="0px"
	 viewBox="0 0 200 65" style="enable-background:new 0 0 200 65;" xml:space="preserve">
<style type="text/css">
	.st0{display:none;}
	.st1{display:inline;fill:#FFFFFF;}
	.st2{fill:#D1A846;}
	.st3{fill:#FFFFFF;}
	.st4{display:inline;}
	.st5{fill:#0A7A78;}
</style>
<g id="Layer_2" class="st0">
	<circle class="st1" cx="115.6" cy="32.8" r="31.6"/>
</g>
<g id="Layer_1_copy">
	<g>
		<path class="st2" d="M48.7,55.1c-2.7,0.7-5.5,1-8.3,0.8c-1.7-0.1-3.3-0.2-5-0.5c-3.1-0.6-6-1.7-8.7-3.3c-0.8-0.4-1.6-0.8-2.2-1.4
			c0-2.1,0-4.1,0.1-6.2c0-0.6,0.1-1.2,0-1.7c0-0.6,0.2-0.8,0.7-0.7c0.7,0.1,1-0.1,0.9-0.9c-0.1-0.4,0.1-0.6,0.5-0.5
			c0.3,0,0.6,0,0.9,0c-0.6-1.1-1.1-2-1.2-3.1c-0.4-2.9,0.5-5.2,2.7-7.2c1.9-1.7,4-2.9,6-4.3c0.5-0.3,1.3-0.6,0.6-1.5
			c-0.1-0.1,0-0.5,0.1-0.7c0.5-0.6,0.4-1.3,0.4-1.9c0.1-0.8-0.1-1.3-0.9-1.8c-1.2-0.7-1.3-2-0.4-2.8c0.1-0.1,0.2-0.3,0.4-0.2
			c0.2,0.1,0.1,0.3,0.1,0.4c-0.1,1.7,0.3,2.1,2,2.2c0.2,0,0.5-0.1,0.6,0.2c0.1,0.3-0.3,0.3-0.5,0.4c-0.9,0.5-1.3,1.9-0.7,3.1
			c0.2,0.5,0.5,1,0.1,1.5c-0.2,0.2,0.1,0.4,0.3,0.5c1.2,0.8,2.3,1.5,3.5,2.3c2.2,1.5,4.3,3,5.5,5.6c1.1,2.3,0.8,4.4-0.4,6.5
			c-0.5,0.8-0.5,0.8,0.5,0.8c0.5,0,0.8,0.1,0.7,0.7c-0.1,0.7,0.3,0.8,0.8,0.7c0.6-0.1,0.8,0.1,0.8,0.8C48.6,46.9,48.7,51,48.7,55.1z
			"/>
		<path class="st3" d="M48.7,54.2c2-0.4,3.9-1.2,5.7-2.1c2.4-1.2,4.6-2.7,6.5-4.6c-0.8,1.5-1.5,3.1-2.7,4.3
			c-0.3,0.3-0.4,0.6-0.7,0.9c-2.1,2.6-4.7,4.7-7.5,6.5c-3.8,2.4-7.9,3.8-12.4,4.4c-5.9,0.7-11.6,0.2-17.1-2.1
			c-2-0.8-3.8-1.7-5.6-2.9c-2.2-1.5-4.2-3.2-6.1-5.2C7.8,52.2,7,50.8,6,49.6c-1.5-1.9-2.3-4.2-3.2-6.4C1.1,39,0.9,34.7,1.2,30.3
			c0.1-2.1,0.5-4.1,1.1-6.1c0.8-2.4,1.7-4.7,3-6.9c1.6-2.7,3.6-5.1,5.9-7.2c4.4-4,9.6-6.6,15.4-7.9c2.4-0.6,4.8-0.8,7.3-0.7
			c-0.3,0.1-0.6,0.2-1,0.3c-3.5,0.9-6.6,2.5-9.4,4.7c-2.2,1.7-4,3.7-5.6,5.9c-1.4,1.9-2.3,4-3.2,6.2c-2.1,4.9-2.2,9.9-1.2,15.1
			c0.6,3.1,1.8,5.9,3.5,8.6c1.6,2.5,3.7,4.7,6.1,6.6c0.5,0.4,1,0.7,1.5,1c0.7,0.6,1.5,1,2.2,1.4c2.7,1.6,5.6,2.7,8.7,3.3
			c1.6,0.3,3.3,0.4,5,0.5C43.2,55.2,46,54.9,48.7,54.2z"/>
	</g>
	<g>
		<path class="st3" d="M64,31c1.2,0,2.3,0.4,3.1,1.2c0.9,0.8,1.4,1.8,1.4,3v3.4c0,0.2,0,0.4-0.1,0.6h4.1v3.6H57.8
			c-0.4,0-0.6,0.2-0.6,0.6v4.2h-3.9v-4.2c0-2,1-3.3,2.9-4c-0.1-0.3-0.1-0.6-0.1-0.9v-3.3c0-1.2,0.4-2.2,1.3-3
			c0.9-0.8,1.9-1.2,3.1-1.2H64z M60.5,34.6c-0.4,0-0.6,0.2-0.6,0.6v3.4c0,0.4,0.2,0.6,0.6,0.6H64c0.4,0,0.6-0.2,0.6-0.6v-3.4
			c0-0.4-0.2-0.6-0.6-0.6H60.5z"/>
		<path class="st3" d="M79.3,38.6c0,0.4,0.2,0.6,0.7,0.6h3.5v3.6H80c-1,0-1.8-0.3-2.6-0.8c-0.7,0.6-1.5,0.8-2.5,0.8h-3.4v-3.6h3.4
			c0.4,0,0.5-0.2,0.5-0.6V24.9h3.9V38.6z"/>
		<path class="st3" d="M105.9,39.2v3.6h-7.8c-0.2,0.1-0.4,0.1-0.6,0.1h-0.8c-1.1,0-1.9-0.4-2.5-1.3c-0.6,0.9-1.5,1.3-2.6,1.3h-0.7
			c-0.2,0-0.4,0-0.7-0.1h-7.8v-3.6h4v-7.3h3.9v6.7c0,0.4,0.2,0.6,0.5,0.6h0.7c0.4,0,0.6-0.2,0.6-0.6v-6.7H96v6.7
			c0,0.4,0.2,0.6,0.6,0.6h0.8c0.4,0,0.5-0.2,0.5-0.6v-7.5h3.9v8.1H105.9z"/>
		<path class="st3" d="M116.8,31c1.2,0,2.3,0.4,3.1,1.2c0.9,0.8,1.3,1.8,1.3,3v4h4v3.6h-20.4v-3.6h4v-4c0-1.2,0.4-2.2,1.3-3
			c0.9-0.8,1.9-1.2,3.1-1.2H116.8z M113.3,34.6c-0.4,0-0.7,0.2-0.7,0.6v3.4c0,0.4,0.2,0.6,0.7,0.6h3.5c0.4,0,0.6-0.2,0.6-0.6v-3.4
			c0-0.4-0.2-0.6-0.6-0.6H113.3z"/>
		<path class="st3" d="M132,38.5c0,1.2-0.5,2.3-1.4,3.1c-0.9,0.8-1.9,1.2-3.1,1.2h-3.3v-3.6h3.3c0.4,0,0.6-0.2,0.6-0.6V24.9h3.9
			V38.5z"/>
		<path class="st3" d="M134.1,42.8V24.9h3.9v17.9H134.1z"/>
		<path class="st3" d="M164.4,39.2h4.1v3.6h-18.2c-1.2,0-2.3-0.4-3.1-1.2c-0.9-0.8-1.3-1.8-1.3-3v-4.4h3.8v4.4
			c0,0.4,0.2,0.6,0.6,0.6h9.8c0.4,0,0.6-0.2,0.6-0.6V25h3.8v13.6L164.4,39.2z M155.3,32.5c-0.2,0-0.3,0.1-0.3,0.3v0.6h2.8v2.2h-5.1
			v-2.8c0-1.6,0.9-2.5,2.6-2.5h2.5v2.2H155.3z"/>
		<path class="st3" d="M191,39.2v3.6h-7.8c-0.2,0.1-0.4,0.1-0.6,0.1h-0.8c-1.1,0-1.9-0.4-2.5-1.3c-0.6,0.9-1.5,1.3-2.6,1.3H176
			c-0.2,0-0.4,0-0.7-0.1h-7.8v-3.6h4v-7.3h3.9v6.7c0,0.4,0.2,0.6,0.5,0.6h0.7c0.4,0,0.6-0.2,0.6-0.6v-6.7h3.8v6.7
			c0,0.4,0.2,0.6,0.6,0.6h0.8c0.4,0,0.5-0.2,0.5-0.6v-7.5h3.9v8.1H191z"/>
		<path class="st3" d="M197.9,38.6c0,1.2-0.4,2.2-1.3,3c-0.9,0.8-1.9,1.2-3.3,1.2H190v-3.6h3.4c0.4,0,0.6-0.2,0.6-0.5V31h3.9V38.6z
			 M198,26.7c0,1.3-0.7,1.9-2,1.9c-1.4,0-2-0.6-2-1.9c0-1.2,0.7-1.9,2-1.9C197.3,24.9,198,25.5,198,26.7z"/>
	</g>
</g>
<g id="Layer_1" class="st0">
	<g class="st4">
		<path class="st5" d="M130.1,53.5c1.9-0.3,3.6-1.1,5.4-2c2.2-1.1,4.3-2.5,6.1-4.2c-0.7,1.4-1.4,2.9-2.5,4c-0.2,0.2-0.4,0.5-0.6,0.8
			c-2,2.4-4.4,4.4-7,6.1c-3.5,2.2-7.4,3.6-11.5,4.1c-5.5,0.7-10.8,0.2-15.9-1.9c-1.8-0.7-3.6-1.6-5.2-2.7c-2.1-1.4-3.9-3-5.6-4.9
			c-1-1.1-1.8-2.3-2.7-3.5c-1.4-1.8-2.1-3.9-3-5.9c-1.6-3.9-1.8-7.9-1.5-12c0.1-1.9,0.4-3.8,1-5.6c0.7-2.2,1.5-4.4,2.8-6.4
			c1.5-2.5,3.3-4.8,5.5-6.7c4.1-3.7,8.9-6.2,14.4-7.4c2.2-0.5,4.5-0.8,6.8-0.7c-0.3,0.1-0.6,0.2-0.9,0.3c-3.2,0.9-6.1,2.4-8.8,4.4
			c-2,1.6-3.7,3.4-5.2,5.5c-1.3,1.8-2.2,3.7-3,5.7c-1.9,4.6-2,9.2-1.2,14c0.5,2.9,1.7,5.5,3.3,8c1.5,2.4,3.4,4.4,5.6,6.1
			c0.4,0.3,0.9,0.6,1.4,0.9c0.6,0.5,1.4,0.9,2.1,1.3c2.5,1.5,5.2,2.5,8.1,3.1c1.5,0.3,3.1,0.4,4.6,0.5
			C125,54.4,127.6,54.2,130.1,53.5z"/>
		<path class="st2" d="M130.1,53.5c-2.5,0.7-5.1,0.9-7.7,0.8c-1.6-0.1-3.1-0.2-4.6-0.5c-2.9-0.5-5.6-1.6-8.1-3.1
			c-0.7-0.4-1.5-0.8-2.1-1.3c0-1.9,0-3.8,0.1-5.8c0-0.5,0.1-1.1,0-1.6c0-0.5,0.2-0.7,0.7-0.7c0.6,0.1,1-0.1,0.8-0.8
			c-0.1-0.4,0.1-0.5,0.5-0.5c0.3,0,0.5,0,0.9,0c-0.5-1-1-1.9-1.1-2.9c-0.4-2.7,0.5-4.9,2.5-6.7c1.7-1.6,3.7-2.7,5.6-4
			c0.5-0.3,1.2-0.6,0.6-1.4c-0.1-0.1,0-0.5,0.1-0.6c0.4-0.6,0.3-1.2,0.4-1.8c0.1-0.7-0.1-1.2-0.8-1.7c-1.1-0.7-1.2-1.8-0.4-2.6
			c0.1-0.1,0.2-0.3,0.4-0.2c0.2,0.1,0.1,0.3,0.1,0.4c-0.1,1.6,0.3,2,1.9,2.1c0.2,0,0.5-0.1,0.6,0.2c0.1,0.2-0.3,0.3-0.4,0.4
			c-0.8,0.5-1.2,1.8-0.7,2.9c0.2,0.5,0.5,0.9,0.1,1.4c-0.2,0.2,0.1,0.3,0.3,0.4c1.1,0.7,2.2,1.4,3.3,2.2c2,1.4,4,2.8,5.2,5.2
			c1,2.1,0.7,4.1-0.4,6.1c-0.4,0.7-0.4,0.8,0.5,0.7c0.5,0,0.7,0.1,0.6,0.7c-0.1,0.6,0.2,0.7,0.7,0.6c0.5-0.1,0.7,0.1,0.7,0.7
			C130.1,45.8,130.1,49.7,130.1,53.5z"/>
	</g>
	<g class="st4">
		<path class="st5" d="M107.8,15.9h0.5v0.8h-2.7c0,0.2-0.1,0.3-0.1,0.5c0,0.1-0.1,0.3-0.2,0.4c-0.1,0.1-0.1,0.2-0.2,0.4
			s-0.2,0.2-0.3,0.3h-0.8c0.2-0.2,0.3-0.3,0.5-0.5c0.1-0.2,0.2-0.4,0.3-0.6c0.1-0.2,0.1-0.4,0.1-0.6c0-0.2,0-0.4,0-0.6
			c0-0.2,0-0.4,0-0.6c0-0.1,0-0.2,0-0.3c0-0.1,0-0.2,0-0.3c0-0.1,0-0.2,0.1-0.3s0.1-0.2,0.2-0.3s0.2-0.1,0.2-0.2s0.2-0.1,0.3-0.1
			h2.2V15.9z M107,15.9v-1.3l-1.4,0v1.3H107z"/>
		<path class="st5" d="M110.3,15.9v0.8h-2.1v-0.8h0.7v-3.6c0-0.1,0-0.1,0.1-0.2C109,12,109,12,109,12c0,0,0.1-0.1,0.1-0.1
			c0,0,0.1,0,0.1,0h0.4v4H110.3z"/>
		<path class="st5" d="M115.1,15.9v-1.6c0-0.1,0-0.2,0.1-0.3c0.1-0.1,0.2-0.1,0.3-0.1h0.4v2h0.6v0.8h-6.3v-0.8h0.7v-1.5
			c0,0,0,0,0-0.1c0-0.1,0-0.2,0.1-0.3c0.1-0.1,0.2-0.1,0.3-0.1h0.4v2h1.4v-1.5c0,0,0,0,0-0.1c0,0,0-0.1,0-0.1c0-0.1,0-0.1,0.1-0.2
			c0,0,0.1-0.1,0.1-0.1c0.1,0,0.1,0,0.2,0h0.4v2H115.1z"/>
		<path class="st5" d="M116.9,15.9l0-1.6c0-0.3,0.2-0.4,0.4-0.5h2.6v2h0.6v0.8h-4.1v-0.8H116.9z M119.1,15.9v-1.3h-1.4v1.3H119.1z"
			/>
		<path class="st5" d="M121.1,15.9v-3.6c0-0.1,0-0.1,0.1-0.2c0-0.1,0.1-0.1,0.1-0.1s0.1-0.1,0.1-0.1c0,0,0.1,0,0.1,0h0.4v3.8
			c0,0.3-0.1,0.6-0.2,0.8c-0.1,0.2-0.3,0.3-0.5,0.3h-0.7v-0.8H121.1z"/>
		<path class="st5" d="M122.5,12.3c0-0.1,0-0.1,0.1-0.2c0-0.1,0.1-0.1,0.1-0.1s0.1-0.1,0.1-0.1s0.1,0,0.1,0h0.4v4.4
			c0,0.1-0.1,0.2-0.1,0.3c-0.1,0.1-0.2,0.1-0.3,0.1h-0.4V12.3z"/>
		<path class="st5" d="M131.1,15.9v0.8l-5,0h0c-0.2,0-0.3-0.1-0.3-0.3v-0.4h4v-3.6c0-0.1,0-0.1,0.1-0.2c0-0.1,0.1-0.1,0.1-0.1
			c0,0,0.1-0.1,0.1-0.1c0,0,0.1,0,0.1,0h0.4v4H131.1z M127.9,14.2l-0.5-0.6c0,0-0.1-0.1-0.1-0.1s0-0.1,0-0.1c0,0,0,0,0-0.1
			c0,0,0-0.1,0-0.1c0-0.1,0-0.1,0.1-0.2s0.1-0.1,0.1-0.1c0,0,0.1-0.1,0.2-0.1h0.9c0.2,0,0.2,0.1,0.2,0.2c0,0,0,0,0,0.1v0.3h-0.7
			c0,0.1,0.1,0.1,0.1,0.2c0.1,0.1,0.1,0.1,0.2,0.2c0.1,0.1,0.1,0.1,0.2,0.2c0,0.1,0.1,0.1,0.1,0.2c0,0,0,0.1,0.1,0.1
			c0,0,0,0.1,0,0.1c0,0,0,0,0,0c0,0,0,0.1,0,0.1c0,0,0,0.1-0.1,0.1c-0.1,0.1-0.2,0.1-0.3,0.1h-0.9c-0.2,0-0.2-0.1-0.2-0.3v-0.3
			H127.9z"/>
		<path class="st5" d="M135.9,15.9v-1.6c0-0.1,0-0.2,0.1-0.3c0.1-0.1,0.2-0.1,0.3-0.1h0.4v2h0.6v0.8H131v-0.8h0.7v-1.5
			c0,0,0,0,0-0.1c0-0.1,0-0.2,0.1-0.3c0.1-0.1,0.2-0.1,0.3-0.1h0.4v2h1.4v-1.5c0,0,0,0,0-0.1c0,0,0-0.1,0-0.1c0-0.1,0-0.1,0.1-0.2
			c0,0,0.1-0.1,0.1-0.1c0.1,0,0.1,0,0.2,0h0.4v2H135.9z"/>
		<path class="st5" d="M137.1,15.9h0.6v-1.5c0,0,0,0,0-0.1c0-0.1,0-0.2,0.1-0.3c0.1-0.1,0.2-0.2,0.3-0.2h0.4c0,0.3,0,0.6,0,0.8
			c0,0.2,0,0.4,0,0.5v0.6c0,0.1,0,0.3-0.1,0.4c0,0.1-0.1,0.2-0.2,0.3c-0.1,0.1-0.1,0.1-0.2,0.2c-0.1,0-0.2,0.1-0.3,0.1h-0.7V15.9z
			 M138.1,12.5c0.1,0,0.2,0,0.3,0.1s0.1,0.2,0.1,0.3c0,0.1,0,0.1,0,0.2c0,0-0.1,0.1-0.1,0.1s-0.1,0.1-0.1,0.1c0,0-0.1,0-0.2,0
			c-0.1,0-0.1,0-0.2,0c0,0-0.1,0-0.1-0.1s-0.1-0.1-0.1-0.1c0,0,0-0.1,0-0.2c0-0.1,0-0.2,0.1-0.3S138,12.5,138.1,12.5z"/>
	</g>
	<g class="st4">
		<path class="st5" d="M107.8,15.9h0.5v0.8h-2.7c0,0.2-0.1,0.3-0.1,0.5c0,0.1-0.1,0.3-0.2,0.4c-0.1,0.1-0.1,0.2-0.2,0.4
			s-0.2,0.2-0.3,0.3h-0.8c0.2-0.2,0.3-0.3,0.5-0.5c0.1-0.2,0.2-0.4,0.3-0.6c0.1-0.2,0.1-0.4,0.1-0.6c0-0.2,0-0.4,0-0.6
			c0-0.2,0-0.4,0-0.6c0-0.1,0-0.2,0-0.3c0-0.1,0-0.2,0-0.3c0-0.1,0-0.2,0.1-0.3s0.1-0.2,0.2-0.3s0.2-0.1,0.2-0.2s0.2-0.1,0.3-0.1
			h2.2V15.9z M107,15.9v-1.3l-1.4,0v1.3H107z"/>
		<path class="st5" d="M110.3,15.9v0.8h-2.1v-0.8h0.7v-3.6c0-0.1,0-0.1,0.1-0.2C109,12,109,12,109,12c0,0,0.1-0.1,0.1-0.1
			c0,0,0.1,0,0.1,0h0.4v4H110.3z"/>
		<path class="st5" d="M115.1,15.9v-1.6c0-0.1,0-0.2,0.1-0.3c0.1-0.1,0.2-0.1,0.3-0.1h0.4v2h0.6v0.8h-6.3v-0.8h0.7v-1.5
			c0,0,0,0,0-0.1c0-0.1,0-0.2,0.1-0.3c0.1-0.1,0.2-0.1,0.3-0.1h0.4v2h1.4v-1.5c0,0,0,0,0-0.1c0,0,0-0.1,0-0.1c0-0.1,0-0.1,0.1-0.2
			c0,0,0.1-0.1,0.1-0.1c0.1,0,0.1,0,0.2,0h0.4v2H115.1z"/>
		<path class="st5" d="M116.9,15.9l0-1.6c0-0.3,0.2-0.4,0.4-0.5h2.6v2h0.6v0.8h-4.1v-0.8H116.9z M119.1,15.9v-1.3h-1.4v1.3H119.1z"
			/>
		<path class="st5" d="M121.1,15.9v-3.6c0-0.1,0-0.1,0.1-0.2c0-0.1,0.1-0.1,0.1-0.1s0.1-0.1,0.1-0.1c0,0,0.1,0,0.1,0h0.4v3.8
			c0,0.3-0.1,0.6-0.2,0.8c-0.1,0.2-0.3,0.3-0.5,0.3h-0.7v-0.8H121.1z"/>
		<path class="st5" d="M122.5,12.3c0-0.1,0-0.1,0.1-0.2c0-0.1,0.1-0.1,0.1-0.1s0.1-0.1,0.1-0.1s0.1,0,0.1,0h0.4v4.4
			c0,0.1-0.1,0.2-0.1,0.3c-0.1,0.1-0.2,0.1-0.3,0.1h-0.4V12.3z"/>
		<path class="st5" d="M131.1,15.9v0.8l-5,0h0c-0.2,0-0.3-0.1-0.3-0.3v-0.4h4v-3.6c0-0.1,0-0.1,0.1-0.2c0-0.1,0.1-0.1,0.1-0.1
			c0,0,0.1-0.1,0.1-0.1c0,0,0.1,0,0.1,0h0.4v4H131.1z M127.9,14.2l-0.5-0.6c0,0-0.1-0.1-0.1-0.1s0-0.1,0-0.1c0,0,0,0,0-0.1
			c0,0,0-0.1,0-0.1c0-0.1,0-0.1,0.1-0.2s0.1-0.1,0.1-0.1c0,0,0.1-0.1,0.2-0.1h0.9c0.2,0,0.2,0.1,0.2,0.2c0,0,0,0,0,0.1v0.3h-0.7
			c0,0.1,0.1,0.1,0.1,0.2c0.1,0.1,0.1,0.1,0.2,0.2c0.1,0.1,0.1,0.1,0.2,0.2c0,0.1,0.1,0.1,0.1,0.2c0,0,0,0.1,0.1,0.1
			c0,0,0,0.1,0,0.1c0,0,0,0,0,0c0,0,0,0.1,0,0.1c0,0,0,0.1-0.1,0.1c-0.1,0.1-0.2,0.1-0.3,0.1h-0.9c-0.2,0-0.2-0.1-0.2-0.3v-0.3
			H127.9z"/>
		<path class="st5" d="M135.9,15.9v-1.6c0-0.1,0-0.2,0.1-0.3c0.1-0.1,0.2-0.1,0.3-0.1h0.4v2h0.6v0.8H131v-0.8h0.7v-1.5
			c0,0,0,0,0-0.1c0-0.1,0-0.2,0.1-0.3c0.1-0.1,0.2-0.1,0.3-0.1h0.4v2h1.4v-1.5c0,0,0,0,0-0.1c0,0,0-0.1,0-0.1c0-0.1,0-0.1,0.1-0.2
			c0,0,0.1-0.1,0.1-0.1c0.1,0,0.1,0,0.2,0h0.4v2H135.9z"/>
		<path class="st5" d="M137.1,15.9h0.6v-1.5c0,0,0,0,0-0.1c0-0.1,0-0.2,0.1-0.3c0.1-0.1,0.2-0.2,0.3-0.2h0.4c0,0.3,0,0.6,0,0.8
			c0,0.2,0,0.4,0,0.5v0.6c0,0.1,0,0.3-0.1,0.4c0,0.1-0.1,0.2-0.2,0.3c-0.1,0.1-0.1,0.1-0.2,0.2c-0.1,0-0.2,0.1-0.3,0.1h-0.7V15.9z
			 M138.1,12.5c0.1,0,0.2,0,0.3,0.1s0.1,0.2,0.1,0.3c0,0.1,0,0.1,0,0.2c0,0-0.1,0.1-0.1,0.1s-0.1,0.1-0.1,0.1c0,0-0.1,0-0.2,0
			c-0.1,0-0.1,0-0.2,0c0,0-0.1,0-0.1-0.1s-0.1-0.1-0.1-0.1c0,0,0-0.1,0-0.2c0-0.1,0-0.2,0.1-0.3S138,12.5,138.1,12.5z"/>
	</g>
	<g class="st4">
		<path class="st5" d="M107.8,15.9h0.5v0.8h-2.7c0,0.2-0.1,0.3-0.1,0.5c0,0.1-0.1,0.3-0.2,0.4c-0.1,0.1-0.1,0.2-0.2,0.4
			s-0.2,0.2-0.3,0.3h-0.8c0.2-0.2,0.3-0.3,0.5-0.5c0.1-0.2,0.2-0.4,0.3-0.6c0.1-0.2,0.1-0.4,0.1-0.6c0-0.2,0-0.4,0-0.6
			c0-0.2,0-0.4,0-0.6c0-0.1,0-0.2,0-0.3c0-0.1,0-0.2,0-0.3c0-0.1,0-0.2,0.1-0.3s0.1-0.2,0.2-0.3s0.2-0.1,0.2-0.2s0.2-0.1,0.3-0.1
			h2.2V15.9z M107,15.9v-1.3l-1.4,0v1.3H107z"/>
		<path class="st5" d="M110.3,15.9v0.8h-2.1v-0.8h0.7v-3.6c0-0.1,0-0.1,0.1-0.2C109,12,109,12,109,12c0,0,0.1-0.1,0.1-0.1
			c0,0,0.1,0,0.1,0h0.4v4H110.3z"/>
		<path class="st5" d="M115.1,15.9v-1.6c0-0.1,0-0.2,0.1-0.3c0.1-0.1,0.2-0.1,0.3-0.1h0.4v2h0.6v0.8h-6.3v-0.8h0.7v-1.5
			c0,0,0,0,0-0.1c0-0.1,0-0.2,0.1-0.3c0.1-0.1,0.2-0.1,0.3-0.1h0.4v2h1.4v-1.5c0,0,0,0,0-0.1c0,0,0-0.1,0-0.1c0-0.1,0-0.1,0.1-0.2
			c0,0,0.1-0.1,0.1-0.1c0.1,0,0.1,0,0.2,0h0.4v2H115.1z"/>
		<path class="st5" d="M116.9,15.9l0-1.6c0-0.3,0.2-0.4,0.4-0.5h2.6v2h0.6v0.8h-4.1v-0.8H116.9z M119.1,15.9v-1.3h-1.4v1.3H119.1z"
			/>
		<path class="st5" d="M121.1,15.9v-3.6c0-0.1,0-0.1,0.1-0.2c0-0.1,0.1-0.1,0.1-0.1s0.1-0.1,0.1-0.1c0,0,0.1,0,0.1,0h0.4v3.8
			c0,0.3-0.1,0.6-0.2,0.8c-0.1,0.2-0.3,0.3-0.5,0.3h-0.7v-0.8H121.1z"/>
		<path class="st5" d="M122.5,12.3c0-0.1,0-0.1,0.1-0.2c0-0.1,0.1-0.1,0.1-0.1s0.1-0.1,0.1-0.1s0.1,0,0.1,0h0.4v4.4
			c0,0.1-0.1,0.2-0.1,0.3c-0.1,0.1-0.2,0.1-0.3,0.1h-0.4V12.3z"/>
		<path class="st5" d="M131.1,15.9v0.8l-5,0h0c-0.2,0-0.3-0.1-0.3-0.3v-0.4h4v-3.6c0-0.1,0-0.1,0.1-0.2c0-0.1,0.1-0.1,0.1-0.1
			c0,0,0.1-0.1,0.1-0.1c0,0,0.1,0,0.1,0h0.4v4H131.1z M127.9,14.2l-0.5-0.6c0,0-0.1-0.1-0.1-0.1s0-0.1,0-0.1c0,0,0,0,0-0.1
			c0,0,0-0.1,0-0.1c0-0.1,0-0.1,0.1-0.2s0.1-0.1,0.1-0.1c0,0,0.1-0.1,0.2-0.1h0.9c0.2,0,0.2,0.1,0.2,0.2c0,0,0,0,0,0.1v0.3h-0.7
			c0,0.1,0.1,0.1,0.1,0.2c0.1,0.1,0.1,0.1,0.2,0.2c0.1,0.1,0.1,0.1,0.2,0.2c0,0.1,0.1,0.1,0.1,0.2c0,0,0,0.1,0.1,0.1
			c0,0,0,0.1,0,0.1c0,0,0,0,0,0c0,0,0,0.1,0,0.1c0,0,0,0.1-0.1,0.1c-0.1,0.1-0.2,0.1-0.3,0.1h-0.9c-0.2,0-0.2-0.1-0.2-0.3v-0.3
			H127.9z"/>
		<path class="st5" d="M135.9,15.9v-1.6c0-0.1,0-0.2,0.1-0.3c0.1-0.1,0.2-0.1,0.3-0.1h0.4v2h0.6v0.8H131v-0.8h0.7v-1.5
			c0,0,0,0,0-0.1c0-0.1,0-0.2,0.1-0.3c0.1-0.1,0.2-0.1,0.3-0.1h0.4v2h1.4v-1.5c0,0,0,0,0-0.1c0,0,0-0.1,0-0.1c0-0.1,0-0.1,0.1-0.2
			c0,0,0.1-0.1,0.1-0.1c0.1,0,0.1,0,0.2,0h0.4v2H135.9z"/>
		<path class="st5" d="M137.1,15.9h0.6v-1.5c0,0,0,0,0-0.1c0-0.1,0-0.2,0.1-0.3c0.1-0.1,0.2-0.2,0.3-0.2h0.4c0,0.3,0,0.6,0,0.8
			c0,0.2,0,0.4,0,0.5v0.6c0,0.1,0,0.3-0.1,0.4c0,0.1-0.1,0.2-0.2,0.3c-0.1,0.1-0.1,0.1-0.2,0.2c-0.1,0-0.2,0.1-0.3,0.1h-0.7V15.9z
			 M138.1,12.5c0.1,0,0.2,0,0.3,0.1s0.1,0.2,0.1,0.3c0,0.1,0,0.1,0,0.2c0,0-0.1,0.1-0.1,0.1s-0.1,0.1-0.1,0.1c0,0-0.1,0-0.2,0
			c-0.1,0-0.1,0-0.2,0c0,0-0.1,0-0.1-0.1s-0.1-0.1-0.1-0.1c0,0,0-0.1,0-0.2c0-0.1,0-0.2,0.1-0.3S138,12.5,138.1,12.5z"/>
	</g>
</g>
</svg>
