<?xml version="1.0" encoding="utf-8"?>
<!-- Generator: Adobe Illustrator 25.0.0, SVG Export Plug-In . SVG Version: 6.00 Build 0)  -->
<svg version="1.1" id="Layer_1" xmlns="http://www.w3.org/2000/svg" xmlns:xlink="http://www.w3.org/1999/xlink" x="0px" y="0px"
	 viewBox="0 0 2630 1712" style="enable-background:new 0 0 2630 1712;" xml:space="preserve">
<style type="text/css">
	.st0{clip-path:url(#SVGID_3_);}
	.st1{opacity:0.9559;fill:#D4D4D4;}
	.st2{opacity:0.7927;fill:#D4D4D4;}
	.st3{opacity:0.8033;fill:#D4D4D4;}
	.st4{opacity:0.1607;fill:#D4D4D4;}
	.st5{opacity:0.6892;fill:#D4D4D4;}
	.st6{opacity:0.1245;fill:#D4D4D4;}
	.st7{opacity:0.3868;fill:#D4D4D4;}
	.st8{opacity:0.2765;fill:#D4D4D4;}
	.st9{opacity:0.337;fill:#D4D4D4;}
	.st10{opacity:0.3869;fill:#D4D4D4;}
	.st11{opacity:0.3376;fill:#D4D4D4;}
	.st12{opacity:0.6847;fill:#D4D4D4;}
	.st13{opacity:0.6022;fill:#D4D4D4;}
	.st14{opacity:0.1208;fill:#D4D4D4;}
	.st15{opacity:0.5002;fill:#D4D4D4;}
	.st16{opacity:0.101;fill:#D4D4D4;}
	.st17{opacity:0.2082;fill:#D4D4D4;}
	.st18{opacity:0.47;fill:#D4D4D4;}
	.st19{opacity:0.6039;fill:#D4D4D4;}
	.st20{opacity:0.3287;fill:#D4D4D4;}
	.st21{opacity:0.4329;fill:#D4D4D4;}
	.st22{opacity:0.9322;fill:#D4D4D4;}
	.st23{opacity:0.8917;fill:#D4D4D4;}
	.st24{opacity:0.6119;fill:#D4D4D4;}
	.st25{opacity:0.5034;fill:#D4D4D4;}
	.st26{opacity:0.8567;fill:#D4D4D4;}
	.st27{opacity:0.2332;fill:#D4D4D4;}
	.st28{opacity:0.9263;fill:#D4D4D4;}
	.st29{opacity:0.8113;fill:#D4D4D4;}
	.st30{opacity:0.135;fill:#D4D4D4;}
	.st31{opacity:0.8073;fill:#D4D4D4;}
	.st32{opacity:0.6813;fill:#D4D4D4;}
	.st33{opacity:0.7582;fill:#D4D4D4;}
	.st34{opacity:0.1818;fill:#D4D4D4;}
	.st35{opacity:0.9873;fill:#D4D4D4;}
	.st36{opacity:0.4544;fill:#D4D4D4;}
	.st37{opacity:0.9901;fill:#D4D4D4;}
	.st38{opacity:0.4522;fill:#D4D4D4;}
	.st39{opacity:0.8146;fill:#D4D4D4;}
	.st40{opacity:0.4283;fill:#D4D4D4;}
	.st41{opacity:0.4304;fill:#D4D4D4;}
	.st42{opacity:0.5937;fill:#D4D4D4;}
	.st43{opacity:0.794;fill:#D4D4D4;}
	.st44{opacity:0.4558;fill:#D4D4D4;}
	.st45{opacity:0.5712;fill:#D4D4D4;}
	.st46{opacity:0.7778;fill:#D4D4D4;}
	.st47{opacity:0.3953;fill:#D4D4D4;}
	.st48{opacity:0.8213;fill:#D4D4D4;}
	.st49{opacity:0.2318;fill:#D4D4D4;}
	.st50{opacity:0.4101;fill:#D4D4D4;}
	.st51{opacity:0.3959;fill:#D4D4D4;}
	.st52{opacity:0.5225;fill:#D4D4D4;}
	.st53{opacity:0.444;fill:#D4D4D4;}
	.st54{opacity:0.3642;fill:#D4D4D4;}
	.st55{opacity:0.1488;fill:#D4D4D4;}
	.st56{opacity:0.2437;fill:#D4D4D4;}
	.st57{opacity:0.8736;fill:#D4D4D4;}
	.st58{opacity:0.8367;fill:#D4D4D4;}
	.st59{opacity:0.2101;fill:#D4D4D4;}
	.st60{opacity:0.5423;fill:#D4D4D4;}
	.st61{opacity:0.237;fill:#D4D4D4;}
	.st62{opacity:0.8715;fill:#D4D4D4;}
	.st63{opacity:0.5098;fill:#D4D4D4;}
	.st64{opacity:0.6213;fill:#D4D4D4;}
	.st65{opacity:0.1235;fill:#D4D4D4;}
	.st66{opacity:0.6475;fill:#D4D4D4;}
	.st67{opacity:0.902;fill:#D4D4D4;}
	.st68{opacity:0.808;fill:#D4D4D4;}
	.st69{opacity:0.3811;fill:#D4D4D4;}
	.st70{opacity:0.8799;fill:#D4D4D4;}
	.st71{opacity:0.5769;fill:#D4D4D4;}
	.st72{opacity:0.6128;fill:#D4D4D4;}
	.st73{opacity:0.776;fill:#D4D4D4;}
	.st74{opacity:0.4287;fill:#D4D4D4;}
	.st75{opacity:0.4703;fill:#D4D4D4;}
	.st76{opacity:0.8884;fill:#D4D4D4;}
	.st77{opacity:0.686;fill:#D4D4D4;}
	.st78{opacity:0.8642;fill:#D4D4D4;}
	.st79{opacity:0.6546;fill:#D4D4D4;}
	.st80{opacity:0.1623;fill:#D4D4D4;}
	.st81{opacity:0.7345;fill:#D4D4D4;}
	.st82{opacity:0.1842;fill:#D4D4D4;}
	.st83{opacity:0.4454;fill:#D4D4D4;}
	.st84{opacity:0.8631;fill:#D4D4D4;}
	.st85{opacity:0.8287;fill:#D4D4D4;}
	.st86{opacity:0.6308;fill:#D4D4D4;}
	.st87{opacity:0.408;fill:#D4D4D4;}
	.st88{opacity:0.2147;fill:#D4D4D4;}
	.st89{opacity:0.3063;fill:#D4D4D4;}
	.st90{opacity:0.2041;fill:#D4D4D4;}
	.st91{opacity:0.4996;fill:#D4D4D4;}
	.st92{opacity:0.4181;fill:#D4D4D4;}
	.st93{opacity:0.9548;fill:#D4D4D4;}
	.st94{opacity:0.9176;fill:#D4D4D4;}
	.st95{opacity:0.7289;fill:#D4D4D4;}
	.st96{opacity:0.2935;fill:#D4D4D4;}
	.st97{opacity:0.6099;fill:#D4D4D4;}
	.st98{opacity:0.6956;fill:#D4D4D4;}
	.st99{opacity:0.3705;fill:#D4D4D4;}
	.st100{opacity:0.3053;fill:#D4D4D4;}
	.st101{opacity:0.5924;fill:#D4D4D4;}
	.st102{opacity:0.1558;fill:#D4D4D4;}
	.st103{opacity:0.3158;fill:#D4D4D4;}
	.st104{opacity:0.2407;fill:#D4D4D4;}
	.st105{opacity:0.2953;fill:#D4D4D4;}
	.st106{opacity:0.1765;fill:#D4D4D4;}
	.st107{opacity:0.9965;fill:#D4D4D4;}
	.st108{opacity:0.764;fill:#D4D4D4;}
	.st109{opacity:0.3776;fill:#D4D4D4;}
	.st110{opacity:0.7945;fill:#D4D4D4;}
	.st111{opacity:0.465;fill:#D4D4D4;}
	.st112{opacity:0.7198;fill:#D4D4D4;}
	.st113{opacity:0.4761;fill:#D4D4D4;}
	.st114{opacity:0.7304;fill:#D4D4D4;}
	.st115{opacity:0.3646;fill:#D4D4D4;}
	.st116{opacity:0.5047;fill:#D4D4D4;}
	.st117{opacity:0.2938;fill:#D4D4D4;}
	.st118{opacity:0.8882;fill:#D4D4D4;}
	.st119{opacity:0.9756;fill:#D4D4D4;}
	.st120{opacity:0.6812;fill:#D4D4D4;}
	.st121{opacity:0.7744;fill:#D4D4D4;}
	.st122{opacity:0.3261;fill:#D4D4D4;}
	.st123{opacity:0.2709;fill:#D4D4D4;}
	.st124{opacity:0.7554;fill:#D4D4D4;}
	.st125{opacity:0.7226;fill:#D4D4D4;}
	.st126{opacity:0.6459;fill:#D4D4D4;}
	.st127{opacity:0.6656;fill:#D4D4D4;}
	.st128{opacity:0.7894;fill:#D4D4D4;}
	.st129{opacity:0.8785;fill:#D4D4D4;}
	.st130{opacity:0.9974;fill:#D4D4D4;}
	.st131{opacity:0.5942;fill:#D4D4D4;}
	.st132{opacity:0.8711;fill:#D4D4D4;}
	.st133{opacity:0.9075;fill:#D4D4D4;}
	.st134{opacity:0.5438;fill:#D4D4D4;}
	.st135{opacity:0.7018;fill:#D4D4D4;}
	.st136{opacity:0.2137;fill:#D4D4D4;}
	.st137{opacity:0.4126;fill:#D4D4D4;}
	.st138{opacity:0.4872;fill:#D4D4D4;}
	.st139{opacity:0.881;fill:#D4D4D4;}
	.st140{opacity:0.805;fill:#D4D4D4;}
	.st141{opacity:0.2303;fill:#D4D4D4;}
	.st142{opacity:0.8991;fill:#D4D4D4;}
	.st143{opacity:0.8414;fill:#D4D4D4;}
	.st144{opacity:0.2808;fill:#D4D4D4;}
	.st145{opacity:0.7192;fill:#D4D4D4;}
	.st146{opacity:0.6531;fill:#D4D4D4;}
	.st147{opacity:0.2438;fill:#D4D4D4;}
	.st148{opacity:0.5422;fill:#D4D4D4;}
	.st149{opacity:0.4994;fill:#D4D4D4;}
	.st150{opacity:0.2079;fill:#D4D4D4;}
	.st151{opacity:0.2859;fill:#D4D4D4;}
	.st152{opacity:0.59;fill:#D4D4D4;}
	.st153{opacity:0.454;fill:#D4D4D4;}
	.st154{opacity:0.2357;fill:#D4D4D4;}
	.st155{opacity:0.9714;fill:#D4D4D4;}
	.st156{opacity:0.9969;fill:#D4D4D4;}
	.st157{opacity:0.251;fill:#D4D4D4;}
	.st158{opacity:0.3445;fill:#D4D4D4;}
	.st159{opacity:0.4487;fill:#D4D4D4;}
	.st160{opacity:0.1909;fill:#D4D4D4;}
	.st161{opacity:0.7896;fill:#D4D4D4;}
	.st162{opacity:0.5524;fill:#D4D4D4;}
	.st163{opacity:0.9705;fill:#D4D4D4;}
	.st164{opacity:0.6233;fill:#D4D4D4;}
	.st165{opacity:0.6334;fill:#D4D4D4;}
	.st166{opacity:0.2239;fill:#D4D4D4;}
	.st167{opacity:0.5556;fill:#D4D4D4;}
	.st168{opacity:0.5767;fill:#D4D4D4;}
	.st169{opacity:0.9102;fill:#D4D4D4;}
	.st170{opacity:0.974;fill:#D4D4D4;}
	.st171{opacity:0.1816;fill:#D4D4D4;}
	.st172{opacity:0.5237;fill:#D4D4D4;}
	.st173{opacity:0.1267;fill:#D4D4D4;}
	.st174{opacity:0.8224;fill:#D4D4D4;}
	.st175{opacity:0.7297;fill:#D4D4D4;}
	.st176{opacity:0.7218;fill:#D4D4D4;}
	.st177{opacity:0.6515;fill:#D4D4D4;}
	.st178{opacity:0.4112;fill:#D4D4D4;}
	.st179{opacity:0.6586;fill:#D4D4D4;}
	.st180{opacity:0.2772;fill:#D4D4D4;}
	.st181{opacity:0.4017;fill:#D4D4D4;}
	.st182{opacity:0.3785;fill:#D4D4D4;}
	.st183{opacity:0.9243;fill:#D4D4D4;}
	.st184{opacity:0.2316;fill:#D4D4D4;}
	.st185{opacity:0.9266;fill:#D4D4D4;}
	.st186{opacity:0.7256;fill:#D4D4D4;}
	.st187{opacity:0.5039;fill:#D4D4D4;}
	.st188{opacity:0.2169;fill:#D4D4D4;}
	.st189{opacity:0.2353;fill:#D4D4D4;}
	.st190{opacity:0.7708;fill:#D4D4D4;}
	.st191{opacity:0.7231;fill:#D4D4D4;}
	.st192{opacity:0.5749;fill:#D4D4D4;}
	.st193{opacity:0.6025;fill:#D4D4D4;}
	.st194{opacity:0.1094;fill:#D4D4D4;}
	.st195{opacity:0.2488;fill:#D4D4D4;}
	.st196{opacity:0.6894;fill:#D4D4D4;}
	.st197{opacity:0.8373;fill:#D4D4D4;}
	.st198{opacity:0.5541;fill:#D4D4D4;}
	.st199{opacity:0.855;fill:#D4D4D4;}
	.st200{opacity:0.5485;fill:#D4D4D4;}
	.st201{opacity:0.4747;fill:#D4D4D4;}
	.st202{opacity:0.4218;fill:#D4D4D4;}
	.st203{opacity:0.73;fill:#D4D4D4;}
	.st204{opacity:0.2922;fill:#D4D4D4;}
	.st205{opacity:0.4767;fill:#D4D4D4;}
	.st206{opacity:0.272;fill:#D4D4D4;}
	.st207{opacity:0.8342;fill:#D4D4D4;}
	.st208{opacity:0.5878;fill:#D4D4D4;}
	.st209{opacity:0.2377;fill:#D4D4D4;}
	.st210{opacity:0.7135;fill:#D4D4D4;}
	.st211{opacity:0.175;fill:#D4D4D4;}
	.st212{opacity:0.8676;fill:#D4D4D4;}
	.st213{opacity:0.978;fill:#D4D4D4;}
	.st214{opacity:0.74;fill:#D4D4D4;}
	.st215{opacity:0.5655;fill:#D4D4D4;}
	.st216{opacity:0.8986;fill:#D4D4D4;}
	.st217{opacity:0.3825;fill:#D4D4D4;}
	.st218{opacity:0.2107;fill:#D4D4D4;}
	.st219{opacity:0.8922;fill:#D4D4D4;}
	.st220{opacity:0.2371;fill:#D4D4D4;}
	.st221{opacity:0.3214;fill:#D4D4D4;}
	.st222{opacity:0.6802;fill:#D4D4D4;}
	.st223{opacity:0.6342;fill:#D4D4D4;}
	.st224{opacity:0.9529;fill:#D4D4D4;}
	.st225{opacity:0.2681;fill:#D4D4D4;}
	.st226{opacity:0.2776;fill:#D4D4D4;}
	.st227{opacity:0.3447;fill:#D4D4D4;}
	.st228{opacity:0.5832;fill:#D4D4D4;}
	.st229{opacity:0.6387;fill:#D4D4D4;}
	.st230{opacity:0.4512;fill:#D4D4D4;}
	.st231{opacity:0.4947;fill:#D4D4D4;}
	.st232{opacity:0.695;fill:#D4D4D4;}
	.st233{opacity:0.6371;fill:#D4D4D4;}
	.st234{opacity:0.4099;fill:#D4D4D4;}
	.st235{opacity:0.6323;fill:#D4D4D4;}
	.st236{opacity:0.8045;fill:#D4D4D4;}
	.st237{opacity:0.5166;fill:#D4D4D4;}
	.st238{opacity:0.7888;fill:#D4D4D4;}
	.st239{opacity:0.7562;fill:#D4D4D4;}
	.st240{opacity:0.8921;fill:#D4D4D4;}
	.st241{opacity:0.6403;fill:#D4D4D4;}
	.st242{opacity:0.698;fill:#D4D4D4;}
	.st243{opacity:0.5692;fill:#D4D4D4;}
	.st244{opacity:0.8047;fill:#D4D4D4;}
	.st245{opacity:0.5933;fill:#D4D4D4;}
	.st246{opacity:0.381;fill:#D4D4D4;}
	.st247{opacity:0.2051;fill:#D4D4D4;}
	.st248{opacity:0.8763;fill:#D4D4D4;}
	.st249{opacity:0.5883;fill:#D4D4D4;}
	.st250{opacity:0.4091;fill:#D4D4D4;}
	.st251{opacity:0.3094;fill:#D4D4D4;}
	.st252{opacity:0.3628;fill:#D4D4D4;}
	.st253{opacity:0.2993;fill:#D4D4D4;}
	.st254{opacity:0.532;fill:#D4D4D4;}
	.st255{opacity:0.4351;fill:#D4D4D4;}
	.st256{opacity:0.6401;fill:#D4D4D4;}
	.st257{opacity:0.6088;fill:#D4D4D4;}
	.st258{opacity:0.8587;fill:#D4D4D4;}
	.st259{opacity:0.5616;fill:#D4D4D4;}
	.st260{opacity:0.7599;fill:#D4D4D4;}
	.st261{opacity:0.7014;fill:#D4D4D4;}
	.st262{opacity:0.3881;fill:#D4D4D4;}
	.st263{opacity:0.1969;fill:#D4D4D4;}
	.st264{opacity:0.4114;fill:#D4D4D4;}
	.st265{opacity:0.4889;fill:#D4D4D4;}
	.st266{opacity:0.9637;fill:#D4D4D4;}
	.st267{opacity:0.7718;fill:#D4D4D4;}
	.st268{opacity:0.5859;fill:#D4D4D4;}
	.st269{opacity:0.8015;fill:#D4D4D4;}
	.st270{opacity:0.8716;fill:#D4D4D4;}
	.st271{opacity:0.3865;fill:#D4D4D4;}
	.st272{opacity:0.7903;fill:#D4D4D4;}
	.st273{opacity:0.529;fill:#D4D4D4;}
	.st274{opacity:0.557;fill:#D4D4D4;}
	.st275{opacity:0.1178;fill:#D4D4D4;}
	.st276{opacity:0.2073;fill:#D4D4D4;}
	.st277{opacity:0.2465;fill:#D4D4D4;}
	.st278{opacity:0.1771;fill:#D4D4D4;}
	.st279{opacity:0.1468;fill:#D4D4D4;}
	.st280{opacity:0.7487;fill:#D4D4D4;}
	.st281{opacity:0.7094;fill:#D4D4D4;}
	.st282{opacity:0.6659;fill:#D4D4D4;}
	.st283{opacity:0.4169;fill:#D4D4D4;}
	.st284{opacity:0.4985;fill:#D4D4D4;}
	.st285{opacity:0.3515;fill:#D4D4D4;}
	.st286{opacity:0.6305;fill:#D4D4D4;}
	.st287{opacity:0.693;fill:#D4D4D4;}
	.st288{opacity:0.8704;fill:#D4D4D4;}
	.st289{opacity:0.7519;fill:#D4D4D4;}
	.st290{opacity:0.146;fill:#D4D4D4;}
	.st291{opacity:0.3348;fill:#D4D4D4;}
	.st292{opacity:0.7357;fill:#D4D4D4;}
	.st293{opacity:0.811;fill:#D4D4D4;}
	.st294{opacity:0.4784;fill:#D4D4D4;}
	.st295{opacity:0.6877;fill:#D4D4D4;}
	.st296{opacity:0.1031;fill:#D4D4D4;}
	.st297{opacity:0.1136;fill:#D4D4D4;}
	.st298{opacity:0.2736;fill:#D4D4D4;}
	.st299{opacity:0.9484;fill:#D4D4D4;}
	.st300{opacity:0.5699;fill:#D4D4D4;}
	.st301{opacity:0.2544;fill:#D4D4D4;}
	.st302{opacity:0.1435;fill:#D4D4D4;}
	.st303{opacity:0.7545;fill:#D4D4D4;}
	.st304{opacity:0.3049;fill:#D4D4D4;}
	.st305{opacity:0.9468;fill:#D4D4D4;}
	.st306{opacity:0.8374;fill:#D4D4D4;}
	.st307{opacity:0.9994;fill:#D4D4D4;}
	.st308{opacity:0.9001;fill:#D4D4D4;}
	.st309{opacity:0.7661;fill:#D4D4D4;}
	.st310{opacity:0.8439;fill:#D4D4D4;}
	.st311{opacity:0.8978;fill:#D4D4D4;}
	.st312{opacity:0.7396;fill:#D4D4D4;}
	.st313{opacity:0.8936;fill:#D4D4D4;}
	.st314{opacity:0.407;fill:#D4D4D4;}
	.st315{opacity:0.9981;fill:#D4D4D4;}
	.st316{opacity:0.3468;fill:#D4D4D4;}
	.st317{opacity:0.1691;fill:#D4D4D4;}
	.st318{opacity:0.992;fill:#D4D4D4;}
	.st319{opacity:0.8025;fill:#D4D4D4;}
	.st320{opacity:0.241;fill:#D4D4D4;}
	.st321{opacity:0.3518;fill:#D4D4D4;}
	.st322{opacity:0.3185;fill:#D4D4D4;}
	.st323{opacity:0.5857;fill:#D4D4D4;}
	.st324{opacity:0.7422;fill:#D4D4D4;}
	.st325{opacity:0.4478;fill:#D4D4D4;}
	.st326{opacity:0.6634;fill:#D4D4D4;}
	.st327{opacity:0.1191;fill:#D4D4D4;}
	.st328{opacity:0.8899;fill:#D4D4D4;}
	.st329{opacity:0.9807;fill:#D4D4D4;}
	.st330{opacity:0.8153;fill:#D4D4D4;}
	.st331{opacity:0.8386;fill:#D4D4D4;}
	.st332{opacity:0.217;fill:#D4D4D4;}
	.st333{opacity:0.8203;fill:#D4D4D4;}
	.st334{opacity:0.1734;fill:#D4D4D4;}
	.st335{opacity:0.8255;fill:#D4D4D4;}
	.st336{opacity:0.65;fill:#D4D4D4;}
	.st337{opacity:0.3821;fill:#D4D4D4;}
	.st338{opacity:0.4343;fill:#D4D4D4;}
	.st339{opacity:0.1946;fill:#D4D4D4;}
	.st340{opacity:0.7102;fill:#D4D4D4;}
	.st341{opacity:0.3892;fill:#D4D4D4;}
	.st342{opacity:0.9305;fill:#D4D4D4;}
	.st343{opacity:0.3604;fill:#D4D4D4;}
	.st344{opacity:0.2786;fill:#D4D4D4;}
	.st345{opacity:0.5137;fill:#D4D4D4;}
	.st346{opacity:0.9437;fill:#D4D4D4;}
	.st347{opacity:0.7884;fill:#D4D4D4;}
	.st348{opacity:0.7417;fill:#D4D4D4;}
	.st349{opacity:0.9409;fill:#D4D4D4;}
	.st350{opacity:0.6464;fill:#D4D4D4;}
	.st351{opacity:0.8929;fill:#D4D4D4;}
	.st352{opacity:0.4205;fill:#D4D4D4;}
	.st353{opacity:0.405;fill:#D4D4D4;}
	.st354{opacity:0.5188;fill:#D4D4D4;}
	.st355{opacity:0.6443;fill:#D4D4D4;}
	.st356{opacity:0.3315;fill:#D4D4D4;}
	.st357{opacity:0.6816;fill:#D4D4D4;}
	.st358{opacity:0.1144;fill:#D4D4D4;}
	.st359{opacity:0.1931;fill:#D4D4D4;}
	.st360{opacity:0.6738;fill:#D4D4D4;}
	.st361{opacity:0.9712;fill:#D4D4D4;}
	.st362{opacity:0.194;fill:#D4D4D4;}
	.st363{opacity:0.171;fill:#D4D4D4;}
	.st364{opacity:0.3921;fill:#D4D4D4;}
	.st365{opacity:0.2574;fill:#D4D4D4;}
	.st366{opacity:0.1026;fill:#D4D4D4;}
	.st367{opacity:0.2775;fill:#D4D4D4;}
	.st368{opacity:0.9092;fill:#D4D4D4;}
	.st369{opacity:0.9749;fill:#D4D4D4;}
	.st370{opacity:0.7088;fill:#D4D4D4;}
	.st371{opacity:0.5129;fill:#D4D4D4;}
	.st372{opacity:0.2784;fill:#D4D4D4;}
	.st373{opacity:0.5714;fill:#D4D4D4;}
	.st374{opacity:0.2805;fill:#D4D4D4;}
	.st375{opacity:0.8657;fill:#D4D4D4;}
	.st376{opacity:0.4499;fill:#D4D4D4;}
	.st377{opacity:0.2981;fill:#D4D4D4;}
	.st378{opacity:0.8169;fill:#D4D4D4;}
	.st379{opacity:0.2141;fill:#D4D4D4;}
	.st380{opacity:0.3996;fill:#D4D4D4;}
	.st381{opacity:0.7125;fill:#D4D4D4;}
	.st382{opacity:0.5101;fill:#D4D4D4;}
	.st383{opacity:0.1513;fill:#D4D4D4;}
	.st384{opacity:0.5159;fill:#D4D4D4;}
	.st385{opacity:0.6284;fill:#D4D4D4;}
	.st386{opacity:0.6577;fill:#D4D4D4;}
	.st387{opacity:0.9941;fill:#D4D4D4;}
	.st388{opacity:0.8938;fill:#D4D4D4;}
	.st389{opacity:0.4975;fill:#D4D4D4;}
	.st390{opacity:0.8981;fill:#D4D4D4;}
	.st391{opacity:0.1833;fill:#D4D4D4;}
	.st392{opacity:0.9292;fill:#D4D4D4;}
	.st393{opacity:0.2904;fill:#D4D4D4;}
	.st394{opacity:0.1366;fill:#D4D4D4;}
	.st395{opacity:0.8652;fill:#D4D4D4;}
	.st396{opacity:0.4255;fill:#D4D4D4;}
	.st397{opacity:0.6114;fill:#D4D4D4;}
	.st398{opacity:0.6618;fill:#D4D4D4;}
	.st399{opacity:0.9824;fill:#D4D4D4;}
	.st400{opacity:0.6881;fill:#D4D4D4;}
	.st401{opacity:0.5903;fill:#D4D4D4;}
	.st402{opacity:0.991;fill:#D4D4D4;}
	.st403{opacity:0.8838;fill:#D4D4D4;}
	.st404{opacity:0.8444;fill:#D4D4D4;}
	.st405{opacity:0.8547;fill:#D4D4D4;}
	.st406{opacity:0.9448;fill:#D4D4D4;}
	.st407{opacity:0.8694;fill:#D4D4D4;}
	.st408{opacity:0.7644;fill:#D4D4D4;}
	.st409{opacity:0.2078;fill:#D4D4D4;}
	.st410{opacity:0.1855;fill:#D4D4D4;}
	.st411{opacity:0.6473;fill:#D4D4D4;}
	.st412{opacity:0.3302;fill:#D4D4D4;}
	.st413{opacity:0.3108;fill:#D4D4D4;}
	.st414{opacity:0.3688;fill:#D4D4D4;}
	.st415{opacity:0.979;fill:#D4D4D4;}
	.st416{opacity:0.2002;fill:#D4D4D4;}
	.st417{opacity:0.2901;fill:#D4D4D4;}
	.st418{opacity:0.1539;fill:#D4D4D4;}
	.st419{opacity:0.8057;fill:#D4D4D4;}
	.st420{opacity:0.4793;fill:#D4D4D4;}
	.st421{opacity:0.4806;fill:#D4D4D4;}
	.st422{opacity:0.8508;fill:#D4D4D4;}
	.st423{opacity:0.5307;fill:#D4D4D4;}
	.st424{opacity:0.7649;fill:#D4D4D4;}
	.st425{opacity:0.1737;fill:#D4D4D4;}
	.st426{opacity:0.8487;fill:#D4D4D4;}
	.st427{opacity:0.9121;fill:#D4D4D4;}
	.st428{opacity:0.5623;fill:#D4D4D4;}
	.st429{opacity:0.1826;fill:#D4D4D4;}
	.st430{opacity:0.4932;fill:#D4D4D4;}
	.st431{opacity:0.7721;fill:#D4D4D4;}
	.st432{opacity:0.7871;fill:#D4D4D4;}
	.st433{opacity:0.1176;fill:#D4D4D4;}
	.st434{opacity:0.2551;fill:#D4D4D4;}
	.st435{opacity:0.6902;fill:#D4D4D4;}
	.st436{opacity:0.6507;fill:#D4D4D4;}
	.st437{opacity:0.8901;fill:#D4D4D4;}
	.st438{opacity:0.4644;fill:#D4D4D4;}
	.st439{opacity:0.6951;fill:#D4D4D4;}
	.st440{opacity:0.7173;fill:#D4D4D4;}
	.st441{opacity:0.2048;fill:#D4D4D4;}
	.st442{opacity:0.7458;fill:#D4D4D4;}
	.st443{opacity:0.5564;fill:#D4D4D4;}
	.st444{opacity:0.1011;fill:#D4D4D4;}
	.st445{opacity:0.7161;fill:#D4D4D4;}
	.st446{opacity:0.6447;fill:#D4D4D4;}
	.st447{opacity:0.3392;fill:#D4D4D4;}
	.st448{opacity:0.4537;fill:#D4D4D4;}
	.st449{opacity:0.1231;fill:#D4D4D4;}
	.st450{opacity:0.6435;fill:#D4D4D4;}
	.st451{opacity:0.379;fill:#D4D4D4;}
	.st452{opacity:0.8989;fill:#D4D4D4;}
	.st453{opacity:0.5187;fill:#D4D4D4;}
	.st454{opacity:0.8734;fill:#D4D4D4;}
	.st455{opacity:0.4328;fill:#D4D4D4;}
	.st456{opacity:0.3083;fill:#D4D4D4;}
	.st457{opacity:0.4473;fill:#D4D4D4;}
	.st458{opacity:0.3309;fill:#D4D4D4;}
	.st459{opacity:0.2556;fill:#D4D4D4;}
	.st460{opacity:0.3479;fill:#D4D4D4;}
	.st461{opacity:0.235;fill:#D4D4D4;}
	.st462{opacity:0.5366;fill:#D4D4D4;}
	.st463{opacity:0.5192;fill:#D4D4D4;}
	.st464{opacity:0.9569;fill:#D4D4D4;}
	.st465{opacity:0.7972;fill:#D4D4D4;}
	.st466{opacity:0.3283;fill:#D4D4D4;}
	.st467{opacity:0.2509;fill:#D4D4D4;}
	.st468{opacity:0.2072;fill:#D4D4D4;}
	.st469{opacity:0.2774;fill:#D4D4D4;}
	.st470{opacity:0.4079;fill:#D4D4D4;}
	.st471{opacity:0.2389;fill:#D4D4D4;}
	.st472{opacity:0.5452;fill:#D4D4D4;}
	.st473{opacity:0.4071;fill:#D4D4D4;}
	.st474{opacity:0.7993;fill:#D4D4D4;}
	.st475{opacity:0.2251;fill:#D4D4D4;}
	.st476{opacity:0.3904;fill:#D4D4D4;}
	.st477{opacity:0.4187;fill:#D4D4D4;}
	.st478{opacity:0.1399;fill:#D4D4D4;}
	.st479{opacity:0.7531;fill:#D4D4D4;}
	.st480{opacity:0.3818;fill:#D4D4D4;}
	.st481{opacity:0.7757;fill:#D4D4D4;}
	.st482{opacity:0.9995;fill:#D4D4D4;}
	.st483{opacity:0.3081;fill:#D4D4D4;}
	.st484{opacity:0.3936;fill:#D4D4D4;}
	.st485{opacity:0.3803;fill:#D4D4D4;}
	.st486{opacity:0.2741;fill:#D4D4D4;}
	.st487{opacity:0.4316;fill:#D4D4D4;}
	.st488{opacity:0.7933;fill:#D4D4D4;}
	.st489{opacity:0.1664;fill:#D4D4D4;}
	.st490{opacity:0.8502;fill:#D4D4D4;}
	.st491{opacity:0.4453;fill:#D4D4D4;}
	.st492{opacity:0.2622;fill:#D4D4D4;}
	.st493{opacity:0.3383;fill:#D4D4D4;}
	.st494{opacity:0.1882;fill:#D4D4D4;}
	.st495{opacity:0.7697;fill:#D4D4D4;}
	.st496{opacity:0.9521;fill:#D4D4D4;}
	.st497{opacity:0.5647;fill:#D4D4D4;}
	.st498{opacity:0.1197;fill:#D4D4D4;}
	.st499{opacity:0.9704;fill:#D4D4D4;}
	.st500{opacity:0.6991;fill:#D4D4D4;}
	.st501{opacity:0.2867;fill:#D4D4D4;}
	.st502{opacity:0.708;fill:#D4D4D4;}
	.st503{opacity:0.7175;fill:#D4D4D4;}
	.st504{opacity:0.1662;fill:#D4D4D4;}
	.st505{opacity:0.3488;fill:#D4D4D4;}
	.st506{opacity:0.8663;fill:#D4D4D4;}
	.st507{opacity:0.5917;fill:#D4D4D4;}
	.st508{opacity:0.137;fill:#D4D4D4;}
	.st509{opacity:0.414;fill:#D4D4D4;}
	.st510{opacity:0.9821;fill:#D4D4D4;}
	.st511{clip-path:url(#SVGID_3_);fill:url(#SVGID_4_);}
	.st512{clip-path:url(#SVGID_3_);fill:url(#SVGID_5_);}
	.st513{opacity:0.5;}
	.st514{fill:#FFFFFF;}
</style>
<g>
	<g>
		<defs>
			<rect id="SVGID_1_" y="0" width="2629.7" height="1711.2"/>
		</defs>
		<radialGradient id="SVGID_2_" cx="1076.7902" cy="-377.4595" r="2106.116" gradientUnits="userSpaceOnUse">
			<stop  offset="0.5613" style="stop-color:#012038"/>
			<stop  offset="0.6647" style="stop-color:#01233C"/>
			<stop  offset="0.7767" style="stop-color:#012A49"/>
			<stop  offset="0.8925" style="stop-color:#02365F"/>
			<stop  offset="1" style="stop-color:#02467A"/>
		</radialGradient>
		<use xlink:href="#SVGID_1_"  style="overflow:visible;fill:url(#SVGID_2_);"/>
		<clipPath id="SVGID_3_">
			<use xlink:href="#SVGID_1_"  style="overflow:visible;"/>
		</clipPath>
		<g class="st0">
			<path class="st1" d="M1570,411c0.7,0,1.4,0.6,1.4,1.4c0,0.7-0.6,1.4-1.4,1.4c-0.7,0-1.4-0.6-1.4-1.4
				C1568.6,411.6,1569.2,411,1570,411z"/>
			<path class="st2" d="M1603.3,398.7c0.7,0,1.3,0.6,1.3,1.3c0,0.7-0.6,1.3-1.3,1.3c-0.7,0-1.3-0.6-1.3-1.3
				C1602,399.3,1602.5,398.7,1603.3,398.7z"/>
			<path class="st3" d="M1679.2,362.6c0.9,0,1.6,0.7,1.6,1.6c0,0.9-0.7,1.6-1.6,1.6c-0.9,0-1.6-0.7-1.6-1.6
				C1677.6,363.4,1678.3,362.6,1679.2,362.6z"/>
			<path class="st4" d="M1478,412.5c0.8,0,1.4,0.6,1.4,1.4c0,0.8-0.6,1.4-1.4,1.4c-0.8,0-1.4-0.6-1.4-1.4
				C1476.7,413.1,1477.3,412.5,1478,412.5z"/>
			<path class="st5" d="M1733.9,374.7c0.9,0,1.6,0.7,1.6,1.6c0,0.9-0.7,1.6-1.6,1.6s-1.6-0.7-1.6-1.6
				C1732.3,375.4,1733,374.7,1733.9,374.7z"/>
			<path class="st6" d="M2352.6,166.7c1,0,1.8,0.8,1.8,1.8c0,1-0.8,1.8-1.8,1.8c-1,0-1.8-0.8-1.8-1.8
				C2350.8,167.6,2351.6,166.7,2352.6,166.7z"/>
			<path class="st7" d="M1256.8,356.6c0.6,0,1.1,0.5,1.1,1.1c0,0.6-0.5,1.1-1.1,1.1c-0.6,0-1.1-0.5-1.1-1.1
				C1255.7,357.1,1256.2,356.6,1256.8,356.6z"/>
			<path class="st8" d="M1307.1,578.8c0.7,0,1.3,0.6,1.3,1.3c0,0.7-0.6,1.3-1.3,1.3c-0.7,0-1.3-0.6-1.3-1.3
				C1305.8,579.4,1306.3,578.8,1307.1,578.8z"/>
			<path class="st9" d="M1612.8,454.4c0.8,0,1.5,0.7,1.5,1.5c0,0.8-0.7,1.5-1.5,1.5c-0.8,0-1.5-0.7-1.5-1.5
				C1611.3,455.1,1612,454.4,1612.8,454.4z"/>
			<path class="st10" d="M1764.8,252.8c0.9,0,1.6,0.7,1.6,1.6c0,0.9-0.7,1.6-1.6,1.6c-0.9,0-1.6-0.7-1.6-1.6
				C1763.2,253.5,1764,252.8,1764.8,252.8z"/>
			<path class="st11" d="M1405,461.5c0.8,0,1.4,0.6,1.4,1.4s-0.6,1.4-1.4,1.4c-0.8,0-1.4-0.6-1.4-1.4S1404.2,461.5,1405,461.5z"/>
			<path class="st12" d="M1320.1,661.2c0.8,0,1.4,0.6,1.4,1.4c0,0.8-0.6,1.4-1.4,1.4c-0.8,0-1.4-0.6-1.4-1.4
				C1318.7,661.8,1319.3,661.2,1320.1,661.2z"/>
			<path class="st13" d="M1480.8,531.1c0.8,0,1.4,0.6,1.4,1.4c0,0.8-0.6,1.4-1.4,1.4s-1.4-0.6-1.4-1.4
				C1479.3,531.7,1480,531.1,1480.8,531.1z"/>
			<path class="st14" d="M1780.4,425.6c0.8,0,1.4,0.6,1.4,1.4c0,0.8-0.6,1.4-1.4,1.4c-0.8,0-1.4-0.6-1.4-1.4
				C1779,426.2,1779.6,425.6,1780.4,425.6z"/>
			<path class="st15" d="M2036.1,387.7c0.8,0,1.4,0.6,1.4,1.4c0,0.8-0.6,1.4-1.4,1.4s-1.4-0.6-1.4-1.4
				C2034.7,388.4,2035.3,387.7,2036.1,387.7z"/>
			<path class="st16" d="M1258.4,614c0.7,0,1.4,0.6,1.4,1.4c0,0.7-0.6,1.4-1.4,1.4c-0.7,0-1.4-0.6-1.4-1.4
				C1257.1,614.6,1257.7,614,1258.4,614z"/>
			<path class="st17" d="M1236.9,1632.3c0.9,0,1.5,0.7,1.5,1.5c0,0.9-0.7,1.5-1.5,1.5c-0.9,0-1.5-0.7-1.5-1.5
				C1235.4,1633,1236.1,1632.3,1236.9,1632.3z"/>
			<path class="st18" d="M1438.2,537.8c0.7,0,1.4,0.6,1.4,1.4c0,0.7-0.6,1.4-1.4,1.4c-0.7,0-1.4-0.6-1.4-1.4
				C1436.9,538.4,1437.5,537.8,1438.2,537.8z"/>
			<circle class="st19" cx="2198.2" cy="106.5" r="1.9"/>
			<circle class="st20" cx="1991.2" cy="-163.8" r="2"/>
			<path class="st21" d="M1437.8,388.2c0.8,0,1.4,0.6,1.4,1.4s-0.6,1.4-1.4,1.4c-0.8,0-1.4-0.6-1.4-1.4S1437,388.2,1437.8,388.2z"/>
			<path class="st22" d="M1252.6,680.9c0.8,0,1.4,0.6,1.4,1.4c0,0.8-0.6,1.4-1.4,1.4c-0.8,0-1.4-0.6-1.4-1.4
				C1251.2,681.5,1251.9,680.9,1252.6,680.9z"/>
			<path class="st23" d="M1312.3,1771.1c0.9,0,1.7,0.8,1.7,1.7c0,0.9-0.8,1.7-1.7,1.7c-0.9,0-1.7-0.8-1.7-1.7
				C1310.6,1771.9,1311.3,1771.1,1312.3,1771.1z"/>
			<path class="st24" d="M1138.2,1198.3c0.7,0,1.3,0.6,1.3,1.3c0,0.7-0.6,1.3-1.3,1.3s-1.3-0.6-1.3-1.3
				C1136.9,1198.9,1137.5,1198.3,1138.2,1198.3z"/>
			<path class="st25" d="M1731.8,446c0.8,0,1.5,0.7,1.5,1.5c0,0.8-0.7,1.5-1.5,1.5c-0.8,0-1.5-0.7-1.5-1.5
				C1730.3,446.7,1730.9,446,1731.8,446z"/>
			<path class="st26" d="M1820.2-54.5c1.1,0,1.9,0.9,1.9,1.9c0,1.1-0.9,1.9-1.9,1.9c-1.1,0-1.9-0.9-1.9-1.9
				C1818.2-53.6,1819.1-54.5,1820.2-54.5z"/>
			<path class="st27" d="M1688.7,125.3c0.9,0,1.7,0.8,1.7,1.7c0,0.9-0.8,1.7-1.7,1.7c-0.9,0-1.7-0.8-1.7-1.7
				C1687,126,1687.8,125.3,1688.7,125.3z"/>
			<path class="st28" d="M1951.8,329.8c0.7,0,1.4,0.6,1.4,1.4c0,0.7-0.6,1.4-1.4,1.4c-0.7,0-1.4-0.6-1.4-1.4
				C1950.4,330.4,1951,329.8,1951.8,329.8z"/>
			<path class="st29" d="M1114.4,1435c0.8,0,1.4,0.6,1.4,1.4c0,0.8-0.6,1.4-1.4,1.4s-1.4-0.6-1.4-1.4
				C1113,1435.7,1113.6,1435,1114.4,1435z"/>
			<path class="st30" d="M1259,1098.5c0.8,0,1.5,0.7,1.5,1.5c0,0.8-0.7,1.5-1.5,1.5c-0.8,0-1.5-0.7-1.5-1.5
				C1257.5,1099.1,1258.2,1098.5,1259,1098.5z"/>
			<path class="st31" d="M1373,384.8c0.6,0,1.2,0.5,1.2,1.2c0,0.6-0.5,1.2-1.2,1.2s-1.2-0.5-1.2-1.2
				C1371.8,385.3,1372.3,384.8,1373,384.8z"/>
			<path class="st32" d="M1968.5-28.2c1.1,0,2,0.9,2,2c0,1.1-0.9,2-2,2c-1.1,0-2-0.9-2-2C1966.5-27.3,1967.4-28.2,1968.5-28.2z"/>
			<path class="st33" d="M1203.5,666.7c0.8,0,1.4,0.6,1.4,1.4c0,0.8-0.6,1.4-1.4,1.4c-0.8,0-1.4-0.6-1.4-1.4
				C1202.1,667.3,1202.8,666.7,1203.5,666.7z"/>
			<circle class="st34" cx="1447.8" cy="1915.8" r="2.1"/>
			<path class="st35" d="M1280.5,1158.9c0.9,0,1.7,0.8,1.7,1.7c0,0.9-0.8,1.7-1.7,1.7c-0.9,0-1.7-0.8-1.7-1.7
				C1278.8,1159.6,1279.6,1158.9,1280.5,1158.9z"/>
			<path class="st36" d="M1299.7,1123.8c0.9,0,1.6,0.7,1.6,1.6c0,0.9-0.7,1.6-1.6,1.6c-0.9,0-1.6-0.7-1.6-1.6
				C1298.1,1124.5,1298.8,1123.8,1299.7,1123.8z"/>
			<path class="st37" d="M1499.7,568.2c0.8,0,1.4,0.6,1.4,1.4c0,0.8-0.6,1.4-1.4,1.4s-1.4-0.6-1.4-1.4
				C1498.3,568.8,1498.9,568.2,1499.7,568.2z"/>
			<path class="st38" d="M2196.2,384.9c0.9,0,1.7,0.8,1.7,1.7c0,0.9-0.8,1.7-1.7,1.7c-0.9,0-1.7-0.8-1.7-1.7
				C2194.5,385.6,2195.3,384.9,2196.2,384.9z"/>
			<circle class="st39" cx="2455.2" cy="-7" r="1.9"/>
			<path class="st40" d="M1346.3,417.7c0.8,0,1.4,0.6,1.4,1.4c0,0.8-0.6,1.4-1.4,1.4c-0.8,0-1.4-0.6-1.4-1.4
				C1344.9,418.3,1345.5,417.7,1346.3,417.7z"/>
			<path class="st41" d="M1098.9,822.6c0.7,0,1.3,0.6,1.3,1.3c0,0.7-0.6,1.3-1.3,1.3c-0.7,0-1.3-0.6-1.3-1.3
				C1097.6,823.1,1098.2,822.6,1098.9,822.6z"/>
			<path class="st42" d="M1499.7,1700.9c1.2,0,2.2,1,2.2,2.2c0,1.2-1,2.2-2.2,2.2s-2.2-1-2.2-2.2
				C1497.5,1701.9,1498.5,1700.9,1499.7,1700.9z"/>
			<circle class="st43" cx="1356.7" cy="1013.1" r="1.7"/>
			<path class="st44" d="M1428,713.5c0.8,0,1.5,0.7,1.5,1.5c0,0.8-0.7,1.5-1.5,1.5c-0.8,0-1.5-0.7-1.5-1.5
				C1426.5,714.1,1427.2,713.5,1428,713.5z"/>
			<path class="st45" d="M2403.5,176.2c1.1,0,2,0.9,2,2c0,1.1-0.9,2-2,2c-1.1,0-2-0.9-2-2C2401.6,177,2402.5,176.2,2403.5,176.2z"/>
			<path class="st46" d="M1355.1-260.4c1.1,0,2,0.9,2,2c0,1.1-0.9,2-2,2c-1.1,0-2-0.9-2-2C1353.1-259.6,1354-260.4,1355.1-260.4z"/>
			<path class="st47" d="M2014.6,11c1,0,1.8,0.8,1.8,1.8s-0.8,1.8-1.8,1.8c-1,0-1.8-0.8-1.8-1.8S2013.7,11,2014.6,11z"/>
			<path class="st48" d="M1338,393.9c0.8,0,1.4,0.6,1.4,1.4c0,0.8-0.6,1.4-1.4,1.4c-0.8,0-1.4-0.6-1.4-1.4
				C1336.6,394.5,1337.2,393.9,1338,393.9z"/>
			<path class="st49" d="M1126.5,665.3c0.7,0,1.3,0.6,1.3,1.3c0,0.7-0.6,1.3-1.3,1.3c-0.7,0-1.3-0.6-1.3-1.3
				C1125.2,665.9,1125.8,665.3,1126.5,665.3z"/>
			<path class="st50" d="M1739.9,1913.9c1.4,0,2.5,1.1,2.5,2.5c0,1.4-1.1,2.5-2.5,2.5c-1.4,0-2.5-1.1-2.5-2.5
				C1737.4,1915,1738.5,1913.9,1739.9,1913.9z"/>
			<circle class="st51" cx="1481" cy="1735.5" r="1.8"/>
			<path class="st52" d="M1851.4,435.5c0.9,0,1.6,0.7,1.6,1.6c0,0.9-0.7,1.6-1.6,1.6c-0.9,0-1.6-0.7-1.6-1.6
				C1849.7,436.2,1850.5,435.5,1851.4,435.5z"/>
			<path class="st53" d="M1604.8,230.2c0.7,0,1.4,0.6,1.4,1.4c0,0.7-0.6,1.4-1.4,1.4c-0.7,0-1.4-0.6-1.4-1.4
				C1603.5,230.8,1604.1,230.2,1604.8,230.2z"/>
			<path class="st54" d="M1013.5,1171c0.7,0,1.3,0.6,1.3,1.3c0,0.7-0.6,1.3-1.3,1.3s-1.3-0.6-1.3-1.3
				C1012.2,1171.5,1012.8,1171,1013.5,1171z"/>
			<path class="st55" d="M1509.1,1750.5c1.4,0,2.5,1.1,2.5,2.5c0,1.4-1.1,2.5-2.5,2.5c-1.4,0-2.5-1.1-2.5-2.5
				C1506.5,1751.7,1507.7,1750.5,1509.1,1750.5z"/>
			<path class="st56" d="M1606.3,599.9c0.9,0,1.6,0.7,1.6,1.6c0,0.9-0.7,1.6-1.6,1.6s-1.6-0.7-1.6-1.6
				C1604.7,600.6,1605.4,599.9,1606.3,599.9z"/>
			<path class="st57" d="M1814,522.4c0.9,0,1.5,0.7,1.5,1.5c0,0.9-0.7,1.5-1.5,1.5c-0.9,0-1.5-0.7-1.5-1.5
				C1812.4,523.1,1813.1,522.4,1814,522.4z"/>
			<path class="st58" d="M1588.2,213c0.8,0,1.5,0.7,1.5,1.5c0,0.8-0.7,1.5-1.5,1.5c-0.8,0-1.5-0.7-1.5-1.5
				C1586.7,213.6,1587.4,213,1588.2,213z"/>
			<path class="st59" d="M1142.8,698.1c0.8,0,1.4,0.6,1.4,1.4s-0.6,1.4-1.4,1.4c-0.8,0-1.4-0.6-1.4-1.4S1142,698.1,1142.8,698.1z"/>
			<path class="st60" d="M1189.1,1057.7c0.9,0,1.7,0.7,1.7,1.7c0,0.9-0.7,1.7-1.7,1.7c-0.9,0-1.7-0.7-1.7-1.7
				C1187.5,1058.5,1188.2,1057.7,1189.1,1057.7z"/>
			<path class="st61" d="M1548.3,1638.4c1.4,0,2.6,1.2,2.6,2.6c0,1.4-1.2,2.6-2.6,2.6s-2.6-1.2-2.6-2.6
				C1545.7,1639.6,1546.9,1638.4,1548.3,1638.4z"/>
			<path class="st62" d="M1446.9,1065.3c1,0,1.8,0.8,1.8,1.8c0,1-0.8,1.8-1.8,1.8c-1,0-1.8-0.8-1.8-1.8
				C1445.1,1066.1,1445.9,1065.3,1446.9,1065.3z"/>
			<path class="st63" d="M1336.1,1286.9c0.9,0,1.6,0.7,1.6,1.6c0,0.9-0.7,1.6-1.6,1.6c-0.9,0-1.6-0.7-1.6-1.6
				C1334.5,1287.6,1335.2,1286.9,1336.1,1286.9z"/>
			<path class="st64" d="M1379,736.1c0.7,0,1.3,0.6,1.3,1.3s-0.6,1.3-1.3,1.3c-0.7,0-1.3-0.6-1.3-1.3S1378.3,736.1,1379,736.1z"/>
			<path class="st65" d="M2446.2,247.4c1.1,0,2,0.9,2,2c0,1.1-0.9,2-2,2c-1.1,0-2-0.9-2-2C2444.3,248.2,2445.2,247.4,2446.2,247.4z"
				/>
			<path class="st66" d="M137-168c1.1,0,1.9,0.9,1.9,1.9c0,1.1-0.9,1.9-1.9,1.9c-1.1,0-1.9-0.9-1.9-1.9C135.1-167.2,136-168,137-168
				z"/>
			<circle class="st67" cx="1540.2" cy="-135.1" r="1.8"/>
			<path class="st68" d="M1317.5,356.3c0.8,0,1.4,0.6,1.4,1.4s-0.6,1.4-1.4,1.4c-0.8,0-1.4-0.6-1.4-1.4S1316.8,356.3,1317.5,356.3z"
				/>
			<path class="st69" d="M1422.2,1861.4c1.3,0,2.4,1.1,2.4,2.4s-1.1,2.4-2.4,2.4c-1.3,0-2.4-1.1-2.4-2.4
				S1420.9,1861.4,1422.2,1861.4z"/>
			<path class="st70" d="M1844.4,1880c2.1,0,3.7,1.7,3.7,3.7c0,2.1-1.7,3.7-3.7,3.7c-2.1,0-3.7-1.7-3.7-3.7
				C1840.7,1881.7,1842.3,1880,1844.4,1880z"/>
			<path class="st71" d="M2382,1964.9c2.9,0,5.2,2.3,5.2,5.2c0,2.9-2.3,5.2-5.2,5.2c-2.9,0-5.2-2.3-5.2-5.2
				C2376.8,1967.3,2379.2,1964.9,2382,1964.9z"/>
			<path class="st72" d="M1574,1346.4c1.2,0,2.2,1,2.2,2.2c0,1.2-1,2.2-2.2,2.2s-2.2-1-2.2-2.2
				C1571.8,1347.4,1572.8,1346.4,1574,1346.4z"/>
			<circle class="st73" cx="1438.5" cy="1381" r="1.7"/>
			<path class="st74" d="M2026,396.7c1,0,1.8,0.8,1.8,1.8c0,1-0.8,1.8-1.8,1.8s-1.8-0.8-1.8-1.8
				C2024.3,397.5,2025.1,396.7,2026,396.7z"/>
			<path class="st75" d="M660.8-227.5c1.1,0,2,0.9,2,2c0,1.1-0.9,2-2,2c-1.1,0-2-0.9-2-2C658.8-226.6,659.7-227.5,660.8-227.5z"/>
			<path class="st76" d="M2082.1,173.3c0.9,0,1.6,0.7,1.6,1.6s-0.7,1.6-1.6,1.6c-0.9,0-1.6-0.7-1.6-1.6S2081.2,173.3,2082.1,173.3z"
				/>
			<path class="st77" d="M1417.4,269c0.8,0,1.4,0.6,1.4,1.4c0,0.8-0.6,1.4-1.4,1.4c-0.8,0-1.4-0.6-1.4-1.4
				C1416.1,269.6,1416.7,269,1417.4,269z"/>
			<path class="st78" d="M1141.3,1103.7c0.9,0,1.7,0.8,1.7,1.7c0,0.9-0.8,1.7-1.7,1.7s-1.7-0.8-1.7-1.7
				C1139.6,1104.4,1140.4,1103.7,1141.3,1103.7z"/>
			<path class="st79" d="M1470.5,1757.5c1.5,0,2.8,1.2,2.8,2.8c0,1.5-1.2,2.8-2.8,2.8s-2.8-1.2-2.8-2.8
				C1467.7,1758.7,1468.9,1757.5,1470.5,1757.5z"/>
			<path class="st80" d="M2541,1330.7c4.5,0,8.1,3.6,8.1,8.1c0,4.5-3.6,8.1-8.1,8.1c-4.5,0-8.1-3.6-8.1-8.1
				C2532.9,1334.3,2536.5,1330.7,2541,1330.7z"/>
			<circle class="st81" cx="1541.1" cy="1177.9" r="2"/>
			<path class="st82" d="M1577,1533.4c1.1,0,2,0.9,2,2c0,1.1-0.9,2-2,2c-1.1,0-2-0.9-2-2C1575,1534.3,1575.9,1533.4,1577,1533.4z"/>
			<path class="st83" d="M1705.4,592.9c0.8,0,1.4,0.6,1.4,1.4s-0.6,1.4-1.4,1.4s-1.4-0.6-1.4-1.4S1704.6,592.9,1705.4,592.9z"/>
			<path class="st84" d="M262,2.8c1.1,0,1.9,0.9,1.9,1.9c0,1.1-0.9,1.9-1.9,1.9c-1.1,0-1.9-0.9-1.9-1.9C260,3.6,260.9,2.8,262,2.8z"
				/>
			<path class="st85" d="M26.8,270.8c1,0,1.8,0.8,1.8,1.8c0,1-0.8,1.8-1.8,1.8c-1,0-1.8-0.8-1.8-1.8C25,271.7,25.8,270.8,26.8,270.8
				z"/>
			<path class="st86" d="M116-2.7c0.9,0,1.7,0.7,1.7,1.7c0,0.9-0.7,1.7-1.7,1.7c-0.9,0-1.7-0.7-1.7-1.7C114.4-2,115.1-2.7,116-2.7z"
				/>
			<path class="st87" d="M1664.5-150.9c1,0,1.8,0.8,1.8,1.8c0,1-0.8,1.8-1.8,1.8c-1,0-1.8-0.8-1.8-1.8
				C1662.7-150.1,1663.5-150.9,1664.5-150.9z"/>
			<path class="st88" d="M1190.7,430.8c0.7,0,1.3,0.6,1.3,1.3c0,0.7-0.6,1.3-1.3,1.3s-1.3-0.6-1.3-1.3
				C1189.4,431.4,1190,430.8,1190.7,430.8z"/>
			<path class="st89" d="M1085.1,1030.8c0.9,0,1.5,0.7,1.5,1.5s-0.7,1.5-1.5,1.5c-0.9,0-1.5-0.7-1.5-1.5
				S1084.3,1030.8,1085.1,1030.8z"/>
			<path class="st90" d="M1748.1,1853.4c2.2,0,4,1.8,4,4c0,2.2-1.8,4-4,4c-2.2,0-4-1.8-4-4C1744,1855.2,1745.8,1853.4,1748.1,1853.4
				z"/>
			<path class="st91" d="M1527.2,1496.1c1.7,0,3,1.3,3,3c0,1.7-1.3,3-3,3c-1.7,0-3-1.3-3-3
				C1524.2,1497.5,1525.5,1496.1,1527.2,1496.1z"/>
			<path class="st92" d="M1783.2,1436c1.7,0,3.1,1.4,3.1,3.1s-1.4,3.1-3.1,3.1c-1.7,0-3.1-1.4-3.1-3.1S1781.5,1436,1783.2,1436z"/>
			<path class="st93" d="M1344,1309.6c0.8,0,1.5,0.7,1.5,1.5c0,0.8-0.7,1.5-1.5,1.5c-0.8,0-1.5-0.7-1.5-1.5
				C1342.5,1310.3,1343.1,1309.6,1344,1309.6z"/>
			<path class="st94" d="M2039,81.7c1.1,0,2.1,0.9,2.1,2.1c0,1.1-0.9,2.1-2.1,2.1c-1.1,0-2.1-0.9-2.1-2.1
				C2037,82.6,2037.9,81.7,2039,81.7z"/>
			<path class="st95" d="M482.9-196.5c1.1,0,2.1,0.9,2.1,2.1c0,1.1-0.9,2.1-2.1,2.1c-1.1,0-2.1-0.9-2.1-2.1
				C480.8-195.6,481.7-196.5,482.9-196.5z"/>
			<path class="st96" d="M566-104.7c1.1,0,2,0.9,2,2c0,1.1-0.9,2-2,2c-1.1,0-2-0.9-2-2C564-103.8,564.9-104.7,566-104.7z"/>
			<path class="st97" d="M96.7,253c1,0,1.8,0.8,1.8,1.8c0,1-0.8,1.8-1.8,1.8c-1,0-1.8-0.8-1.8-1.8C94.9,253.8,95.7,253,96.7,253z"/>
			<path class="st98" d="M1255.7,358.3c0.7,0,1.3,0.6,1.3,1.3c0,0.7-0.6,1.3-1.3,1.3s-1.3-0.6-1.3-1.3
				C1254.4,358.9,1255,358.3,1255.7,358.3z"/>
			<path class="st99" d="M1146.4,1549.8c1,0,1.8,0.8,1.8,1.8c0,1-0.8,1.8-1.8,1.8c-1,0-1.8-0.8-1.8-1.8
				C1144.6,1550.6,1145.4,1549.8,1146.4,1549.8z"/>
			<path class="st100" d="M799.8,79c4.2,0,7.6,3.4,7.6,7.6c0,4.2-3.4,7.6-7.6,7.6c-4.2,0-7.6-3.4-7.6-7.6
				C792.2,82.4,795.6,79,799.8,79z"/>
			<path class="st101" d="M3010.3,718.8c5,0,9,4,9,9c0,5-4,9-9,9s-9-4-9-9C3001.3,722.8,3005.3,718.8,3010.3,718.8z"/>
			<path class="st102" d="M1518.7,846.4c0.9,0,1.6,0.7,1.6,1.6c0,0.9-0.7,1.6-1.6,1.6c-0.9,0-1.6-0.7-1.6-1.6
				C1517.1,847.1,1517.8,846.4,1518.7,846.4z"/>
			<path class="st103" d="M1910.9,514.2c1,0,1.7,0.8,1.7,1.7c0,1-0.8,1.7-1.7,1.7c-1,0-1.7-0.8-1.7-1.7
				C1909.1,514.9,1909.9,514.2,1910.9,514.2z"/>
			<path class="st104" d="M2325.2-158.5c1.3,0,2.3,1,2.3,2.3c0,1.3-1,2.3-2.3,2.3c-1.3,0-2.3-1-2.3-2.3
				C2322.9-157.5,2324-158.5,2325.2-158.5z"/>
			<path class="st105" d="M252,120.3c1.1,0,1.9,0.9,1.9,1.9c0,1.1-0.9,1.9-1.9,1.9s-1.9-0.9-1.9-1.9
				C250.1,121.2,250.9,120.3,252,120.3z"/>
			<circle class="st106" cx="637.8" cy="-69" r="1.8"/>
			<path class="st107" d="M1913.7-4.4c0.9,0,1.7,0.7,1.7,1.7c0,0.9-0.7,1.7-1.7,1.7c-0.9,0-1.7-0.7-1.7-1.7
				C1912-3.6,1912.8-4.4,1913.7-4.4z"/>
			<path class="st108" d="M1191.1,386.6c0.7,0,1.3,0.6,1.3,1.3s-0.6,1.3-1.3,1.3c-0.7,0-1.3-0.6-1.3-1.3S1190.3,386.6,1191.1,386.6z
				"/>
			<path class="st109" d="M1018.3,770.1c0.7,0,1.3,0.6,1.3,1.3c0,0.7-0.6,1.3-1.3,1.3s-1.3-0.6-1.3-1.3
				C1016.9,770.7,1017.5,770.1,1018.3,770.1z"/>
			<path class="st110" d="M1773.7,1352.3c2.8,0,5.1,2.3,5.1,5.1c0,2.8-2.3,5.1-5.1,5.1s-5.1-2.3-5.1-5.1
				C1768.6,1354.6,1770.9,1352.3,1773.7,1352.3z"/>
			<path class="st111" d="M2923.3,263.6c5,0,9,4,9,9c0,5-4,9-9,9c-5,0-9-4-9-9C2914.3,267.6,2918.4,263.6,2923.3,263.6z"/>
			<path class="st112" d="M1426.4,1094c0.9,0,1.6,0.7,1.6,1.6c0,0.9-0.7,1.6-1.6,1.6c-0.9,0-1.6-0.7-1.6-1.6
				C1424.8,1094.7,1425.5,1094,1426.4,1094z"/>
			<circle class="st113" cx="1438.6" cy="538.2" r="1.2"/>
			<path class="st114" d="M1910.8,76.1c1.2,0,2.1,0.9,2.1,2.1c0,1.2-0.9,2.1-2.1,2.1c-1.2,0-2.1-0.9-2.1-2.1
				C1908.7,77,1909.7,76.1,1910.8,76.1z"/>
			<path class="st115" d="M-7.4-15.5c1.1,0,2.1,0.9,2.1,2.1c0,1.1-0.9,2.1-2.1,2.1c-1.1,0-2.1-0.9-2.1-2.1
				C-9.5-14.6-8.5-15.5-7.4-15.5z"/>
			<path class="st116" d="M-99.6,500.6c1.1,0,2.1,0.9,2.1,2.1s-0.9,2.1-2.1,2.1s-2.1-0.9-2.1-2.1S-100.7,500.6-99.6,500.6z"/>
			<path class="st117" d="M680.4-43.6c1,0,1.8,0.8,1.8,1.8c0,1-0.8,1.8-1.8,1.8c-1,0-1.8-0.8-1.8-1.8
				C678.5-42.8,679.4-43.6,680.4-43.6z"/>
			<path class="st118" d="M1477,31.6c0.9,0,1.6,0.7,1.6,1.6c0,0.9-0.7,1.6-1.6,1.6s-1.6-0.7-1.6-1.6
				C1475.4,32.4,1476.1,31.6,1477,31.6z"/>
			<path class="st119" d="M1947.2-3.7c0.9,0,1.7,0.7,1.7,1.7c0,0.9-0.7,1.7-1.7,1.7c-0.9,0-1.7-0.7-1.7-1.7
				C1945.5-2.9,1946.3-3.7,1947.2-3.7z"/>
			<path class="st120" d="M1147.6,1732.5c1,0,1.9,0.8,1.9,1.9c0,1-0.8,1.9-1.9,1.9c-1,0-1.9-0.8-1.9-1.9
				C1145.8,1733.3,1146.6,1732.5,1147.6,1732.5z"/>
			<path class="st121" d="M1213.9,1219.9c1.1,0,2,0.9,2,2c0,1.1-0.9,2-2,2c-1.1,0-2-0.9-2-2
				C1211.8,1220.9,1212.7,1219.9,1213.9,1219.9z"/>
			<path class="st122" d="M1652.9,1359.2c1.9,0,3.5,1.6,3.5,3.5c0,1.9-1.6,3.5-3.5,3.5c-1.9,0-3.5-1.6-3.5-3.5
				C1649.4,1360.8,1650.9,1359.2,1652.9,1359.2z"/>
			<path class="st123" d="M1695.3,1262c1.4,0,2.5,1.1,2.5,2.5s-1.1,2.5-2.5,2.5c-1.4,0-2.5-1.1-2.5-2.5S1693.9,1262,1695.3,1262z"/>
			<path class="st124" d="M1721.5,1594.1c1.2,0,2.1,1,2.1,2.1s-1,2.1-2.1,2.1c-1.2,0-2.1-1-2.1-2.1S1720.3,1594.1,1721.5,1594.1z"/>
			<path class="st125" d="M1353.1,1086.6c0.8,0,1.4,0.6,1.4,1.4c0,0.8-0.6,1.4-1.4,1.4s-1.4-0.6-1.4-1.4
				C1351.7,1087.2,1352.3,1086.6,1353.1,1086.6z"/>
			<path class="st126" d="M1937.5,542.2c1,0,1.7,0.8,1.7,1.7c0,1-0.8,1.7-1.7,1.7c-1,0-1.7-0.8-1.7-1.7
				C1935.8,542.9,1936.6,542.2,1937.5,542.2z"/>
			<path class="st127" d="M1993.8-33c1.2,0,2.2,1,2.2,2.2c0,1.2-1,2.2-2.2,2.2c-1.2,0-2.2-1-2.2-2.2
				C1991.6-32.1,1992.5-33,1993.8-33z"/>
			<path class="st128" d="M405.8-143.8c1.2,0,2.1,0.9,2.1,2.1c0,1.2-0.9,2.1-2.1,2.1c-1.2,0-2.1-0.9-2.1-2.1
				C403.7-142.9,404.6-143.8,405.8-143.8z"/>
			<path class="st129" d="M363.6,151.7c1,0,1.9,0.8,1.9,1.9c0,1-0.8,1.9-1.9,1.9s-1.9-0.8-1.9-1.9
				C361.7,152.5,362.6,151.7,363.6,151.7z"/>
			<path class="st130" d="M1873.1-194.8c1,0,1.8,0.8,1.8,1.8c0,1-0.8,1.8-1.8,1.8s-1.8-0.8-1.8-1.8
				C1871.3-194.1,1872.1-194.8,1873.1-194.8z"/>
			<path class="st131" d="M1153.6,503.2c0.8,0,1.4,0.6,1.4,1.4s-0.6,1.4-1.4,1.4c-0.8,0-1.4-0.6-1.4-1.4S1152.8,503.2,1153.6,503.2z
				"/>
			<path class="st132" d="M1099.2,1732.9c1,0,1.8,0.8,1.8,1.8s-0.8,1.8-1.8,1.8c-1,0-1.8-0.8-1.8-1.8S1098.3,1732.9,1099.2,1732.9z"
				/>
			<path class="st133" d="M1545,946.9c3.5,0,6.3,2.8,6.3,6.3c0,3.5-2.8,6.3-6.3,6.3c-3.5,0-6.3-2.8-6.3-6.3
				C1538.7,949.8,1541.5,946.9,1545,946.9z"/>
			<path class="st134" d="M1959.9,1198.2c2.3,0,4.2,1.9,4.2,4.2c0,2.3-1.9,4.2-4.2,4.2c-2.3,0-4.2-1.9-4.2-4.2
				C1955.7,1200.1,1957.6,1198.2,1959.9,1198.2z"/>
			<circle class="st135" cx="1765.1" cy="1273.1" r="3"/>
			<path class="st136" d="M1617.8,718.2c0.8,0,1.5,0.7,1.5,1.5c0,0.8-0.7,1.5-1.5,1.5c-0.8,0-1.5-0.7-1.5-1.5
				C1616.4,718.9,1617,718.2,1617.8,718.2z"/>
			<path class="st137" d="M1712,618.4c0.7,0,1.3,0.6,1.3,1.3c0,0.7-0.6,1.3-1.3,1.3s-1.3-0.6-1.3-1.3
				C1710.7,619,1711.3,618.4,1712,618.4z"/>
			<path class="st138" d="M2317-76.1c1.3,0,2.3,1,2.3,2.3c0,1.3-1,2.3-2.3,2.3c-1.3,0-2.3-1-2.3-2.3
				C2314.7-75.1,2315.8-76.1,2317-76.1z"/>
			<path class="st139" d="M-77.6,413.6c1.2,0,2.1,0.9,2.1,2.1c0,1.2-0.9,2.1-2.1,2.1s-2.1-0.9-2.1-2.1
				C-79.8,414.5-78.8,413.6-77.6,413.6z"/>
			<path class="st140" d="M351.4,191.3c1.1,0,1.9,0.9,1.9,1.9c0,1.1-0.9,1.9-1.9,1.9c-1.1,0-1.9-0.9-1.9-1.9
				C349.5,192.1,350.3,191.3,351.4,191.3z"/>
			<circle class="st141" cx="1294.4" cy="-143.4" r="1.7"/>
			<path class="st142" d="M1176.8,389.5c0.7,0,1.3,0.6,1.3,1.3c0,0.7-0.6,1.3-1.3,1.3s-1.3-0.6-1.3-1.3
				C1175.4,390.1,1176,389.5,1176.8,389.5z"/>
			<path class="st143" d="M992,805c0.7,0,1.3,0.6,1.3,1.3c0,0.7-0.6,1.3-1.3,1.3c-0.7,0-1.3-0.6-1.3-1.3
				C990.7,805.6,991.3,805,992,805z"/>
			<path class="st144" d="M1276.4,1835.7c1.3,0,2.4,1.1,2.4,2.4c0,1.3-1.1,2.4-2.4,2.4s-2.4-1.1-2.4-2.4
				C1274,1836.8,1275.1,1835.7,1276.4,1835.7z"/>
			<path class="st145" d="M1531,1832.8c2.5,0,4.4,2,4.4,4.4c0,2.5-2,4.4-4.4,4.4c-2.5,0-4.4-2-4.4-4.4
				C1526.5,1834.8,1528.5,1832.8,1531,1832.8z"/>
			<path class="st146" d="M1670.9,1019c2.7,0,5,2.2,5,5c0,2.7-2.2,5-5,5s-5-2.2-5-5C1665.9,1021.2,1668.2,1019,1670.9,1019z"/>
			<path class="st147" d="M2157.5,1305.4c2.1,0,3.9,1.7,3.9,3.9c0,2.1-1.7,3.9-3.9,3.9c-2.1,0-3.9-1.7-3.9-3.9
				C2153.7,1307.1,2155.4,1305.4,2157.5,1305.4z"/>
			<circle class="st148" cx="2035.2" cy="1739.9" r="2.7"/>
			<path class="st149" d="M1298.9,1118.9c0.7,0,1.4,0.6,1.4,1.4c0,0.7-0.6,1.4-1.4,1.4c-0.7,0-1.4-0.6-1.4-1.4
				C1297.5,1119.5,1298.1,1118.9,1298.9,1118.9z"/>
			<path class="st150" d="M2334.4,106.4c1.2,0,2.2,1,2.2,2.2c0,1.2-1,2.2-2.2,2.2c-1.2,0-2.2-1-2.2-2.2
				C2332.3,107.4,2333.2,106.4,2334.4,106.4z"/>
			<path class="st151" d="M-83.1,629.6c1.2,0,2.1,0.9,2.1,2.1c0,1.2-0.9,2.1-2.1,2.1c-1.2,0-2.1-0.9-2.1-2.1
				C-85.2,630.5-84.3,629.6-83.1,629.6z"/>
			<circle class="st152" cx="338.7" cy="140.4" r="1.7"/>
			<path class="st153" d="M1552.9,106.9c0.8,0,1.4,0.6,1.4,1.4c0,0.8-0.6,1.4-1.4,1.4c-0.8,0-1.4-0.6-1.4-1.4
				C1551.4,107.5,1552.1,106.9,1552.9,106.9z"/>
			<path class="st154" d="M989.4,775.7c0.7,0,1.3,0.6,1.3,1.3c0,0.7-0.6,1.3-1.3,1.3s-1.3-0.6-1.3-1.3
				C988.1,776.3,988.7,775.7,989.4,775.7z"/>
			<path class="st155" d="M1133.9,1357.5c1.1,0,2,0.9,2,2c0,1.1-0.9,2-2,2c-1.1,0-2-0.9-2-2
				C1131.9,1358.4,1132.8,1357.5,1133.9,1357.5z"/>
			<path class="st156" d="M1412.3,1558.5c1.8,0,3.3,1.5,3.3,3.3c0,1.8-1.5,3.3-3.3,3.3s-3.3-1.5-3.3-3.3
				C1409,1560,1410.4,1558.5,1412.3,1558.5z"/>
			<path class="st157" d="M1673.2,898.8c2.8,0,5,2.3,5,5c0,2.8-2.3,5-5,5c-2.8,0-5-2.3-5-5C1668.2,901.1,1670.4,898.8,1673.2,898.8z
				"/>
			<path class="st158" d="M2073.2,1243.8c2.1,0,3.7,1.7,3.7,3.7c0,2.1-1.7,3.7-3.7,3.7c-2.1,0-3.7-1.7-3.7-3.7
				C2069.5,1245.5,2071.2,1243.8,2073.2,1243.8z"/>
			<path class="st159" d="M1680.2,1211.7c1.2,0,2.1,1,2.1,2.1s-1,2.1-2.1,2.1s-2.1-1-2.1-2.1S1679,1211.7,1680.2,1211.7z"/>
			<path class="st160" d="M1873.1,1565c1.3,0,2.4,1.1,2.4,2.4s-1.1,2.4-2.4,2.4c-1.3,0-2.4-1.1-2.4-2.4S1871.7,1565,1873.1,1565z"/>
			<path class="st117" d="M1557.2,911.4c0.9,0,1.6,0.7,1.6,1.6c0,0.9-0.7,1.6-1.6,1.6c-0.9,0-1.6-0.7-1.6-1.6
				C1555.6,912.2,1556.3,911.4,1557.2,911.4z"/>
			<path class="st161" d="M1852.2,205.4c1.2,0,2.1,0.9,2.1,2.1c0,1.2-0.9,2.1-2.1,2.1s-2.1-0.9-2.1-2.1
				C1850.1,206.3,1851.1,205.4,1852.2,205.4z"/>
			<path class="st162" d="M-29.7,432.5c1.2,0,2.1,1,2.1,2.1c0,1.2-1,2.1-2.1,2.1c-1.2,0-2.1-1-2.1-2.1
				C-31.8,433.5-30.8,432.5-29.7,432.5z"/>
			<path class="st163" d="M261.9,301.3c1.1,0,2,0.9,2,2c0,1.1-0.9,2-2,2c-1.1,0-2-0.9-2-2C259.9,302.2,260.8,301.3,261.9,301.3z"/>
			<path class="st84" d="M61,594.7c0.9,0,1.7,0.8,1.7,1.7c0,0.9-0.8,1.7-1.7,1.7s-1.7-0.8-1.7-1.7C59.3,595.4,60.1,594.7,61,594.7z"
				/>
			<path class="st164" d="M1220.1-201.5c1,0,1.7,0.8,1.7,1.7c0,1-0.8,1.7-1.7,1.7c-1,0-1.7-0.8-1.7-1.7
				C1218.3-200.7,1219.1-201.5,1220.1-201.5z"/>
			<path class="st165" d="M247.7-198c0.9,0,1.6,0.7,1.6,1.6s-0.7,1.6-1.6,1.6c-0.9,0-1.6-0.7-1.6-1.6S246.8-198,247.7-198z"/>
			<path class="st166" d="M1548.3,54.5c0.9,0,1.5,0.7,1.5,1.5s-0.7,1.5-1.5,1.5s-1.5-0.7-1.5-1.5S1547.5,54.5,1548.3,54.5z"/>
			<path class="st167" d="M993.7,660.3c0.7,0,1.3,0.6,1.3,1.3c0,0.7-0.6,1.3-1.3,1.3s-1.3-0.6-1.3-1.3
				C992.4,660.8,993,660.3,993.7,660.3z"/>
			<path class="st168" d="M1170.9,1813c1.2,0,2.2,1,2.2,2.2c0,1.2-1,2.2-2.2,2.2c-1.2,0-2.2-1-2.2-2.2
				C1168.7,1813.9,1169.7,1813,1170.9,1813z"/>
			<path class="st169" d="M1058.2,878.4c3.7,0,6.7,3,6.7,6.7c0,3.7-3,6.7-6.7,6.7s-6.7-3-6.7-6.7
				C1051.5,881.4,1054.5,878.4,1058.2,878.4z"/>
			<path class="st170" d="M2562.3,1539.6c2.2,0,4,1.8,4,4c0,2.2-1.8,4-4,4c-2.2,0-4-1.8-4-4
				C2558.2,1541.5,2560,1539.6,2562.3,1539.6z"/>
			<path class="st171" d="M1641.4,791.9c0.9,0,1.7,0.8,1.7,1.7c0,0.9-0.8,1.7-1.7,1.7c-0.9,0-1.7-0.8-1.7-1.7
				C1639.7,792.7,1640.5,791.9,1641.4,791.9z"/>
			<path class="st172" d="M1942.1,665.8c0.8,0,1.5,0.7,1.5,1.5c0,0.8-0.7,1.5-1.5,1.5c-0.8,0-1.5-0.7-1.5-1.5
				C1940.6,666.5,1941.2,665.8,1942.1,665.8z"/>
			<circle class="st173" cx="2166.6" cy="636.1" r="1.7"/>
			<path class="st174" d="M215.1,443.6c1.1,0,1.9,0.9,1.9,1.9c0,1.1-0.9,1.9-1.9,1.9c-1.1,0-1.9-0.9-1.9-1.9
				C213.1,444.5,214,443.6,215.1,443.6z"/>
			<path class="st175" d="M121.9,576.8c1,0,1.8,0.8,1.8,1.8c0,1-0.8,1.8-1.8,1.8c-1,0-1.8-0.8-1.8-1.8
				C120.2,577.5,121,576.8,121.9,576.8z"/>
			<path class="st176" d="M1381.5-153.2c0.9,0,1.7,0.8,1.7,1.7c0,0.9-0.8,1.7-1.7,1.7c-0.9,0-1.7-0.8-1.7-1.7
				C1379.8-152.5,1380.6-153.2,1381.5-153.2z"/>
			<path class="st177" d="M1823.3,77.8c0.8,0,1.4,0.6,1.4,1.4s-0.6,1.4-1.4,1.4s-1.4-0.6-1.4-1.4S1822.5,77.8,1823.3,77.8z"/>
			<path class="st178" d="M1062.3,442.2c0.7,0,1.2,0.6,1.2,1.2c0,0.7-0.6,1.2-1.2,1.2c-0.7,0-1.2-0.6-1.2-1.2
				C1061.1,442.7,1061.6,442.2,1062.3,442.2z"/>
			<path class="st179" d="M1177.1,1296.5c1.2,0,2.1,1,2.1,2.1c0,1.2-1,2.1-2.1,2.1s-2.1-1-2.1-2.1
				C1174.9,1297.5,1175.9,1296.5,1177.1,1296.5z"/>
			<path class="st180" d="M1247.4,1359.9c1.4,0,2.5,1.1,2.5,2.5c0,1.4-1.1,2.5-2.5,2.5c-1.4,0-2.5-1.1-2.5-2.5
				C1244.9,1361,1246,1359.9,1247.4,1359.9z"/>
			<path class="st181" d="M1328.9,1470.5c2.7,0,5,2.2,5,5c0,2.7-2.2,5-5,5c-2.7,0-5-2.2-5-5
				C1324,1472.7,1326.2,1470.5,1328.9,1470.5z"/>
			<path class="st182" d="M1934.5,1214.9c1.7,0,3.1,1.4,3.1,3.1c0,1.7-1.4,3.1-3.1,3.1c-1.7,0-3.1-1.4-3.1-3.1
				C1931.4,1216.3,1932.8,1214.9,1934.5,1214.9z"/>
			<path class="st183" d="M1693.1,1139.3c1.2,0,2.1,0.9,2.1,2.1c0,1.2-0.9,2.1-2.1,2.1c-1.2,0-2.1-0.9-2.1-2.1
				C1691,1140.2,1692,1139.3,1693.1,1139.3z"/>
			<path class="st184" d="M2229.4,2018.8c1.5,0,2.8,1.3,2.8,2.8c0,1.5-1.3,2.8-2.8,2.8c-1.5,0-2.8-1.3-2.8-2.8
				C2226.6,2020.1,2227.9,2018.8,2229.4,2018.8z"/>
			<path class="st185" d="M1977.4,636c0.9,0,1.7,0.7,1.7,1.7c0,0.9-0.7,1.7-1.7,1.7s-1.7-0.7-1.7-1.7
				C1975.7,636.7,1976.5,636,1977.4,636z"/>
			<path class="st186" d="M2442.1,555.5c1,0,1.9,0.8,1.9,1.9s-0.8,1.9-1.9,1.9c-1,0-1.9-0.8-1.9-1.9S2441.1,555.5,2442.1,555.5z"/>
			<path class="st187" d="M-22.1-230.7c1.2,0,2.2,1,2.2,2.2s-1,2.2-2.2,2.2s-2.2-1-2.2-2.2S-23.3-230.7-22.1-230.7z"/>
			<path class="st188" d="M189.1,335.2c1.1,0,2.1,0.9,2.1,2.1c0,1.1-0.9,2.1-2.1,2.1c-1.1,0-2.1-0.9-2.1-2.1
				C187,336.1,188,335.2,189.1,335.2z"/>
			<path class="st189" d="M-15.8,1195.1c1.1,0,2.1,0.9,2.1,2.1c0,1.1-0.9,2.1-2.1,2.1c-1.1,0-2.1-0.9-2.1-2.1
				C-17.9,1196-16.9,1195.1-15.8,1195.1z"/>
			<path class="st190" d="M10.9,966.9c1,0,1.7,0.8,1.7,1.7c0,1-0.8,1.7-1.7,1.7c-1,0-1.7-0.8-1.7-1.7
				C9.2,967.6,9.9,966.9,10.9,966.9z"/>
			<path class="st191" d="M1244.6,217.2c0.7,0,1.3,0.6,1.3,1.3c0,0.7-0.6,1.3-1.3,1.3c-0.7,0-1.3-0.6-1.3-1.3
				C1243.3,217.7,1243.9,217.2,1244.6,217.2z"/>
			<path class="st192" d="M863.5,1074.1c0.7,0,1.2,0.6,1.2,1.2c0,0.7-0.6,1.2-1.2,1.2c-0.7,0-1.2-0.6-1.2-1.2
				C862.3,1074.7,862.8,1074.1,863.5,1074.1z"/>
			<path class="st193" d="M1033.5,1159.2c1,0,1.8,0.8,1.8,1.8c0,1-0.8,1.8-1.8,1.8s-1.8-0.8-1.8-1.8
				C1031.8,1160,1032.6,1159.2,1033.5,1159.2z"/>
			<path class="st194" d="M1334.5,1451.5c2.3,0,4.2,1.9,4.2,4.2c0,2.3-1.9,4.2-4.2,4.2c-2.3,0-4.2-1.9-4.2-4.2
				C1330.3,1453.4,1332.2,1451.5,1334.5,1451.5z"/>
			<path class="st195" d="M1234,640.9c2.9,0,5.2,2.3,5.2,5.2c0,2.9-2.3,5.2-5.2,5.2c-2.9,0-5.2-2.3-5.2-5.2
				C1228.8,643.2,1231.1,640.9,1234,640.9z"/>
			<path class="st196" d="M1887,812.7c2.4,0,4.3,1.9,4.3,4.3c0,2.4-1.9,4.3-4.3,4.3s-4.3-1.9-4.3-4.3
				C1882.7,814.6,1884.6,812.7,1887,812.7z"/>
			<circle class="st197" cx="1741.6" cy="1324.2" r="2.1"/>
			<path class="st198" d="M1473.6,1130.3c0.8,0,1.5,0.7,1.5,1.5c0,0.8-0.7,1.5-1.5,1.5s-1.5-0.7-1.5-1.5
				C1472,1131,1472.7,1130.3,1473.6,1130.3z"/>
			<path class="st199" d="M2021.3,451.2c1.1,0,2,0.9,2,2c0,1.1-0.9,2-2,2c-1.1,0-2-0.9-2-2C2019.3,452.1,2020.2,451.2,2021.3,451.2z
				"/>
			<path class="st28" d="M2176.4,261.7c1.2,0,2.1,1,2.1,2.1c0,1.2-1,2.1-2.1,2.1c-1.2,0-2.1-1-2.1-2.1
				C2174.3,262.7,2175.2,261.7,2176.4,261.7z"/>
			<path class="st200" d="M262.6,448.5c1.1,0,1.9,0.9,1.9,1.9c0,1.1-0.9,1.9-1.9,1.9c-1.1,0-1.9-0.9-1.9-1.9
				C260.6,449.3,261.5,448.5,262.6,448.5z"/>
			<path class="st201" d="M85,934.6c1,0,1.7,0.8,1.7,1.7c0,1-0.8,1.7-1.7,1.7c-1,0-1.7-0.8-1.7-1.7C83.2,935.3,84,934.6,85,934.6z"
				/>
			<path class="st202" d="M258.2,75.3c0.9,0,1.5,0.7,1.5,1.5c0,0.9-0.7,1.5-1.5,1.5c-0.9,0-1.5-0.7-1.5-1.5
				C256.7,76,257.4,75.3,258.2,75.3z"/>
			<path class="st203" d="M1528.9-90.2c0.9,0,1.6,0.7,1.6,1.6c0,0.9-0.7,1.6-1.6,1.6c-0.9,0-1.6-0.7-1.6-1.6
				C1527.3-89.5,1528-90.2,1528.9-90.2z"/>
			<path class="st204" d="M1110.1,460.4c0.8,0,1.5,0.7,1.5,1.5c0,0.8-0.7,1.5-1.5,1.5c-0.8,0-1.5-0.7-1.5-1.5
				C1108.7,461.1,1109.3,460.4,1110.1,460.4z"/>
			<path class="st137" d="M989.8,656.3c0.7,0,1.3,0.6,1.3,1.3c0,0.7-0.6,1.3-1.3,1.3c-0.7,0-1.3-0.6-1.3-1.3
				C988.5,656.9,989.1,656.3,989.8,656.3z"/>
			<path class="st205" d="M1224.7,1400c1.4,0,2.6,1.2,2.6,2.6c0,1.4-1.2,2.6-2.6,2.6s-2.6-1.2-2.6-2.6
				C1222.1,1401.2,1223.3,1400,1224.7,1400z"/>
			<path class="st206" d="M2277.1,1089.8c2.1,0,3.9,1.7,3.9,3.9c0,2.1-1.7,3.9-3.9,3.9c-2.1,0-3.9-1.7-3.9-3.9
				C2273.2,1091.5,2274.9,1089.8,2277.1,1089.8z"/>
			<path class="st207" d="M2741.4,2029.2c2,0,3.6,1.6,3.6,3.6c0,2-1.6,3.6-3.6,3.6c-2,0-3.6-1.6-3.6-3.6
				C2737.8,2030.8,2739.4,2029.2,2741.4,2029.2z"/>
			<path class="st208" d="M1572.4,922.2c0.8,0,1.5,0.7,1.5,1.5c0,0.8-0.7,1.5-1.5,1.5c-0.8,0-1.5-0.7-1.5-1.5
				C1570.9,922.8,1571.6,922.2,1572.4,922.2z"/>
			<path class="st209" d="M1802.1,718.5c0.9,0,1.6,0.7,1.6,1.6s-0.7,1.6-1.6,1.6c-0.9,0-1.6-0.7-1.6-1.6S1801.3,718.5,1802.1,718.5z
				"/>
			<path class="st142" d="M128.4,662.1c1.1,0,2,0.9,2,2s-0.9,2-2,2c-1.1,0-2-0.9-2-2S127.2,662.1,128.4,662.1z"/>
			<circle class="st210" cx="70.3" cy="1273.1" r="2"/>
			<path class="st211" d="M510.5,231.2c1,0,1.8,0.8,1.8,1.8c0,1-0.8,1.8-1.8,1.8c-1,0-1.8-0.8-1.8-1.8
				C508.7,232,509.5,231.2,510.5,231.2z"/>
			<path class="st212" d="M1389.1,104.9c0.8,0,1.4,0.6,1.4,1.4c0,0.8-0.6,1.4-1.4,1.4c-0.8,0-1.4-0.6-1.4-1.4
				C1387.7,105.5,1388.3,104.9,1389.1,104.9z"/>
			<path class="st213" d="M893.9,1087.8c0.8,0,1.4,0.6,1.4,1.4c0,0.8-0.6,1.4-1.4,1.4c-0.8,0-1.4-0.6-1.4-1.4
				C892.5,1088.4,893.1,1087.8,893.9,1087.8z"/>
			<path class="st214" d="M994.3,1136.2c0.9,0,1.7,0.8,1.7,1.7c0,0.9-0.8,1.7-1.7,1.7s-1.7-0.8-1.7-1.7
				C992.6,1137,993.3,1136.2,994.3,1136.2z"/>
			<path class="st215" d="M1215.7,1429.7c1.5,0,2.7,1.2,2.7,2.7c0,1.5-1.2,2.7-2.7,2.7c-1.5,0-2.7-1.2-2.7-2.7
				C1212.9,1430.9,1214.2,1429.7,1215.7,1429.7z"/>
			<path class="st216" d="M1236.3,1310.8c2.1,0,3.7,1.7,3.7,3.7c0,2.1-1.7,3.7-3.7,3.7c-2.1,0-3.7-1.7-3.7-3.7
				C1232.6,1312.4,1234.2,1310.8,1236.3,1310.8z"/>
			<path class="st217" d="M2217.2,584.8c2.5,0,4.5,2,4.5,4.5c0,2.5-2,4.5-4.5,4.5c-2.5,0-4.5-2-4.5-4.5
				C2212.7,586.8,2214.7,584.8,2217.2,584.8z"/>
			<path class="st218" d="M2897.7,1565.4c2.3,0,4.1,1.8,4.1,4.1c0,2.3-1.8,4.1-4.1,4.1c-2.3,0-4.1-1.8-4.1-4.1
				C2893.6,1567.2,2895.4,1565.4,2897.7,1565.4z"/>
			<path class="st219" d="M1705,1053.8c1.1,0,2,0.9,2,2c0,1.1-0.9,2-2,2c-1.1,0-2-0.9-2-2C1703.1,1054.6,1704,1053.8,1705,1053.8z"
				/>
			<path class="st220" d="M1901.8,686.7c1,0,1.8,0.8,1.8,1.8c0,1-0.8,1.8-1.8,1.8c-1,0-1.8-0.8-1.8-1.8
				C1900.1,687.4,1900.9,686.7,1901.8,686.7z"/>
			<path class="st221" d="M2323.1,663.6c1,0,1.8,0.8,1.8,1.8c0,1-0.8,1.8-1.8,1.8c-1,0-1.8-0.8-1.8-1.8
				C2321.4,664.4,2322.1,663.6,2323.1,663.6z"/>
			<path class="st222" d="M-31.4,447.6c1.3,0,2.3,1,2.3,2.3c0,1.3-1,2.3-2.3,2.3c-1.3,0-2.3-1-2.3-2.3
				C-33.7,448.6-32.7,447.6-31.4,447.6z"/>
			<path class="st223" d="M43,1911.3c1.3,0,2.4,1.1,2.4,2.4c0,1.3-1.1,2.4-2.4,2.4c-1.3,0-2.4-1.1-2.4-2.4
				C40.6,1912.3,41.7,1911.3,43,1911.3z"/>
			<circle class="st133" cx="381.5" cy="429.1" r="1.8"/>
			<path class="st224" d="M116.9,510.8c0.9,0,1.5,0.7,1.5,1.5c0,0.9-0.7,1.5-1.5,1.5s-1.5-0.7-1.5-1.5
				C115.4,511.5,116.1,510.8,116.9,510.8z"/>
			<path class="st225" d="M383.3-191.8c0.9,0,1.5,0.7,1.5,1.5c0,0.9-0.7,1.5-1.5,1.5c-0.9,0-1.5-0.7-1.5-1.5
				C381.8-191.1,382.5-191.8,383.3-191.8z"/>
			<path class="st226" d="M1328.9,108.8c0.8,0,1.4,0.6,1.4,1.4c0,0.8-0.6,1.4-1.4,1.4s-1.4-0.6-1.4-1.4
				C1327.4,109.5,1328.1,108.8,1328.9,108.8z"/>
			<path class="st227" d="M854.1,1059.6c0.7,0,1.3,0.6,1.3,1.3c0,0.7-0.6,1.3-1.3,1.3c-0.7,0-1.3-0.6-1.3-1.3
				C852.8,1060.2,853.4,1059.6,854.1,1059.6z"/>
			<path class="st228" d="M1073.2,1592.3c1.2,0,2.2,1,2.2,2.2s-1,2.2-2.2,2.2c-1.2,0-2.2-1-2.2-2.2S1072,1592.3,1073.2,1592.3z"/>
			<path class="st229" d="M1131.4,1487.9c1.4,0,2.5,1.1,2.5,2.5c0,1.4-1.1,2.5-2.5,2.5c-1.4,0-2.5-1.1-2.5-2.5
				C1128.9,1489,1130,1487.9,1131.4,1487.9z"/>
			<path class="st230" d="M942.5,386.9c2.8,0,5.1,2.3,5.1,5.1c0,2.8-2.3,5.1-5.1,5.1c-2.8,0-5.1-2.3-5.1-5.1
				C937.4,389.2,939.7,386.9,942.5,386.9z"/>
			<path class="st231" d="M1876.8,685c2.2,0,3.9,1.7,3.9,3.9c0,2.2-1.7,3.9-3.9,3.9s-3.9-1.7-3.9-3.9
				C1872.9,686.7,1874.7,685,1876.8,685z"/>
			<path class="st232" d="M2442.7,1084.9c2.1,0,3.7,1.7,3.7,3.7c0,2.1-1.7,3.7-3.7,3.7c-2.1,0-3.7-1.7-3.7-3.7
				C2439,1086.6,2440.7,1084.9,2442.7,1084.9z"/>
			<path class="st233" d="M2072.8,1394.9c1.4,0,2.6,1.2,2.6,2.6c0,1.4-1.2,2.6-2.6,2.6s-2.6-1.2-2.6-2.6
				C2070.2,1396.1,2071.4,1394.9,2072.8,1394.9z"/>
			<path class="st234" d="M3014.6,2008.8c2.2,0,3.9,1.8,3.9,3.9s-1.8,3.9-3.9,3.9s-3.9-1.8-3.9-3.9S3012.5,2008.8,3014.6,2008.8z"/>
			<path class="st235" d="M1312.8,821.7c0.7,0,1.2,0.5,1.2,1.2c0,0.7-0.5,1.2-1.2,1.2s-1.2-0.5-1.2-1.2
				C1311.6,822.2,1312.2,821.7,1312.8,821.7z"/>
			<path class="st236" d="M2307.8,620.4c1,0,1.9,0.8,1.9,1.9c0,1-0.8,1.9-1.9,1.9c-1,0-1.9-0.8-1.9-1.9
				C2305.9,621.2,2306.8,620.4,2307.8,620.4z"/>
			<path class="st237" d="M100.8,421.2c1.2,0,2.2,1,2.2,2.2s-1,2.2-2.2,2.2c-1.2,0-2.2-1-2.2-2.2S99.6,421.2,100.8,421.2z"/>
			<path class="st238" d="M189.8,846.3c0.9,0,1.7,0.8,1.7,1.7c0,0.9-0.8,1.7-1.7,1.7c-0.9,0-1.7-0.8-1.7-1.7
				C188.1,847.1,188.9,846.3,189.8,846.3z"/>
			<path class="st239" d="M231.5,490.3c0.8,0,1.5,0.7,1.5,1.5c0,0.8-0.7,1.5-1.5,1.5c-0.8,0-1.5-0.7-1.5-1.5
				C230,491,230.7,490.3,231.5,490.3z"/>
			<path class="st240" d="M1577.5-210.9c0.9,0,1.6,0.7,1.6,1.6c0,0.9-0.7,1.6-1.6,1.6c-0.9,0-1.6-0.7-1.6-1.6
				C1575.8-210.2,1576.6-210.9,1577.5-210.9z"/>
			<path class="st241" d="M1283.7,147c0.8,0,1.4,0.6,1.4,1.4c0,0.8-0.6,1.4-1.4,1.4c-0.8,0-1.4-0.6-1.4-1.4
				C1282.3,147.6,1282.9,147,1283.7,147z"/>
			<path class="st242" d="M968.8,449.1c0.7,0,1.2,0.5,1.2,1.2c0,0.7-0.5,1.2-1.2,1.2c-0.7,0-1.2-0.5-1.2-1.2
				C967.6,449.6,968.2,449.1,968.8,449.1z"/>
			<path class="st243" d="M984,1569.8c1,0,1.9,0.8,1.9,1.9s-0.8,1.9-1.9,1.9c-1,0-1.9-0.8-1.9-1.9S982.9,1569.8,984,1569.8z"/>
			<path class="st244" d="M2481.6-116.3c2.9,0,5.2,2.3,5.2,5.2c0,2.9-2.3,5.2-5.2,5.2c-2.9,0-5.2-2.3-5.2-5.2
				C2476.3-114,2478.7-116.3,2481.6-116.3z"/>
			<path class="st245" d="M2170.5,595.2c2.2,0,4.1,1.8,4.1,4.1c0,2.2-1.8,4.1-4.1,4.1s-4.1-1.8-4.1-4.1
				C2166.4,597.1,2168.2,595.2,2170.5,595.2z"/>
			<path class="st246" d="M3032.8,1510.1c2.2,0,4,1.8,4,4c0,2.2-1.8,4-4,4c-2.2,0-4-1.8-4-4
				C3028.7,1511.9,3030.5,1510.1,3032.8,1510.1z"/>
			<path class="st247" d="M2024.4,1714.3c1.3,0,2.3,1,2.3,2.3c0,1.3-1,2.3-2.3,2.3c-1.3,0-2.3-1-2.3-2.3
				C2022,1715.3,2023.1,1714.3,2024.4,1714.3z"/>
			<path class="st248" d="M1697.7,785.2c0.8,0,1.4,0.6,1.4,1.4c0,0.8-0.6,1.4-1.4,1.4s-1.4-0.6-1.4-1.4
				C1696.2,785.8,1696.9,785.2,1697.7,785.2z"/>
			<path class="st249" d="M2053.1,787.5c0.8,0,1.5,0.7,1.5,1.5c0,0.8-0.7,1.5-1.5,1.5c-0.8,0-1.5-0.7-1.5-1.5
				C2051.6,788.2,2052.3,787.5,2053.1,787.5z"/>
			<path class="st250" d="M2466.2-130.2c1.4,0,2.5,1.1,2.5,2.5c0,1.4-1.1,2.5-2.5,2.5s-2.5-1.1-2.5-2.5
				C2463.6-129,2464.8-130.2,2466.2-130.2z"/>
			<path class="st251" d="M-33.1,806.4c1.3,0,2.4,1.1,2.4,2.4c0,1.3-1.1,2.4-2.4,2.4c-1.3,0-2.4-1.1-2.4-2.4
				C-35.5,807.4-34.4,806.4-33.1,806.4z"/>
			<path class="st252" d="M343.9,496.6c1.1,0,2,0.9,2,2c0,1.1-0.9,2-2,2s-2-0.9-2-2C341.9,497.5,342.8,496.6,343.9,496.6z"/>
			<path class="st253" d="M181.6,1004.1c1.1,0,2,0.9,2,2c0,1.1-0.9,2-2,2c-1.1,0-2-0.9-2-2C179.7,1005,180.5,1004.1,181.6,1004.1z"
				/>
			<path class="st254" d="M287,238.2c0.8,0,1.4,0.6,1.4,1.4c0,0.8-0.6,1.4-1.4,1.4c-0.8,0-1.4-0.6-1.4-1.4
				C285.5,238.8,286.2,238.2,287,238.2z"/>
			<path class="st255" d="M1500,1.7c0.7,0,1.3,0.6,1.3,1.3c0,0.7-0.6,1.3-1.3,1.3c-0.7,0-1.3-0.6-1.3-1.3
				C1498.6,2.3,1499.2,1.7,1500,1.7z"/>
			<path class="st256" d="M1009.7,464.8c0.7,0,1.3,0.6,1.3,1.3c0,0.7-0.6,1.3-1.3,1.3c-0.7,0-1.3-0.6-1.3-1.3
				C1008.4,465.4,1009,464.8,1009.7,464.8z"/>
			<path class="st257" d="M842.9,1428.5c0.8,0,1.4,0.6,1.4,1.4c0,0.8-0.6,1.4-1.4,1.4c-0.8,0-1.4-0.6-1.4-1.4
				C841.4,1429.1,842.1,1428.5,842.9,1428.5z"/>
			<path class="st258" d="M528.3,622.7c3.2,0,5.8,2.6,5.8,5.8c0,3.2-2.6,5.8-5.8,5.8c-3.2,0-5.8-2.6-5.8-5.8
				C522.6,625.3,525.2,622.7,528.3,622.7z"/>
			<path class="st259" d="M1283.1,118.8c2.5,0,4.5,2,4.5,4.5c0,2.5-2,4.5-4.5,4.5s-4.5-2-4.5-4.5
				C1278.6,120.9,1280.6,118.8,1283.1,118.8z"/>
			<path class="st260" d="M3122.5,1268.3c2.3,0,4.1,1.9,4.1,4.1c0,2.3-1.9,4.1-4.1,4.1c-2.3,0-4.1-1.9-4.1-4.1
				C3118.3,1270.2,3120.2,1268.3,3122.5,1268.3z"/>
			<path class="st261" d="M1972.2,1257.7c1.3,0,2.3,1,2.3,2.3c0,1.3-1,2.3-2.3,2.3c-1.3,0-2.3-1-2.3-2.3
				C1969.9,1258.7,1970.9,1257.7,1972.2,1257.7z"/>
			<path class="st262" d="M1863.8,1696.4c1.1,0,2,0.9,2,2c0,1.1-0.9,2-2,2c-1.1,0-2-0.9-2-2
				C1861.8,1697.3,1862.7,1696.4,1863.8,1696.4z"/>
			<path class="st263" d="M1598.1,1017.1c0.9,0,1.5,0.7,1.5,1.5c0,0.9-0.7,1.5-1.5,1.5c-0.9,0-1.5-0.7-1.5-1.5
				C1596.6,1017.8,1597.3,1017.1,1598.1,1017.1z"/>
			<path class="st264" d="M2189.1,399.3c1.2,0,2.1,1,2.1,2.1c0,1.2-1,2.1-2.1,2.1s-2.1-1-2.1-2.1
				C2186.9,400.2,2187.9,399.3,2189.1,399.3z"/>
			<path class="st265" d="M63.7-259.4c1.3,0,2.4,1.1,2.4,2.4c0,1.3-1.1,2.4-2.4,2.4c-1.3,0-2.4-1.1-2.4-2.4
				C61.2-258.3,62.3-259.4,63.7-259.4z"/>
			<path class="st266" d="M135.3,1627.4c1.2,0,2.2,1,2.2,2.2c0,1.2-1,2.2-2.2,2.2c-1.2,0-2.2-1-2.2-2.2
				C133.1,1628.4,134.1,1627.4,135.3,1627.4z"/>
			<path class="st267" d="M300.7,583.1c0.8,0,1.5,0.7,1.5,1.5c0,0.8-0.7,1.5-1.5,1.5c-0.8,0-1.5-0.7-1.5-1.5
				C299.2,583.8,299.9,583.1,300.7,583.1z"/>
			<path class="st268" d="M534.4,344.7c1,0,1.7,0.8,1.7,1.7c0,1-0.8,1.7-1.7,1.7c-1,0-1.7-0.8-1.7-1.7
				C532.7,345.5,533.5,344.7,534.4,344.7z"/>
			<path class="st269" d="M1470.7-37.4c0.8,0,1.4,0.6,1.4,1.4c0,0.8-0.6,1.4-1.4,1.4s-1.4-0.6-1.4-1.4
				C1469.3-36.8,1469.9-37.4,1470.7-37.4z"/>
			<path class="st270" d="M1012.4,452.8c0.7,0,1.3,0.6,1.3,1.3c0,0.7-0.6,1.3-1.3,1.3c-0.7,0-1.3-0.6-1.3-1.3
				C1011,453.4,1011.6,452.8,1012.4,452.8z"/>
			<path class="st271" d="M966,1370.6c1.1,0,1.9,0.9,1.9,1.9c0,1.1-0.9,1.9-1.9,1.9c-1.1,0-1.9-0.9-1.9-1.9
				C964.1,1371.5,964.9,1370.6,966,1370.6z"/>
			<path class="st272" d="M1056.9,1497.6c2.2,0,3.9,1.8,3.9,3.9c0,2.2-1.8,3.9-3.9,3.9c-2.2,0-3.9-1.8-3.9-3.9
				C1053,1499.4,1054.7,1497.6,1056.9,1497.6z"/>
			<path class="st273" d="M2514.2,26.7c2.6,0,4.8,2.1,4.8,4.8c0,2.6-2.1,4.8-4.8,4.8s-4.8-2.1-4.8-4.8
				C2509.4,28.8,2511.5,26.7,2514.2,26.7z"/>
			<path class="st274" d="M3012.3,1166.7c2.2,0,3.9,1.8,3.9,3.9c0,2.2-1.8,3.9-3.9,3.9c-2.2,0-3.9-1.8-3.9-3.9
				C3008.3,1168.4,3010.1,1166.7,3012.3,1166.7z"/>
			<path class="st275" d="M2137,1145.6c1.5,0,2.8,1.2,2.8,2.8c0,1.5-1.2,2.8-2.8,2.8c-1.5,0-2.8-1.2-2.8-2.8
				C2134.2,1146.9,2135.4,1145.6,2137,1145.6z"/>
			<path class="st276" d="M1843.2,1234.5c1.1,0,2,0.9,2,2c0,1.1-0.9,2-2,2c-1.1,0-2-0.9-2-2
				C1841.2,1235.4,1842.1,1234.5,1843.2,1234.5z"/>
			<circle class="st277" cx="1827.5" cy="827" r="1.6"/>
			<path class="st278" d="M2156.4,815.6c0.9,0,1.6,0.7,1.6,1.6c0,0.9-0.7,1.6-1.6,1.6s-1.6-0.7-1.6-1.6
				C2154.8,816.3,2155.5,815.6,2156.4,815.6z"/>
			<path class="st279" d="M22.8,697c1.3,0,2.4,1.1,2.4,2.4c0,1.3-1.1,2.4-2.4,2.4c-1.3,0-2.4-1.1-2.4-2.4
				C20.4,698.1,21.4,697,22.8,697z"/>
			<circle class="st280" cx="219.5" cy="1281.8" r="1.8"/>
			<circle class="st281" cx="361.2" cy="607" r="1.7"/>
			<path class="st282" d="M417.8,302.8c0.8,0,1.5,0.7,1.5,1.5c0,0.8-0.7,1.5-1.5,1.5c-0.8,0-1.5-0.7-1.5-1.5
				C416.3,303.5,417,302.8,417.8,302.8z"/>
			<path class="st283" d="M879.7,57.5c0.9,0,1.6,0.7,1.6,1.6c0,0.9-0.7,1.6-1.6,1.6c-0.9,0-1.6-0.7-1.6-1.6
				C878.1,58.3,878.8,57.5,879.7,57.5z"/>
			<circle class="st284" cx="1410.2" cy="-43.8" r="1.5"/>
			<path class="st285" d="M1117,247.7c0.8,0,1.4,0.6,1.4,1.4c0,0.8-0.6,1.4-1.4,1.4c-0.8,0-1.4-0.6-1.4-1.4
				C1115.6,248.4,1116.2,247.7,1117,247.7z"/>
			<path class="st286" d="M911.9,966.5c0.9,0,1.6,0.7,1.6,1.6c0,0.9-0.7,1.6-1.6,1.6s-1.6-0.7-1.6-1.6
				C910.3,967.2,911,966.5,911.9,966.5z"/>
			<path class="st144" d="M1027.1,1573.1c1.4,0,2.5,1.1,2.5,2.5c0,1.4-1.1,2.5-2.5,2.5c-1.4,0-2.5-1.1-2.5-2.5
				C1024.6,1574.1,1025.7,1573.1,1027.1,1573.1z"/>
			<circle class="st287" cx="211.5" cy="760.4" r="6.3"/>
			<circle class="st288" cx="2085" cy="929.8" r="2.9"/>
			<circle class="st289" cx="2482" cy="1670.7" r="2.8"/>
			<path class="st290" d="M1707,1504.2c1,0,1.7,0.8,1.7,1.7c0,1-0.8,1.7-1.7,1.7c-1,0-1.7-0.8-1.7-1.7
				C1705.2,1504.9,1706,1504.2,1707,1504.2z"/>
			<path class="st291" d="M1634.4,775.7c0.7,0,1.3,0.6,1.3,1.3c0,0.7-0.6,1.3-1.3,1.3c-0.7,0-1.3-0.6-1.3-1.3
				C1633.1,776.3,1633.7,775.7,1634.4,775.7z"/>
			<path class="st292" d="M2483,86.3c1.4,0,2.5,1.1,2.5,2.5c0,1.4-1.1,2.5-2.5,2.5c-1.4,0-2.5-1.1-2.5-2.5
				C2480.5,87.4,2481.6,86.3,2483,86.3z"/>
			<circle class="st293" cx="245.1" cy="798.3" r="2.1"/>
			<path class="st294" d="M434.7,397.7c0.8,0,1.5,0.7,1.5,1.5c0,0.8-0.7,1.5-1.5,1.5c-0.8,0-1.5-0.7-1.5-1.5
				C433.2,398.3,433.9,397.7,434.7,397.7z"/>
			<circle class="st295" cx="457.3" cy="271.8" r="1.5"/>
			<path class="st296" d="M1778.8-178.5c0.9,0,1.6,0.7,1.6,1.6c0,0.9-0.7,1.6-1.6,1.6c-0.9,0-1.6-0.7-1.6-1.6
				C1777.3-177.8,1778-178.5,1778.8-178.5z"/>
			<path class="st297" d="M1170.6,131.9c0.8,0,1.4,0.6,1.4,1.4c0,0.8-0.6,1.4-1.4,1.4c-0.8,0-1.4-0.6-1.4-1.4
				C1169.2,132.5,1169.8,131.9,1170.6,131.9z"/>
			<path class="st298" d="M856.9,1077.3c0.8,0,1.5,0.7,1.5,1.5c0,0.8-0.7,1.5-1.5,1.5c-0.8,0-1.5-0.7-1.5-1.5
				C855.4,1077.9,856.1,1077.3,856.9,1077.3z"/>
			<path class="st299" d="M1013.4,1798.5c1.4,0,2.5,1.1,2.5,2.5s-1.1,2.5-2.5,2.5c-1.4,0-2.5-1.1-2.5-2.5S1012,1798.5,1013.4,1798.5
				z"/>
			<path class="st300" d="M357.6,724.1c3.1,0,5.6,2.5,5.6,5.6c0,3.1-2.5,5.6-5.6,5.6c-3.1,0-5.6-2.5-5.6-5.6
				C352.1,726.6,354.6,724.1,357.6,724.1z"/>
			<circle class="st207" cx="3240.2" cy="-62" r="5.2"/>
			<path class="st301" d="M2120.1,909.5c1.6,0,2.9,1.3,2.9,2.9c0,1.6-1.3,2.9-2.9,2.9c-1.6,0-2.9-1.3-2.9-2.9
				C2117.2,910.8,2118.5,909.5,2120.1,909.5z"/>
			<path class="st302" d="M2003.5,1097.3c1.3,0,2.3,1,2.3,2.3c0,1.3-1,2.3-2.3,2.3c-1.3,0-2.3-1-2.3-2.3
				C2001.2,1098.4,2002.2,1097.3,2003.5,1097.3z"/>
			<path class="st303" d="M1625.3,1239.1c0.9,0,1.6,0.7,1.6,1.6c0,0.9-0.7,1.6-1.6,1.6s-1.6-0.7-1.6-1.6
				C1623.8,1239.8,1624.5,1239.1,1625.3,1239.1z"/>
			<path class="st289" d="M1718.6,799.3c0.7,0,1.3,0.6,1.3,1.3c0,0.7-0.6,1.3-1.3,1.3s-1.3-0.6-1.3-1.3
				C1717.3,799.9,1717.9,799.3,1718.6,799.3z"/>
			<path class="st304" d="M2400.1,580.4c1.1,0,2.1,0.9,2.1,2.1c0,1.1-0.9,2.1-2.1,2.1c-1.1,0-2.1-0.9-2.1-2.1
				C2398.1,581.3,2399,580.4,2400.1,580.4z"/>
			<path class="st305" d="M1746.7-195.6c1.4,0,2.6,1.2,2.6,2.6c0,1.4-1.2,2.6-2.6,2.6c-1.4,0-2.6-1.2-2.6-2.6
				C1744.1-194.4,1745.3-195.6,1746.7-195.6z"/>
			<path class="st306" d="M-26.1,984.9c1.4,0,2.5,1.1,2.5,2.5c0,1.4-1.1,2.5-2.5,2.5s-2.5-1.1-2.5-2.5
				C-28.6,986-27.4,984.9-26.1,984.9z"/>
			<path class="st307" d="M270.9,1042.9c0.9,0,1.6,0.7,1.6,1.6s-0.7,1.6-1.6,1.6c-0.9,0-1.6-0.7-1.6-1.6S270.1,1042.9,270.9,1042.9z
				"/>
			<path class="st308" d="M307.9,845.6c0.9,0,1.6,0.7,1.6,1.6c0,0.9-0.7,1.6-1.6,1.6c-0.9,0-1.6-0.7-1.6-1.6
				C306.3,846.3,307,845.6,307.9,845.6z"/>
			<path class="st309" d="M643.6-37.8c0.8,0,1.5,0.7,1.5,1.5s-0.7,1.5-1.5,1.5c-0.8,0-1.5-0.7-1.5-1.5S642.8-37.8,643.6-37.8z"/>
			<path class="st310" d="M783.1,233.2c0.9,0,1.6,0.7,1.6,1.6c0,0.9-0.7,1.6-1.6,1.6c-0.9,0-1.6-0.7-1.6-1.6
				C781.5,234,782.2,233.2,783.1,233.2z"/>
			<path class="st311" d="M1393.2-200.2c0.9,0,1.6,0.7,1.6,1.6c0,0.9-0.7,1.6-1.6,1.6s-1.6-0.7-1.6-1.6
				C1391.7-199.5,1392.4-200.2,1393.2-200.2z"/>
			<path class="st312" d="M963.6,485.8c0.8,0,1.4,0.6,1.4,1.4c0,0.8-0.6,1.4-1.4,1.4s-1.4-0.6-1.4-1.4
				C962.2,486.5,962.8,485.8,963.6,485.8z"/>
			<path class="st313" d="M894.3,625.1c0.7,0,1.3,0.6,1.3,1.3c0,0.7-0.6,1.3-1.3,1.3c-0.7,0-1.3-0.6-1.3-1.3
				C893.1,625.7,893.6,625.1,894.3,625.1z"/>
			<path class="st314" d="M912.7,1414.5c1,0,1.9,0.8,1.9,1.9c0,1-0.8,1.9-1.9,1.9c-1,0-1.9-0.8-1.9-1.9
				C910.8,1415.3,911.7,1414.5,912.7,1414.5z"/>
			<path class="st315" d="M984.4,1502.7c2,0,3.7,1.7,3.7,3.7c0,2-1.7,3.7-3.7,3.7c-2,0-3.7-1.7-3.7-3.7
				C980.7,1504.3,982.3,1502.7,984.4,1502.7z"/>
			<circle class="st316" cx="2440.6" cy="-175.6" r="4.7"/>
			<path class="st317" d="M1995.2,717.8c1.7,0,3.1,1.4,3.1,3.1c0,1.7-1.4,3.1-3.1,3.1c-1.7,0-3.1-1.4-3.1-3.1
				C1992.1,719.2,1993.5,717.8,1995.2,717.8z"/>
			<path class="st318" d="M1966.1,1145.8c1.2,0,2.1,1,2.1,2.1s-1,2.1-2.1,2.1c-1.2,0-2.1-1-2.1-2.1S1964.9,1145.8,1966.1,1145.8z"/>
			<path class="st319" d="M1669.8,891.1c0.8,0,1.4,0.6,1.4,1.4s-0.6,1.4-1.4,1.4c-0.8,0-1.4-0.6-1.4-1.4S1669,891.1,1669.8,891.1z"
				/>
			<path class="st320" d="M2027.4,807.3c0.9,0,1.7,0.8,1.7,1.7c0,0.9-0.8,1.7-1.7,1.7c-0.9,0-1.7-0.8-1.7-1.7
				C2025.7,808,2026.5,807.3,2027.4,807.3z"/>
			<path class="st321" d="M41.3,773c1.4,0,2.5,1.1,2.5,2.5s-1.1,2.5-2.5,2.5c-1.4,0-2.5-1.1-2.5-2.5S39.9,773,41.3,773z"/>
			<path class="st322" d="M29.6,1320.2c1.4,0,2.5,1.1,2.5,2.5c0,1.4-1.1,2.5-2.5,2.5c-1.4,0-2.5-1.1-2.5-2.5
				C27,1321.3,28.2,1320.2,29.6,1320.2z"/>
			<path class="st323" d="M503.1,190.8c0.8,0,1.4,0.6,1.4,1.4s-0.6,1.4-1.4,1.4c-0.8,0-1.4-0.6-1.4-1.4S502.3,190.8,503.1,190.8z"/>
			<path class="st324" d="M658.6,366.5c0.9,0,1.7,0.8,1.7,1.7c0,0.9-0.8,1.7-1.7,1.7s-1.7-0.8-1.7-1.7
				C656.9,367.2,657.6,366.5,658.6,366.5z"/>
			<path class="st325" d="M1792.1-203c0.9,0,1.5,0.7,1.5,1.5c0,0.9-0.7,1.5-1.5,1.5c-0.9,0-1.5-0.7-1.5-1.5
				C1790.6-202.3,1791.3-203,1792.1-203z"/>
			<path class="st326" d="M1573.9-104c0.8,0,1.4,0.6,1.4,1.4c0,0.8-0.6,1.4-1.4,1.4c-0.8,0-1.4-0.6-1.4-1.4
				C1572.5-103.4,1573.1-104,1573.9-104z"/>
			<path class="st37" d="M772.6,960.2c0.7,0,1.3,0.6,1.3,1.3c0,0.7-0.6,1.3-1.3,1.3c-0.7,0-1.3-0.6-1.3-1.3
				C771.3,960.8,771.9,960.2,772.6,960.2z"/>
			<path class="st327" d="M992.1,1521.5c1.4,0,2.5,1.1,2.5,2.5c0,1.4-1.1,2.5-2.5,2.5s-2.5-1.1-2.5-2.5
				C989.6,1522.6,990.8,1521.5,992.1,1521.5z"/>
			<path class="st328" d="M407.4,1384.2c3.3,0,6,2.7,6,6s-2.7,6-6,6c-3.3,0-6-2.7-6-6S404.1,1384.2,407.4,1384.2z"/>
			<path class="st329" d="M1317.3,389.3c2,0,3.7,1.6,3.7,3.7c0,2-1.6,3.7-3.7,3.7c-2,0-3.7-1.6-3.7-3.7
				C1313.6,390.9,1315.3,389.3,1317.3,389.3z"/>
			<path class="st330" d="M2628.5-167.7c2.6,0,4.7,2.1,4.7,4.7s-2.1,4.7-4.7,4.7c-2.6,0-4.7-2.1-4.7-4.7S2625.9-167.7,2628.5-167.7z
				"/>
			<path class="st331" d="M2492.2,1140c1.6,0,3,1.3,3,3c0,1.6-1.3,3-3,3c-1.6,0-3-1.3-3-3C2489.2,1141.4,2490.5,1140,2492.2,1140z"
				/>
			<path class="st332" d="M1780.3,1134.4c1,0,1.7,0.8,1.7,1.7s-0.8,1.7-1.7,1.7c-1,0-1.7-0.8-1.7-1.7S1779.3,1134.4,1780.3,1134.4z"
				/>
			<path class="st333" d="M1911.8,951.2c1.1,0,1.9,0.9,1.9,1.9c0,1.1-0.9,1.9-1.9,1.9c-1.1,0-1.9-0.9-1.9-1.9
				C1909.8,952.1,1910.7,951.2,1911.8,951.2z"/>
			<path class="st334" d="M1928,856.6c0.8,0,1.5,0.7,1.5,1.5c0,0.8-0.7,1.5-1.5,1.5c-0.8,0-1.5-0.7-1.5-1.5
				C1926.5,857.3,1927.2,856.6,1928,856.6z"/>
			<path class="st335" d="M321.2,551.4c1.3,0,2.3,1,2.3,2.3c0,1.3-1,2.3-2.3,2.3c-1.3,0-2.3-1-2.3-2.3
				C319,552.4,320,551.4,321.2,551.4z"/>
			<path class="st336" d="M412.9,700.5c1.1,0,2,0.9,2,2c0,1.1-0.9,2-2,2c-1.1,0-2-0.9-2-2C410.9,701.3,411.8,700.5,412.9,700.5z"/>
			<path class="st337" d="M676.7,186.8c0.9,0,1.5,0.7,1.5,1.5c0,0.9-0.7,1.5-1.5,1.5c-0.9,0-1.5-0.7-1.5-1.5
				C675.2,187.5,675.9,186.8,676.7,186.8z"/>
			<path class="st338" d="M1677.4-238.8c0.9,0,1.6,0.7,1.6,1.6c0,0.9-0.7,1.6-1.6,1.6c-0.9,0-1.6-0.7-1.6-1.6
				C1675.8-238.1,1676.5-238.8,1677.4-238.8z"/>
			<path class="st339" d="M1029.6,261.2c0.7,0,1.3,0.6,1.3,1.3c0,0.7-0.6,1.3-1.3,1.3c-0.7,0-1.3-0.6-1.3-1.3
				C1028.3,261.7,1028.9,261.2,1029.6,261.2z"/>
			<path class="st340" d="M886.4,1184.1c1,0,1.7,0.8,1.7,1.7c0,1-0.8,1.7-1.7,1.7c-1,0-1.7-0.8-1.7-1.7
				C884.7,1184.9,885.4,1184.1,886.4,1184.1z"/>
			<path class="st341" d="M647.7,733.3c2.5,0,4.5,2,4.5,4.5c0,2.5-2,4.5-4.5,4.5c-2.5,0-4.5-2-4.5-4.5
				C643.2,735.4,645.2,733.3,647.7,733.3z"/>
			<path class="st342" d="M493.5,46.7c2.6,0,4.6,2.1,4.6,4.6c0,2.6-2.1,4.6-4.6,4.6c-2.6,0-4.6-2.1-4.6-4.6
				C488.9,48.7,491,46.7,493.5,46.7z"/>
			<path class="st343" d="M1944.9,360.7c1.9,0,3.5,1.6,3.5,3.5c0,1.9-1.6,3.5-3.5,3.5c-1.9,0-3.5-1.6-3.5-3.5
				C1941.4,362.2,1942.9,360.7,1944.9,360.7z"/>
			<path class="st344" d="M2204.7,1435.8c1.2,0,2.2,1,2.2,2.2c0,1.2-1,2.2-2.2,2.2c-1.2,0-2.2-1-2.2-2.2
				C2202.4,1436.8,2203.4,1435.8,2204.7,1435.8z"/>
			<path class="st345" d="M1956.2,790.3c1.4,0,2.5,1.1,2.5,2.5c0,1.4-1.1,2.5-2.5,2.5c-1.4,0-2.5-1.1-2.5-2.5
				C1953.7,791.5,1954.8,790.3,1956.2,790.3z"/>
			<path class="st346" d="M1869.1,882.5c0.8,0,1.5,0.7,1.5,1.5c0,0.8-0.7,1.5-1.5,1.5c-0.8,0-1.5-0.7-1.5-1.5
				C1867.6,883.2,1868.3,882.5,1869.1,882.5z"/>
			<path class="st347" d="M2075.4,239.8c1.3,0,2.4,1.1,2.4,2.4c0,1.3-1.1,2.4-2.4,2.4c-1.3,0-2.4-1.1-2.4-2.4
				C2073,240.9,2074,239.8,2075.4,239.8z"/>
			<path class="st348" d="M224.4,325.9c1.3,0,2.4,1.1,2.4,2.4c0,1.3-1.1,2.4-2.4,2.4c-1.3,0-2.4-1.1-2.4-2.4
				C222,327,223.1,325.9,224.4,325.9z"/>
			<path class="st349" d="M330.4,948.4c1.1,0,2,0.9,2,2c0,1.1-0.9,2-2,2c-1.1,0-2-0.9-2-2C328.4,949.3,329.3,948.4,330.4,948.4z"/>
			<path class="st350" d="M395.1,609.2c0.8,0,1.5,0.7,1.5,1.5c0,0.8-0.7,1.5-1.5,1.5c-0.8,0-1.5-0.7-1.5-1.5
				C393.7,609.9,394.3,609.2,395.1,609.2z"/>
			<path class="st351" d="M603.5,461.5c0.9,0,1.7,0.8,1.7,1.7c0,0.9-0.8,1.7-1.7,1.7c-0.9,0-1.7-0.8-1.7-1.7
				C601.8,462.2,602.6,461.5,603.5,461.5z"/>
			<path class="st352" d="M1215.5-151.6c0.8,0,1.5,0.7,1.5,1.5c0,0.8-0.7,1.5-1.5,1.5c-0.8,0-1.5-0.7-1.5-1.5
				C1214-150.9,1214.7-151.6,1215.5-151.6z"/>
			<path class="st353" d="M969.5,337.2c0.8,0,1.5,0.7,1.5,1.5c0,0.8-0.7,1.5-1.5,1.5c-0.8,0-1.5-0.7-1.5-1.5
				C968,337.9,968.7,337.2,969.5,337.2z"/>
			<path class="st354" d="M859.8,742.7c0.8,0,1.4,0.6,1.4,1.4c0,0.8-0.6,1.4-1.4,1.4c-0.8,0-1.4-0.6-1.4-1.4
				C858.4,743.3,859,742.7,859.8,742.7z"/>
			<path class="st355" d="M857.8,931.9c0.9,0,1.6,0.7,1.6,1.6c0,0.9-0.7,1.6-1.6,1.6c-0.9,0-1.6-0.7-1.6-1.6
				C856.2,932.7,856.9,931.9,857.8,931.9z"/>
			<path class="st356" d="M892,1702.6c1.1,0,2.1,0.9,2.1,2.1c0,1.1-0.9,2.1-2.1,2.1c-1.1,0-2.1-0.9-2.1-2.1
				C889.9,1703.5,890.8,1702.6,892,1702.6z"/>
			<circle class="st357" cx="350" cy="662.4" r="4.9"/>
			<path class="st358" d="M1117,258.8c2.1,0,3.8,1.7,3.8,3.8c0,2.1-1.7,3.8-3.8,3.8c-2.1,0-3.8-1.7-3.8-3.8
				C1113.2,260.5,1114.9,258.8,1117,258.8z"/>
			<path class="st359" d="M2644.4,1007.7c1.8,0,3.2,1.4,3.2,3.2c0,1.8-1.4,3.2-3.2,3.2c-1.8,0-3.2-1.4-3.2-3.2
				C2641.2,1009.1,2642.6,1007.7,2644.4,1007.7z"/>
			<path class="st360" d="M2452,1445.4c1.4,0,2.5,1.1,2.5,2.5c0,1.4-1.1,2.5-2.5,2.5c-1.4,0-2.5-1.1-2.5-2.5
				C2449.5,1446.5,2450.6,1445.4,2452,1445.4z"/>
			<path class="st361" d="M2037.1,809.7c1.3,0,2.3,1,2.3,2.3c0,1.3-1,2.3-2.3,2.3c-1.3,0-2.3-1-2.3-2.3
				C2034.8,810.8,2035.8,809.7,2037.1,809.7z"/>
			<path class="st362" d="M2102.3,592c1.2,0,2.2,1,2.2,2.2c0,1.2-1,2.2-2.2,2.2c-1.2,0-2.2-1-2.2-2.2
				C2100.1,593,2101.1,592,2102.3,592z"/>
			<path class="st363" d="M2433,776.4c1.1,0,1.9,0.9,1.9,1.9c0,1.1-0.9,1.9-1.9,1.9c-1.1,0-1.9-0.9-1.9-1.9
				C2431,777.3,2431.9,776.4,2433,776.4z"/>
			<path class="st364" d="M-96.5-161.5c1.4,0,2.5,1.1,2.5,2.5c0,1.4-1.1,2.5-2.5,2.5c-1.4,0-2.5-1.1-2.5-2.5
				C-99.1-160.4-97.9-161.5-96.5-161.5z"/>
			<path class="st365" d="M249.1,1041.9c1.2,0,2.2,1,2.2,2.2c0,1.2-1,2.2-2.2,2.2c-1.2,0-2.2-1-2.2-2.2
				C246.8,1042.9,247.8,1041.9,249.1,1041.9z"/>
			<path class="st366" d="M526.8,427.5c0.9,0,1.5,0.7,1.5,1.5c0,0.9-0.7,1.5-1.5,1.5s-1.5-0.7-1.5-1.5
				C525.3,428.2,525.9,427.5,526.8,427.5z"/>
			<path class="st367" d="M858.9-219.2c0.8,0,1.4,0.6,1.4,1.4c0,0.8-0.6,1.4-1.4,1.4c-0.8,0-1.4-0.6-1.4-1.4
				C857.4-218.6,858.1-219.2,858.9-219.2z"/>
			<path class="st368" d="M901.2,354.9c0.8,0,1.5,0.7,1.5,1.5c0,0.8-0.7,1.5-1.5,1.5c-0.8,0-1.5-0.7-1.5-1.5
				C899.6,355.5,900.3,354.9,901.2,354.9z"/>
			<path class="st369" d="M1218,14.2c0.7,0,1.3,0.6,1.3,1.3c0,0.7-0.6,1.3-1.3,1.3c-0.7,0-1.3-0.6-1.3-1.3
				C1216.7,14.8,1217.3,14.2,1218,14.2z"/>
			<path class="st370" d="M993.4,219.1c0.7,0,1.2,0.6,1.2,1.2c0,0.7-0.6,1.2-1.2,1.2c-0.7,0-1.2-0.6-1.2-1.2
				C992.2,219.7,992.8,219.1,993.4,219.1z"/>
			<path class="st371" d="M916.7,1448c1.3,0,2.3,1,2.3,2.3c0,1.3-1,2.3-2.3,2.3c-1.3,0-2.3-1-2.3-2.3
				C914.4,1449,915.5,1448,916.7,1448z"/>
			<path class="st372" d="M29,405.7c2.8,0,5.1,2.3,5.1,5.1c0,2.8-2.3,5.1-5.1,5.1s-5.1-2.3-5.1-5.1C23.8,408,26.1,405.7,29,405.7z"
				/>
			<path class="st373" d="M2582.2,204.6c2.2,0,4,1.8,4,4c0,2.2-1.8,4-4,4c-2.2,0-4-1.8-4-4C2578.2,206.4,2580,204.6,2582.2,204.6z"
				/>
			<path class="st374" d="M1610.7,274.4c1.9,0,3.4,1.5,3.4,3.4c0,1.9-1.5,3.4-3.4,3.4c-1.9,0-3.4-1.5-3.4-3.4
				C1607.3,275.9,1608.8,274.4,1610.7,274.4z"/>
			<path class="st375" d="M2040.4,791.9c1.3,0,2.4,1.1,2.4,2.4c0,1.3-1.1,2.4-2.4,2.4c-1.3,0-2.4-1.1-2.4-2.4
				C2038,793,2039.1,791.9,2040.4,791.9z"/>
			<path class="st376" d="M1792.2,1148c0.9,0,1.6,0.7,1.6,1.6c0,0.9-0.7,1.6-1.6,1.6c-0.9,0-1.6-0.7-1.6-1.6
				C1790.5,1148.7,1791.3,1148,1792.2,1148z"/>
			<path class="st377" d="M2405,885.5c1,0,1.8,0.8,1.8,1.8c0,1-0.8,1.8-1.8,1.8c-1,0-1.8-0.8-1.8-1.8
				C2403.2,886.3,2404,885.5,2405,885.5z"/>
			<path class="st378" d="M324.7,1208.3c0.9,0,1.6,0.7,1.6,1.6c0,0.9-0.7,1.6-1.6,1.6c-0.9,0-1.6-0.7-1.6-1.6
				C323,1209,323.8,1208.3,324.7,1208.3z"/>
			<path class="st379" d="M500,370.3c0.8,0,1.4,0.6,1.4,1.4c0,0.8-0.6,1.4-1.4,1.4c-0.8,0-1.4-0.6-1.4-1.4
				C498.6,370.9,499.2,370.3,500,370.3z"/>
			<path class="st380" d="M555.6,531.3c0.9,0,1.6,0.7,1.6,1.6c0,0.9-0.7,1.6-1.6,1.6c-0.9,0-1.6-0.7-1.6-1.6
				C554,532,554.7,531.3,555.6,531.3z"/>
			<path class="st381" d="M800.9,354.9c0.9,0,1.5,0.7,1.5,1.5c0,0.9-0.7,1.5-1.5,1.5c-0.9,0-1.5-0.7-1.5-1.5
				C799.3,355.6,800,354.9,800.9,354.9z"/>
			<path class="st382" d="M1199.6,13.9c0.7,0,1.3,0.6,1.3,1.3c0,0.7-0.6,1.3-1.3,1.3s-1.3-0.6-1.3-1.3
				C1198.3,14.5,1198.9,13.9,1199.6,13.9z"/>
			<path class="st383" d="M855.1,656.6c0.8,0,1.5,0.7,1.5,1.5c0,0.8-0.7,1.5-1.5,1.5c-0.8,0-1.5-0.7-1.5-1.5
				C853.6,657.3,854.3,656.6,855.1,656.6z"/>
			<path class="st384" d="M781.3,1377.8c0.9,0,1.6,0.7,1.6,1.6c0,0.9-0.7,1.6-1.6,1.6c-0.9,0-1.6-0.7-1.6-1.6
				C779.7,1378.5,780.4,1377.8,781.3,1377.8z"/>
			<path class="st385" d="M599.2,36c2.3,0,4.2,1.9,4.2,4.2s-1.9,4.2-4.2,4.2s-4.2-1.9-4.2-4.2S596.9,36,599.2,36z"/>
			<path class="st386" d="M3198.1-56.8c2.6,0,4.6,2.1,4.6,4.6c0,2.6-2.1,4.6-4.6,4.6c-2.6,0-4.6-2.1-4.6-4.6
				C3193.4-54.8,3195.5-56.8,3198.1-56.8z"/>
			<path class="st387" d="M2630,1359.2c1.4,0,2.6,1.2,2.6,2.6c0,1.4-1.2,2.6-2.6,2.6c-1.4,0-2.6-1.2-2.6-2.6
				C2627.5,1360.4,2628.6,1359.2,2630,1359.2z"/>
			<path class="st388" d="M2175.5,1240.5c1.2,0,2.1,1,2.1,2.1c0,1.2-1,2.1-2.1,2.1s-2.1-1-2.1-2.1
				C2173.4,1241.5,2174.3,1240.5,2175.5,1240.5z"/>
			<path class="st389" d="M1947.5,1114.6c1,0,1.8,0.8,1.8,1.8s-0.8,1.8-1.8,1.8s-1.8-0.8-1.8-1.8S1946.5,1114.6,1947.5,1114.6z"/>
			<circle class="st390" cx="2509.5" cy="778" r="2"/>
			<path class="st391" d="M2986.3,113.1c1.5,0,2.8,1.2,2.8,2.8c0,1.5-1.2,2.8-2.8,2.8s-2.8-1.2-2.8-2.8
				C2983.5,114.3,2984.7,113.1,2986.3,113.1z"/>
			<path class="st392" d="M131.7,805c1.4,0,2.5,1.1,2.5,2.5c0,1.4-1.1,2.5-2.5,2.5c-1.4,0-2.5-1.1-2.5-2.5
				C129.2,806.1,130.3,805,131.7,805z"/>
			<path class="st26" d="M323.5,1336.2c1.1,0,2,0.9,2,2c0,1.1-0.9,2-2,2c-1.1,0-2-0.9-2-2C321.6,1337.1,322.4,1336.2,323.5,1336.2z"
				/>
			<path class="st393" d="M403.5,924.7c1,0,1.9,0.8,1.9,1.9c0,1-0.8,1.9-1.9,1.9c-1,0-1.9-0.8-1.9-1.9
				C401.7,925.5,402.5,924.7,403.5,924.7z"/>
			<path class="st394" d="M675.8,459.2c0.9,0,1.6,0.7,1.6,1.6c0,0.9-0.7,1.6-1.6,1.6c-0.9,0-1.6-0.7-1.6-1.6
				C674.2,459.9,674.9,459.2,675.8,459.2z"/>
			<path class="st395" d="M918.9,206.8c0.8,0,1.4,0.6,1.4,1.4c0,0.8-0.6,1.4-1.4,1.4c-0.8,0-1.4-0.6-1.4-1.4
				C917.5,207.4,918.1,206.8,918.9,206.8z"/>
			<path class="st396" d="M896.4,330.5c0.8,0,1.4,0.6,1.4,1.4s-0.6,1.4-1.4,1.4c-0.8,0-1.4-0.6-1.4-1.4S895.7,330.5,896.4,330.5z"/>
			<path class="st397" d="M771.9,915.7c0.8,0,1.4,0.6,1.4,1.4c0,0.8-0.6,1.4-1.4,1.4c-0.8,0-1.4-0.6-1.4-1.4
				C770.5,916.4,771.1,915.7,771.9,915.7z"/>
			<path class="st398" d="M807.2,1885.5c1.1,0,2,0.9,2,2c0,1.1-0.9,2-2,2c-1.1,0-2-0.9-2-2C805.2,1886.4,806.1,1885.5,807.2,1885.5z
				"/>
			<path class="st399" d="M855.5,1210.1c1.7,0,3.1,1.4,3.1,3.1c0,1.7-1.4,3.1-3.1,3.1c-1.7,0-3.1-1.4-3.1-3.1
				C852.4,1211.5,853.8,1210.1,855.5,1210.1z"/>
			<path class="st400" d="M855.1-139.9c2.2,0,4,1.8,4,4s-1.8,4-4,4c-2.2,0-4-1.8-4-4S852.9-139.9,855.1-139.9z"/>
			<path class="st401" d="M2075.1,1213.8c1,0,1.9,0.8,1.9,1.9c0,1-0.8,1.9-1.9,1.9c-1,0-1.9-0.8-1.9-1.9
				C2073.2,1214.7,2074.1,1213.8,2075.1,1213.8z"/>
			<path class="st402" d="M1887.4,1171.2c0.9,0,1.6,0.7,1.6,1.6c0,0.9-0.7,1.6-1.6,1.6c-0.9,0-1.6-0.7-1.6-1.6
				C1885.7,1171.9,1886.5,1171.2,1887.4,1171.2z"/>
			<path class="st403" d="M2060.1,456.1c1.4,0,2.5,1.1,2.5,2.5c0,1.4-1.1,2.5-2.5,2.5c-1.4,0-2.5-1.1-2.5-2.5
				C2057.6,457.2,2058.7,456.1,2060.1,456.1z"/>
			<path class="st404" d="M377.3,905.1c1.2,0,2.2,1,2.2,2.2c0,1.2-1,2.2-2.2,2.2c-1.2,0-2.2-1-2.2-2.2
				C375.1,906.1,376.1,905.1,377.3,905.1z"/>
			<path class="st405" d="M548.8,459.4c0.8,0,1.5,0.7,1.5,1.5c0,0.8-0.7,1.5-1.5,1.5c-0.8,0-1.5-0.7-1.5-1.5
				C547.3,460.1,548,459.4,548.8,459.4z"/>
			<path class="st406" d="M687.2,245.3c0.8,0,1.4,0.6,1.4,1.4c0,0.8-0.6,1.4-1.4,1.4c-0.8,0-1.4-0.6-1.4-1.4
				C685.8,246,686.4,245.3,687.2,245.3z"/>
			<path class="st407" d="M950.6,188c0.8,0,1.4,0.6,1.4,1.4c0,0.8-0.6,1.4-1.4,1.4c-0.8,0-1.4-0.6-1.4-1.4
				C949.2,188.6,949.8,188,950.6,188z"/>
			<path class="st408" d="M825.7,532.3c0.8,0,1.5,0.7,1.5,1.5c0,0.8-0.7,1.5-1.5,1.5c-0.8,0-1.5-0.7-1.5-1.5
				C824.2,533,824.9,532.3,825.7,532.3z"/>
			<path class="st409" d="M792.5,1281.2c1,0,1.8,0.8,1.8,1.8c0,1-0.8,1.8-1.8,1.8c-1,0-1.8-0.8-1.8-1.8
				C790.7,1282.1,791.5,1281.2,792.5,1281.2z"/>
			<path class="st410" d="M781,1417.3c1,0,1.8,0.8,1.8,1.8c0,1-0.8,1.8-1.8,1.8c-1,0-1.8-0.8-1.8-1.8
				C779.2,1418.1,780,1417.3,781,1417.3z"/>
			<path class="st411" d="M775.6,1343.3c1.9,0,3.4,1.5,3.4,3.4c0,1.9-1.5,3.4-3.4,3.4c-1.9,0-3.4-1.5-3.4-3.4
				C772.2,1344.8,773.7,1343.3,775.6,1343.3z"/>
			<circle class="st412" cx="2043.8" cy="1189.1" r="1.8"/>
			<path class="st413" d="M1879.9,1080c0.8,0,1.5,0.7,1.5,1.5c0,0.8-0.7,1.5-1.5,1.5c-0.8,0-1.5-0.7-1.5-1.5
				C1878.4,1080.7,1879.1,1080,1879.9,1080z"/>
			<path class="st414" d="M2286.7,326.8c1.4,0,2.6,1.2,2.6,2.6c0,1.4-1.2,2.6-2.6,2.6c-1.4,0-2.6-1.2-2.6-2.6
				C2284.1,328,2285.3,326.8,2286.7,326.8z"/>
			<path class="st415" d="M2811.7-212.2c1.7,0,3.1,1.4,3.1,3.1c0,1.7-1.4,3.1-3.1,3.1c-1.7,0-3.1-1.4-3.1-3.1
				C2808.6-210.8,2810-212.2,2811.7-212.2z"/>
			<path class="st416" d="M187.4,1741.9c1.6,0,2.8,1.3,2.8,2.8c0,1.6-1.3,2.8-2.8,2.8c-1.6,0-2.8-1.3-2.8-2.8
				C184.6,1743.2,185.8,1741.9,187.4,1741.9z"/>
			<path class="st417" d="M450.9,852.7c0.9,0,1.6,0.7,1.6,1.6c0,0.9-0.7,1.6-1.6,1.6c-0.9,0-1.6-0.7-1.6-1.6
				C449.3,853.4,450,852.7,450.9,852.7z"/>
			<path class="st418" d="M719.7,383.9c0.8,0,1.5,0.7,1.5,1.5c0,0.8-0.7,1.5-1.5,1.5c-0.8,0-1.5-0.7-1.5-1.5
				C718.3,384.5,718.9,383.9,719.7,383.9z"/>
			<path class="st419" d="M1088.1-112.7c0.8,0,1.4,0.6,1.4,1.4c0,0.8-0.6,1.4-1.4,1.4c-0.8,0-1.4-0.6-1.4-1.4
				C1086.7-112.1,1087.3-112.7,1088.1-112.7z"/>
			<path class="st420" d="M858.1,380.9c0.7,0,1.3,0.6,1.3,1.3c0,0.7-0.6,1.3-1.3,1.3c-0.7,0-1.3-0.6-1.3-1.3
				C856.8,381.5,857.4,380.9,858.1,380.9z"/>
			<circle class="st302" cx="718.3" cy="995.8" r="1.5"/>
			<path class="st421" d="M842,1798.5c1.5,0,2.7,1.2,2.7,2.7c0,1.5-1.2,2.7-2.7,2.7c-1.5,0-2.7-1.2-2.7-2.7
				C839.3,1799.7,840.5,1798.5,842,1798.5z"/>
			<path class="st422" d="M1031.2-77.7c2,0,3.7,1.7,3.7,3.7c0,2-1.7,3.7-3.7,3.7s-3.7-1.7-3.7-3.7
				C1027.6-76.1,1029.2-77.7,1031.2-77.7z"/>
			<path class="st423" d="M2794.9,821.3c1.7,0,3.1,1.4,3.1,3.1c0,1.7-1.4,3.1-3.1,3.1c-1.7,0-3.1-1.4-3.1-3.1
				C2791.8,822.7,2793.2,821.3,2794.9,821.3z"/>
			<path class="st424" d="M1883.6,1154.4c0.8,0,1.5,0.7,1.5,1.5c0,0.8-0.7,1.5-1.5,1.5s-1.5-0.7-1.5-1.5
				C1882.1,1155.1,1882.7,1154.4,1883.6,1154.4z"/>
			<path class="st425" d="M2395.3,934c1.2,0,2.1,0.9,2.1,2.1c0,1.2-0.9,2.1-2.1,2.1c-1.2,0-2.1-0.9-2.1-2.1
				C2393.2,934.9,2394.2,934,2395.3,934z"/>
			<path class="st426" d="M369.1,1045.9c0.8,0,1.5,0.7,1.5,1.5c0,0.8-0.7,1.5-1.5,1.5c-0.8,0-1.5-0.7-1.5-1.5
				C367.6,1046.6,368.3,1045.9,369.1,1045.9z"/>
			<path class="st427" d="M430.9,755.7c0.8,0,1.4,0.6,1.4,1.4s-0.6,1.4-1.4,1.4s-1.4-0.6-1.4-1.4S430.1,755.7,430.9,755.7z"/>
			<path class="st428" d="M1113.6-219c0.8,0,1.4,0.6,1.4,1.4c0,0.8-0.6,1.4-1.4,1.4c-0.8,0-1.4-0.6-1.4-1.4
				C1112.2-218.4,1112.8-219,1113.6-219z"/>
			<path class="st429" d="M1108.9-90.1c0.7,0,1.3,0.6,1.3,1.3s-0.6,1.3-1.3,1.3s-1.3-0.6-1.3-1.3S1108.2-90.1,1108.9-90.1z"/>
			<path class="st430" d="M745.1,741.1c0.8,0,1.5,0.7,1.5,1.5c0,0.8-0.7,1.5-1.5,1.5c-0.8,0-1.5-0.7-1.5-1.5
				C743.6,741.8,744.2,741.1,745.1,741.1z"/>
			<path class="st431" d="M741.7,982.2c0.9,0,1.6,0.7,1.6,1.6c0,0.9-0.7,1.6-1.6,1.6c-0.9,0-1.6-0.7-1.6-1.6
				C740.1,983,740.8,982.2,741.7,982.2z"/>
			<path class="st432" d="M750.3,1684.6c1.9,0,3.4,1.5,3.4,3.4c0,1.9-1.5,3.4-3.4,3.4c-1.9,0-3.4-1.5-3.4-3.4
				C746.9,1686.1,748.4,1684.6,750.3,1684.6z"/>
			<path class="st433" d="M436.1,307.2c2.2,0,3.9,1.7,3.9,3.9c0,2.2-1.7,3.9-3.9,3.9c-2.2,0-3.9-1.7-3.9-3.9
				C432.2,309,433.9,307.2,436.1,307.2z"/>
			<path class="st434" d="M2365.9-219.5c2.2,0,3.9,1.8,3.9,3.9c0,2.2-1.8,3.9-3.9,3.9c-2.2,0-3.9-1.8-3.9-3.9
				C2361.9-217.8,2363.7-219.5,2365.9-219.5z"/>
			<path class="st435" d="M2402.7,450.9c1.6,0,2.9,1.3,2.9,2.9c0,1.6-1.3,2.9-2.9,2.9s-2.9-1.3-2.9-2.9
				C2399.8,452.2,2401.1,450.9,2402.7,450.9z"/>
			<path class="st436" d="M2345.6,1009.6c1.1,0,2.1,0.9,2.1,2.1c0,1.1-0.9,2.1-2.1,2.1c-1.1,0-2.1-0.9-2.1-2.1
				C2343.5,1010.5,2344.5,1009.6,2345.6,1009.6z"/>
			<path class="st437" d="M388,1072.3c1.3,0,2.3,1,2.3,2.3c0,1.3-1,2.3-2.3,2.3c-1.3,0-2.3-1-2.3-2.3
				C385.7,1073.3,386.7,1072.3,388,1072.3z"/>
			<path class="st438" d="M429.7,1153.4c1,0,1.8,0.8,1.8,1.8c0,1-0.8,1.8-1.8,1.8c-1,0-1.8-0.8-1.8-1.8
				C427.9,1154.2,428.8,1153.4,429.7,1153.4z"/>
			<path class="st439" d="M762.3,450.6c0.8,0,1.4,0.6,1.4,1.4c0,0.8-0.6,1.4-1.4,1.4c-0.8,0-1.4-0.6-1.4-1.4
				C760.9,451.2,761.5,450.6,762.3,450.6z"/>
			<path class="st66" d="M708.5,831.6c0.8,0,1.5,0.7,1.5,1.5c0,0.8-0.7,1.5-1.5,1.5c-0.8,0-1.5-0.7-1.5-1.5
				C707,832.3,707.7,831.6,708.5,831.6z"/>
			<path class="st440" d="M623.1,1206.6c0.8,0,1.4,0.6,1.4,1.4s-0.6,1.4-1.4,1.4s-1.4-0.6-1.4-1.4S622.3,1206.6,623.1,1206.6z"/>
			<path class="st441" d="M2311.1-50.4c2,0,3.6,1.6,3.6,3.6c0,2-1.6,3.6-3.6,3.6c-2,0-3.6-1.6-3.6-3.6
				C2307.5-48.8,2309.1-50.4,2311.1-50.4z"/>
			<path class="st442" d="M2527.7,250.1c1.6,0,3,1.3,3,3c0,1.6-1.3,3-3,3s-3-1.3-3-3C2524.7,251.4,2526.1,250.1,2527.7,250.1z"/>
			<path class="st443" d="M2849.4,632c1.4,0,2.5,1.1,2.5,2.5c0,1.4-1.1,2.5-2.5,2.5c-1.4,0-2.5-1.1-2.5-2.5
				C2846.9,633.2,2848,632,2849.4,632z"/>
			<circle class="st444" cx="288.1" cy="-247.6" r="2.8"/>
			<path class="st445" d="M386.9,1691.6c1.1,0,2.1,0.9,2.1,2.1c0,1.1-0.9,2.1-2.1,2.1c-1.1,0-2.1-0.9-2.1-2.1
				C384.8,1692.6,385.7,1691.6,386.9,1691.6z"/>
			<path class="st97" d="M531.5,615.1c0.8,0,1.4,0.6,1.4,1.4c0,0.8-0.6,1.4-1.4,1.4c-0.8,0-1.4-0.6-1.4-1.4
				C530.1,615.7,530.7,615.1,531.5,615.1z"/>
			<path class="st446" d="M608,498.1c0.8,0,1.4,0.6,1.4,1.4c0,0.8-0.6,1.4-1.4,1.4c-0.8,0-1.4-0.6-1.4-1.4
				C606.6,498.8,607.2,498.1,608,498.1z"/>
			<path class="st447" d="M703.2,668.3c0.8,0,1.4,0.6,1.4,1.4c0,0.8-0.6,1.4-1.4,1.4c-0.8,0-1.4-0.6-1.4-1.4
				C701.7,669,702.4,668.3,703.2,668.3z"/>
			<path class="st448" d="M727.6,1173.6c1,0,1.9,0.8,1.9,1.9c0,1-0.8,1.9-1.9,1.9c-1,0-1.9-0.8-1.9-1.9
				C725.7,1174.5,726.5,1173.6,727.6,1173.6z"/>
			<path class="st449" d="M776.1,1615.5c1.5,0,2.7,1.2,2.7,2.7c0,1.5-1.2,2.7-2.7,2.7c-1.5,0-2.7-1.2-2.7-2.7
				C773.3,1616.7,774.6,1615.5,776.1,1615.5z"/>
			<path class="st450" d="M3313.3,557.1c2,0,3.7,1.6,3.7,3.7c0,2-1.6,3.7-3.7,3.7s-3.7-1.6-3.7-3.7
				C3309.7,558.7,3311.3,557.1,3313.3,557.1z"/>
			<path class="st451" d="M2415.7,1215c1,0,1.9,0.8,1.9,1.9c0,1-0.8,1.9-1.9,1.9c-1,0-1.9-0.8-1.9-1.9
				C2413.8,1215.8,2414.6,1215,2415.7,1215z"/>
			<path class="st452" d="M2523.5,1096.2c1.1,0,2,0.9,2,2c0,1.1-0.9,2-2,2c-1.1,0-2-0.9-2-2
				C2521.5,1097.1,2522.4,1096.2,2523.5,1096.2z"/>
			<path class="st115" d="M2.7,147.4c1.5,0,2.8,1.3,2.8,2.8c0,1.5-1.3,2.8-2.8,2.8c-1.5,0-2.8-1.3-2.8-2.8
				C-0.1,148.6,1.1,147.4,2.7,147.4z"/>
			<path class="st453" d="M366.9,1336.5c1.3,0,2.4,1.1,2.4,2.4s-1.1,2.4-2.4,2.4c-1.3,0-2.4-1.1-2.4-2.4S365.6,1336.5,366.9,1336.5z
				"/>
			<path class="st454" d="M547.6,744.9c0.8,0,1.5,0.7,1.5,1.5s-0.7,1.5-1.5,1.5c-0.8,0-1.5-0.7-1.5-1.5S546.8,744.9,547.6,744.9z"/>
			<path class="st99" d="M670,723.9c0.8,0,1.4,0.6,1.4,1.4c0,0.8-0.6,1.4-1.4,1.4c-0.8,0-1.4-0.6-1.4-1.4
				C668.6,724.6,669.3,723.9,670,723.9z"/>
			<path class="st455" d="M647.2,859.1c0.8,0,1.4,0.6,1.4,1.4c0,0.8-0.6,1.4-1.4,1.4c-0.8,0-1.4-0.6-1.4-1.4
				C645.7,859.7,646.4,859.1,647.2,859.1z"/>
			<path class="st456" d="M767.7,2096.6c1.4,0,2.5,1.1,2.5,2.5c0,1.4-1.1,2.5-2.5,2.5c-1.4,0-2.5-1.1-2.5-2.5
				C765.1,2097.8,766.3,2096.6,767.7,2096.6z"/>
			<path class="st457" d="M3331.3,374.3c2.1,0,3.8,1.7,3.8,3.8c0,2.1-1.7,3.8-3.8,3.8c-2.1,0-3.8-1.7-3.8-3.8
				C3327.5,376,3329.2,374.3,3331.3,374.3z"/>
			<path class="st458" d="M1903.5-141.1c1.8,0,3.2,1.5,3.2,3.2c0,1.8-1.5,3.2-3.2,3.2s-3.2-1.5-3.2-3.2
				C1900.2-139.7,1901.7-141.1,1903.5-141.1z"/>
			<path class="st459" d="M2670.3,64.3c1.8,0,3.2,1.4,3.2,3.2c0,1.8-1.4,3.2-3.2,3.2s-3.2-1.4-3.2-3.2
				C2667.1,65.7,2668.5,64.3,2670.3,64.3z"/>
			<path class="st460" d="M128.6-44.1c1.6,0,2.9,1.3,2.9,2.9c0,1.6-1.3,2.9-2.9,2.9c-1.6,0-2.9-1.3-2.9-2.9
				C125.8-42.8,127.1-44.1,128.6-44.1z"/>
			<path class="st461" d="M336.4,1204.1c1.4,0,2.6,1.2,2.6,2.6c0,1.4-1.2,2.6-2.6,2.6c-1.4,0-2.6-1.2-2.6-2.6
				C333.9,1205.2,335,1204.1,336.4,1204.1z"/>
			<path class="st462" d="M408.1,1322.6c0.9,0,1.6,0.7,1.6,1.6c0,0.9-0.7,1.6-1.6,1.6c-0.9,0-1.6-0.7-1.6-1.6
				C406.5,1323.4,407.2,1322.6,408.1,1322.6z"/>
			<path class="st463" d="M670.3,181.8c0.7,0,1.3,0.6,1.3,1.3c0,0.7-0.6,1.3-1.3,1.3c-0.7,0-1.3-0.6-1.3-1.3
				C669.1,182.4,669.6,181.8,670.3,181.8z"/>
			<path class="st464" d="M762.6,250.8c0.7,0,1.2,0.5,1.2,1.2c0,0.7-0.5,1.2-1.2,1.2c-0.7,0-1.2-0.5-1.2-1.2
				C761.4,251.4,762,250.8,762.6,250.8z"/>
			<path class="st465" d="M618.4,774.2c0.7,0,1.3,0.6,1.3,1.3c0,0.7-0.6,1.3-1.3,1.3s-1.3-0.6-1.3-1.3
				C617.1,774.8,617.7,774.2,618.4,774.2z"/>
			<path class="st466" d="M131.3,1.2c2.1,0,3.9,1.7,3.9,3.9c0,2.1-1.7,3.9-3.9,3.9s-3.9-1.7-3.9-3.9C127.5,2.9,129.2,1.2,131.3,1.2z
				"/>
			<path class="st467" d="M2634.3-1.8c1.9,0,3.5,1.6,3.5,3.5c0,1.9-1.6,3.5-3.5,3.5c-1.9,0-3.5-1.6-3.5-3.5
				C2630.8-0.2,2632.4-1.8,2634.3-1.8z"/>
			<path class="st468" d="M2943.9,732.8c1.6,0,2.9,1.3,2.9,2.9c0,1.6-1.3,2.9-2.9,2.9s-2.9-1.3-2.9-2.9
				C2941.1,734.1,2942.4,732.8,2943.9,732.8z"/>
			<path class="st469" d="M431.9,1371.8c1,0,1.7,0.8,1.7,1.7c0,1-0.8,1.7-1.7,1.7c-1,0-1.7-0.8-1.7-1.7
				C430.1,1372.6,430.9,1371.8,431.9,1371.8z"/>
			<path class="st470" d="M722.1,158.8c0.7,0,1.2,0.6,1.2,1.2c0,0.7-0.6,1.2-1.2,1.2c-0.7,0-1.2-0.6-1.2-1.2
				C720.9,159.3,721.4,158.8,722.1,158.8z"/>
			<path class="st471" d="M674.5,1138.1c1,0,1.9,0.8,1.9,1.9s-0.8,1.9-1.9,1.9c-1,0-1.9-0.8-1.9-1.9S673.5,1138.1,674.5,1138.1z"/>
			<path class="st472" d="M659.4,1385.1c1.1,0,1.9,0.9,1.9,1.9s-0.9,1.9-1.9,1.9c-1.1,0-1.9-0.9-1.9-1.9S658.3,1385.1,659.4,1385.1z
				"/>
			<path class="st473" d="M436.2,1969.4c1.3,0,2.3,1,2.3,2.3c0,1.3-1,2.3-2.3,2.3c-1.3,0-2.3-1-2.3-2.3
				C433.9,1970.4,434.9,1969.4,436.2,1969.4z"/>
			<path class="st474" d="M666,375.5c0.7,0,1.3,0.6,1.3,1.3c0,0.7-0.6,1.3-1.3,1.3c-0.7,0-1.3-0.6-1.3-1.3
				C664.7,376.1,665.3,375.5,666,375.5z"/>
			<path class="st475" d="M612.8,755.7c0.7,0,1.4,0.6,1.4,1.4c0,0.7-0.6,1.4-1.4,1.4c-0.7,0-1.4-0.6-1.4-1.4
				C611.4,756.3,612,755.7,612.8,755.7z"/>
			<path class="st476" d="M650.4,1418c1.1,0,2,0.9,2,2c0,1.1-0.9,2-2,2c-1.1,0-2-0.9-2-2C648.4,1418.9,649.3,1418,650.4,1418z"/>
			<path class="st477" d="M3304.3-213.4c2.1,0,3.7,1.7,3.7,3.7s-1.7,3.7-3.7,3.7c-2.1,0-3.7-1.7-3.7-3.7S3302.3-213.4,3304.3-213.4z
				"/>
			<path class="st478" d="M185.3,1357.9c1.7,0,3.1,1.4,3.1,3.1c0,1.7-1.4,3.1-3.1,3.1c-1.7,0-3.1-1.4-3.1-3.1
				C182.3,1359.3,183.6,1357.9,185.3,1357.9z"/>
			<circle class="st479" cx="577.9" cy="983.6" r="1.6"/>
			<path class="st480" d="M620.7,1131.5c1,0,1.7,0.8,1.7,1.7c0,1-0.8,1.7-1.7,1.7c-1,0-1.7-0.8-1.7-1.7
				C619,1132.3,619.8,1131.5,620.7,1131.5z"/>
			<circle class="st481" cx="661.8" cy="1898.2" r="3.1"/>
			<path class="st482" d="M3213.7-234.3c2.1,0,3.8,1.7,3.8,3.8s-1.7,3.8-3.8,3.8s-3.8-1.7-3.8-3.8S3211.6-234.3,3213.7-234.3z"/>
			<path class="st483" d="M352.7,1890.5c1.6,0,2.9,1.3,2.9,2.9s-1.3,2.9-2.9,2.9c-1.6,0-2.9-1.3-2.9-2.9S351.1,1890.5,352.7,1890.5z
				"/>
			<path class="st484" d="M520.1,1301.5c1,0,1.9,0.8,1.9,1.9s-0.8,1.9-1.9,1.9c-1,0-1.9-0.8-1.9-1.9S519.1,1301.5,520.1,1301.5z"/>
			<path class="st485" d="M621.3,1186.3c1.1,0,1.9,0.9,1.9,1.9c0,1.1-0.9,1.9-1.9,1.9c-1.1,0-1.9-0.9-1.9-1.9
				C619.3,1187.1,620.2,1186.3,621.3,1186.3z"/>
			<path class="st486" d="M595,1661.7c1,0,1.9,0.8,1.9,1.9c0,1-0.8,1.9-1.9,1.9c-1,0-1.9-0.8-1.9-1.9
				C593.1,1662.5,593.9,1661.7,595,1661.7z"/>
			<path class="st487" d="M124.3,480.3c1.6,0,2.9,1.3,2.9,2.9c0,1.6-1.3,2.9-2.9,2.9c-1.6,0-2.9-1.3-2.9-2.9
				C121.5,481.6,122.7,480.3,124.3,480.3z"/>
			
				<ellipse transform="matrix(0.1978 -0.9802 0.9802 0.1978 -1144.9813 1724.1753)" class="st488" cx="480.9" cy="1561.6" rx="2" ry="2"/>
			<path class="st489" d="M551.3,1090.1c0.9,0,1.5,0.7,1.5,1.5c0,0.9-0.7,1.5-1.5,1.5c-0.9,0-1.5-0.7-1.5-1.5
				C549.8,1090.8,550.5,1090.1,551.3,1090.1z"/>
			<path class="st490" d="M580,1298.7c1,0,1.8,0.8,1.8,1.8c0,1-0.8,1.8-1.8,1.8c-1,0-1.8-0.8-1.8-1.8
				C578.2,1299.5,579,1298.7,580,1298.7z"/>
			<path class="st491" d="M-36.4,948.2c2.3,0,4.2,1.9,4.2,4.2c0,2.3-1.9,4.2-4.2,4.2c-2.3,0-4.2-1.9-4.2-4.2
				C-40.6,950.1-38.7,948.2-36.4,948.2z"/>
			<path class="st492" d="M-34.9,88.6c2.1,0,3.8,1.7,3.8,3.8c0,2.1-1.7,3.8-3.8,3.8s-3.8-1.7-3.8-3.8C-38.7,90.3-37,88.6-34.9,88.6z
				"/>
			<path class="st493" d="M-34.3-189c1.7,0,3.1,1.4,3.1,3.1c0,1.7-1.4,3.1-3.1,3.1c-1.7,0-3.1-1.4-3.1-3.1
				C-37.3-187.6-36-189-34.3-189z"/>
			<path class="st494" d="M417,1291.5c1.4,0,2.6,1.2,2.6,2.6c0,1.4-1.2,2.6-2.6,2.6c-1.4,0-2.6-1.2-2.6-2.6
				C414.4,1292.6,415.6,1291.5,417,1291.5z"/>
			<path class="st495" d="M515.4,1092.1c0.8,0,1.5,0.7,1.5,1.5c0,0.8-0.7,1.5-1.5,1.5c-0.8,0-1.5-0.7-1.5-1.5
				C514,1092.8,514.6,1092.1,515.4,1092.1z"/>
			<path class="st496" d="M598.7,1374.8c1.1,0,2,0.9,2,2c0,1.1-0.9,2-2,2s-2-0.9-2-2C596.6,1375.7,597.5,1374.8,598.7,1374.8z"/>
			<path class="st497" d="M92.3,382.5c2,0,3.7,1.7,3.7,3.7c0,2-1.7,3.7-3.7,3.7c-2,0-3.7-1.7-3.7-3.7
				C88.6,384.1,90.3,382.5,92.3,382.5z"/>
			<path class="st498" d="M509.5,1378.9c1.3,0,2.4,1.1,2.4,2.4s-1.1,2.4-2.4,2.4c-1.3,0-2.4-1.1-2.4-2.4S508.2,1378.9,509.5,1378.9z
				"/>
			<path class="st499" d="M610.1,56.6c1.8,0,3.2,1.4,3.2,3.2c0,1.8-1.4,3.2-3.2,3.2c-1.8,0-3.2-1.4-3.2-3.2
				C606.9,58,608.3,56.6,610.1,56.6z"/>
			<path class="st500" d="M283.3,960.4c1.6,0,2.9,1.3,2.9,2.9c0,1.6-1.3,2.9-2.9,2.9c-1.6,0-2.9-1.3-2.9-2.9
				C280.4,961.7,281.7,960.4,283.3,960.4z"/>
			<circle class="st501" cx="389.9" cy="1269.3" r="2.8"/>
			<path class="st502" d="M518.7,1276.1c1.6,0,2.9,1.3,2.9,2.9c0,1.6-1.3,2.9-2.9,2.9c-1.6,0-2.9-1.3-2.9-2.9
				C515.8,1277.3,517.1,1276.1,518.7,1276.1z"/>
			<path class="st503" d="M-1.1,348.6c1.7,0,3.2,1.4,3.2,3.2c0,1.7-1.4,3.2-3.2,3.2c-1.7,0-3.2-1.4-3.2-3.2
				C-4.3,350-2.9,348.6-1.1,348.6z"/>
			<path class="st504" d="M356.7,1138.9c1.6,0,2.9,1.3,2.9,2.9c0,1.6-1.3,2.9-2.9,2.9c-1.6,0-2.9-1.3-2.9-2.9
				C353.8,1140.2,355.1,1138.9,356.7,1138.9z"/>
			<circle class="st505" cx="509" cy="1223.7" r="2.9"/>
			<path class="st506" d="M438.3-64.7c1.8,0,3.2,1.4,3.2,3.2c0,1.8-1.4,3.2-3.2,3.2c-1.8,0-3.2-1.4-3.2-3.2
				C435.1-63.3,436.5-64.7,438.3-64.7z"/>
			<path class="st507" d="M347.2,1070.4c1.6,0,2.9,1.3,2.9,2.9c0,1.6-1.3,2.9-2.9,2.9c-1.6,0-2.9-1.3-2.9-2.9
				C344.2,1071.8,345.6,1070.4,347.2,1070.4z"/>
			<path class="st508" d="M-35.9,1885.9c2.7,0,4.9,2.2,4.9,4.9c0,2.7-2.2,4.9-4.9,4.9c-2.7,0-4.9-2.2-4.9-4.9
				C-40.8,1888.1-38.6,1885.9-35.9,1885.9z"/>
			<path class="st509" d="M278.2,833.2c1.7,0,3.1,1.4,3.1,3.1c0,1.7-1.4,3.1-3.1,3.1c-1.7,0-3.1-1.4-3.1-3.1
				C275,834.6,276.4,833.2,278.2,833.2z"/>
			<path class="st510" d="M436,821c1.7,0,3,1.3,3,3s-1.3,3-3,3c-1.7,0-3-1.3-3-3S434.4,821,436,821z"/>
		</g>
		<path class="st0" d="M-115.9,1483.9c56.8,8.9,141.9-0.8,194.8-18.9c66.2-22.7,284.6-77.1,353-93.2
			c134.2-31.6,134.4-57.2,256.9,14.6c43.7,25.6,80.1,48.7,131.4,59.7c82.1,17.5,125.8-13.9,200.2-38.3
			c70.8-23.1,146.5-36.7,217.3-60.2c54.6-18.1,142.3-44.1,202.1-55.8c53-10.4,89.7-31.7,143.4-24.3c60.8,8.4,105.6,46.4,161.3,69
			c78.7,31.9,67.8,23,309.5-79.8c108.1-46,206.3-109.5,329.8-102.8c75.3,4.1,151.7,75.6,208.4,124.6
			c53.9,46.7,116.4,85.4,170.5,129.7c36.4,29.8,38.7,40.8,48.2,92.2c12.7,69.2,39.8,151.1,38.8,221.7c-0.2,16,11.4,33,2.9,48.2
			c-6.6,11.8-72.6,30.8-72.2,30.6c-151.1,47.7-360.2,48.2-510.3,60c-416.5,32.6-834.3,40.6-1251.9,39.8
			c-260.2-0.5-518.2,16.9-777.9,20.9c-90.5,1.4-181.4-2.8-271.8,1.7c-8.6,0.4-54.5,9.7-68.2,4.4
			C-205.2,1886.9-147,1590.8-115.9,1483.9z"/>
		<radialGradient id="SVGID_4_" cx="277.4258" cy="1578.5254" r="786.8094" gradientUnits="userSpaceOnUse">
			<stop  offset="5.471240e-02" style="stop-color:#FF9B8C"/>
			<stop  offset="6.249226e-02" style="stop-color:#FC998B"/>
			<stop  offset="0.3336" style="stop-color:#A4645A"/>
			<stop  offset="0.5721" style="stop-color:#5E3933"/>
			<stop  offset="0.7691" style="stop-color:#2B1A18"/>
			<stop  offset="0.9174" style="stop-color:#0C0706"/>
			<stop  offset="1" style="stop-color:#000000"/>
		</radialGradient>
		<circle class="st511" cx="277.4" cy="1578.5" r="786.8"/>
		<radialGradient id="SVGID_5_" cx="2682.6179" cy="1275.5093" r="786.8094" gradientUnits="userSpaceOnUse">
			<stop  offset="5.471240e-02" style="stop-color:#FF9B8C"/>
			<stop  offset="6.249226e-02" style="stop-color:#FC998B"/>
			<stop  offset="0.3336" style="stop-color:#A4645A"/>
			<stop  offset="0.5721" style="stop-color:#5E3933"/>
			<stop  offset="0.7691" style="stop-color:#2B1A18"/>
			<stop  offset="0.9174" style="stop-color:#0C0706"/>
			<stop  offset="1" style="stop-color:#000000"/>
		</radialGradient>
		<circle class="st512" cx="2682.6" cy="1275.5" r="786.8"/>
	</g>
	<g>
		<g class="st513">
			
				<image style="overflow:visible;" width="1825" height="1957" xlink:href="E4C75E0C.png"  transform="matrix(0.24 0 0 0.24 346.08 316.4)">
			</image>
		</g>
		<path class="st514" d="M728.5,642.4C638.2,653,556.7,590.1,546.4,502c-8-68.9,29.8-132.7,89.8-162.4c-11.1-0.6-22.5-0.4-33.9,1
			c-104.7,12.2-179.9,104.9-168,207.1c11.9,102.2,106.4,175.1,211.1,162.9c59-6.9,108.6-39.3,138.5-84.6
			C767.1,634.4,748.4,640.1,728.5,642.4z"/>
	</g>
</g>
</svg>
